<svg width="406" height="358" viewBox="0 0 406 358" fill="none" xmlns="http://www.w3.org/2000/svg">
<path d="M202 187V133" stroke="#336DDB" stroke-width="5"/>
<rect x="2.5" y="2.5" width="107.44" height="127.407" fill="white" stroke="white" stroke-width="5"/>
<rect x="15.418" y="15.4175" width="81.6045" height="13.8901" fill="#EEEEEE"/>
<rect x="15.418" y="31.9121" width="81.6045" height="14.7583" fill="#EEEEEE"/>
<rect x="15.418" y="49.2744" width="81.6045" height="14.7583" fill="#EEEEEE"/>
<rect x="15.418" y="75.3188" width="81.6045" height="37.3297" fill="#EEEEEE"/>
<path d="M70.1097 106.572H24.9668V103.099H70.1097V106.572Z" fill="white"/>
<path d="M76.1874 106.572H72.7148V103.099H76.1874V106.572Z" fill="white"/>
<path d="M81.4276 106.572H77.9551V103.099H81.4276V106.572Z" fill="white"/>
<path d="M70.2125 23.9287H24.7832V20.7739H70.2125V23.9287Z" fill="white"/>
<path d="M75.8911 23.9292H72.7363V20.7744H75.8911V23.9292Z" fill="white"/>
<path d="M81.5708 23.9292H78.416V20.7744H81.5708V23.9292Z" fill="white"/>
<path d="M87.2486 23.9292H84.0938V20.7744H87.2486V23.9292Z" fill="white"/>
<path d="M70.2125 40.9644H24.7832V37.8096H70.2125V40.9644Z" fill="white"/>
<path d="M75.8911 40.9644H72.7363V37.8096H75.8911V40.9644Z" fill="white"/>
<path d="M81.5708 40.9644H78.416V37.8096H81.5708V40.9644Z" fill="white"/>
<path d="M87.2486 40.9644H84.0938V37.8096H87.2486V40.9644Z" fill="white"/>
<path d="M70.2125 58.002H24.7832V54.8472H70.2125V58.002Z" fill="white"/>
<path d="M75.8911 58.0015H72.7363V54.8467H75.8911V58.0015Z" fill="white"/>
<path d="M81.5708 58.0015H78.416V54.8467H81.5708V58.0015Z" fill="white"/>
<path d="M87.2486 58.0015H84.0938V54.8467H87.2486V58.0015Z" fill="white"/>
<path d="M87.3378 106.572H83.8652V103.099H87.3378V106.572Z" fill="white"/>
<rect x="148.5" y="2.5" width="107.44" height="127.407" fill="white" stroke="white" stroke-width="5"/>
<rect x="161.418" y="15.4175" width="81.6045" height="13.8901" fill="#EEEEEE"/>
<rect x="161.418" y="31.9121" width="81.6045" height="14.7583" fill="#EEEEEE"/>
<rect x="161.418" y="49.2744" width="81.6045" height="14.7583" fill="#EEEEEE"/>
<rect x="161.418" y="75.3188" width="81.6045" height="37.3297" fill="#EEEEEE"/>
<path d="M216.11 106.572H170.967V103.099H216.11V106.572Z" fill="white"/>
<path d="M222.187 106.572H218.715V103.099H222.187V106.572Z" fill="white"/>
<path d="M227.428 106.572H223.955V103.099H227.428V106.572Z" fill="white"/>
<path d="M216.212 23.9287H170.783V20.7739H216.212V23.9287Z" fill="white"/>
<path d="M221.891 23.9292H218.736V20.7744H221.891V23.9292Z" fill="white"/>
<path d="M227.571 23.9292H224.416V20.7744H227.571V23.9292Z" fill="white"/>
<path d="M233.249 23.9292H230.094V20.7744H233.249V23.9292Z" fill="white"/>
<path d="M216.212 40.9644H170.783V37.8096H216.212V40.9644Z" fill="white"/>
<path d="M221.891 40.9644H218.736V37.8096H221.891V40.9644Z" fill="white"/>
<path d="M227.571 40.9644H224.416V37.8096H227.571V40.9644Z" fill="white"/>
<path d="M233.249 40.9644H230.094V37.8096H233.249V40.9644Z" fill="white"/>
<path d="M216.212 58.002H170.783V54.8472H216.212V58.002Z" fill="white"/>
<path d="M221.891 58.0015H218.736V54.8467H221.891V58.0015Z" fill="white"/>
<path d="M227.571 58.0015H224.416V54.8467H227.571V58.0015Z" fill="white"/>
<path d="M233.249 58.0015H230.094V54.8467H233.249V58.0015Z" fill="white"/>
<path d="M233.338 106.572H229.865V103.099H233.338V106.572Z" fill="white"/>
<rect x="295.5" y="2.5" width="107.44" height="127.407" fill="white" stroke="white" stroke-width="5"/>
<rect x="308.418" y="15.4175" width="81.6045" height="13.8901" fill="#EEEEEE"/>
<rect x="308.418" y="31.9121" width="81.6045" height="14.7583" fill="#EEEEEE"/>
<rect x="308.418" y="49.2744" width="81.6045" height="14.7583" fill="#EEEEEE"/>
<rect x="308.418" y="75.3188" width="81.6045" height="37.3297" fill="#EEEEEE"/>
<path d="M363.11 106.572H317.967V103.099H363.11V106.572Z" fill="white"/>
<path d="M369.186 106.572H365.714V103.099H369.186V106.572Z" fill="white"/>
<path d="M374.427 106.572H370.954V103.099H374.427V106.572Z" fill="white"/>
<path d="M363.212 23.9287H317.783V20.7739H363.212V23.9287Z" fill="white"/>
<path d="M368.891 23.9292H365.736V20.7744H368.891V23.9292Z" fill="white"/>
<path d="M374.57 23.9292H371.415V20.7744H374.57V23.9292Z" fill="white"/>
<path d="M380.25 23.9292H377.095V20.7744H380.25V23.9292Z" fill="white"/>
<path d="M363.212 40.9644H317.783V37.8096H363.212V40.9644Z" fill="white"/>
<path d="M368.891 40.9644H365.736V37.8096H368.891V40.9644Z" fill="white"/>
<path d="M374.57 40.9644H371.415V37.8096H374.57V40.9644Z" fill="white"/>
<path d="M380.25 40.9644H377.095V37.8096H380.25V40.9644Z" fill="white"/>
<path d="M363.212 58.002H317.783V54.8472H363.212V58.002Z" fill="white"/>
<path d="M368.891 58.0015H365.736V54.8467H368.891V58.0015Z" fill="white"/>
<path d="M374.57 58.0015H371.415V54.8467H374.57V58.0015Z" fill="white"/>
<path d="M380.25 58.0015H377.095V54.8467H380.25V58.0015Z" fill="white"/>
<path d="M380.338 106.572H376.865V103.099H380.338V106.572Z" fill="white"/>
<path d="M56 134V157H349V134" stroke="#336DDB" stroke-width="5"/>
<g filter="url(#filter0_d_0_1)">
<rect x="131.746" y="176.022" width="141.506" height="168.418" fill="white"/>
<rect x="129.246" y="173.522" width="146.506" height="173.418" stroke="white" stroke-width="5"/>
</g>
<rect x="146.504" y="196.857" width="111.989" height="52.088" fill="#EEEEEE"/>
<rect x="146.504" y="272.384" width="111.989" height="52.088" fill="#EEEEEE"/>
<path d="M222.033 241.132H159.527V236.792H222.033V241.132Z" fill="white"/>
<path d="M222.033 315.792H159.527V311.451H222.033V315.792Z" fill="white"/>
<path d="M229.845 241.132H225.504V236.792H229.845V241.132Z" fill="white"/>
<path d="M229.845 315.792H225.504V311.451H229.845V315.792Z" fill="white"/>
<path d="M237.659 241.132H233.318V236.792H237.659V241.132Z" fill="white"/>
<path d="M237.659 315.792H233.318V311.451H237.659V315.792Z" fill="white"/>
<path d="M245.472 241.132H241.131V236.792H245.472V241.132Z" fill="white"/>
<path d="M245.472 315.792H241.131V311.451H245.472V315.792Z" fill="white"/>
<rect x="43" y="123.066" width="26.044" height="18.2308" fill="#336DDB"/>
<path fill-rule="evenodd" clip-rule="evenodd" d="M43 124.057L43.001 123.066H44.37L56.023 130.314L67.6242 123.066L69.045 123.066V124.097L56.023 132.313L43 124.057Z" fill="white"/>
<rect x="189" y="123.066" width="26.044" height="18.2308" fill="#336DDB"/>
<path fill-rule="evenodd" clip-rule="evenodd" d="M189 124.057L189.001 123.066H190.37L202.023 130.314L213.624 123.066L215.045 123.066V124.097L202.023 132.313L189 124.057Z" fill="white"/>
<rect x="336" y="123.066" width="26.044" height="18.2308" fill="#336DDB"/>
<path fill-rule="evenodd" clip-rule="evenodd" d="M336 124.057L336.001 123.066H337.37L349.023 130.314L360.624 123.066L362.045 123.066V124.097L349.023 132.313L336 124.057Z" fill="white"/>
<defs>
<filter id="filter0_d_0_1" x="122.746" y="171.022" width="159.506" height="186.417" filterUnits="userSpaceOnUse" color-interpolation-filters="sRGB">
<feFlood flood-opacity="0" result="BackgroundImageFix"/>
<feColorMatrix in="SourceAlpha" type="matrix" values="0 0 0 0 0 0 0 0 0 0 0 0 0 0 0 0 0 0 127 0" result="hardAlpha"/>
<feOffset dy="4"/>
<feGaussianBlur stdDeviation="2"/>
<feColorMatrix type="matrix" values="0 0 0 0 0.105882 0 0 0 0 0.396078 0 0 0 0 0.952941 0 0 0 0.15 0"/>
<feBlend mode="normal" in2="BackgroundImageFix" result="effect1_dropShadow_0_1"/>
<feBlend mode="normal" in="SourceGraphic" in2="effect1_dropShadow_0_1" result="shape"/>
</filter>
</defs>
</svg>
