<svg width="179" height="94" viewBox="0 0 179 94" fill="none" xmlns="http://www.w3.org/2000/svg">
<path d="M24.8565 77.7666L7.91631 92.0126C7.30286 92.5285 6.55493 92.8584 5.76046 92.9636C4.96598 93.0688 4.158 92.9448 3.43154 92.6064C2.70507 92.2679 2.09032 91.7289 1.65957 91.0528C1.22883 90.3768 0.999999 89.5917 1 88.79V5.20995C1 4.09341 1.44338 3.02259 2.23259 2.23307C3.02181 1.44355 4.09221 1 5.20833 1H97.7917C98.9078 1 99.9782 1.44355 100.767 2.23307C101.557 3.02259 102 4.09341 102 5.20995V72.5692C102 73.6858 101.557 74.7566 100.767 75.5461C99.9782 76.3356 98.9078 76.7792 97.7917 76.7792H27.5645C26.5738 76.7792 25.6148 77.1288 24.8565 77.7666Z" fill="#29292B" stroke="#0A84FF" stroke-width="2" stroke-linecap="round" stroke-linejoin="round"/>
<rect opacity="0.5" x="10" y="13" width="82" height="5" fill="#A9A9A9"/>
<rect opacity="0.5" x="10" y="28" width="82" height="5" fill="#A9A9A9"/>
<rect opacity="0.5" x="10" y="44" width="82" height="5" fill="#A9A9A9"/>
<path d="M144.877 76H132.125C131.562 76 131.021 75.7761 130.622 75.3775C130.224 74.979 130 74.4384 130 73.8748V62.0037C130 61.7246 130.055 61.4482 130.162 61.1904C130.269 60.9326 130.425 60.6983 130.622 60.5009L162.501 28.6225C162.899 28.2239 163.44 28 164.004 28C164.567 28 165.108 28.2239 165.506 28.6225L177.378 40.4935C177.776 40.8921 178 41.4327 178 41.9963C178 42.56 177.776 43.1005 177.378 43.4991L144.877 76Z" stroke="#A9A9A9" stroke-width="2" stroke-linecap="round" stroke-linejoin="round"/>
<path d="M155.309 35.8545L170.145 50.6909" stroke="#A9A9A9" stroke-width="2" stroke-linecap="round" stroke-linejoin="round"/>
<path d="M177.127 75.9999H144.902L130 61.1636" stroke="#A9A9A9" stroke-width="2" stroke-linecap="round" stroke-linejoin="round"/>
</svg>
