<svg width="351" height="88" viewBox="0 0 351 88" fill="none" xmlns="http://www.w3.org/2000/svg">
<rect x="1" y="1" width="70" height="86" rx="1" fill="#29292B" stroke="#00AC98" stroke-width="2"/>
<rect x="208" y="1" width="142" height="86" rx="1" fill="#29292B" stroke="#EFEFEF" stroke-width="2"/>
<circle cx="36.0088" cy="32.7236" r="10.7236" stroke="#EFEFEF" stroke-width="2.5" stroke-linecap="round" stroke-linejoin="round"/>
<path fill-rule="evenodd" clip-rule="evenodd" d="M19 58.3616C18.9972 57.6077 19.1658 56.863 19.4931 56.184C20.5202 54.1296 23.4169 53.0408 25.8204 52.5478C27.5539 52.1779 29.3113 51.9307 31.0796 51.8082C34.3533 51.5206 37.646 51.5206 40.9198 51.8082C42.6879 51.9321 44.4452 52.1792 46.1789 52.5478C48.5825 53.0408 51.4791 54.0269 52.5063 56.184C53.1646 57.5683 53.1646 59.1754 52.5063 60.5597C51.4791 62.7167 48.5825 63.7028 46.1789 64.1753C44.4475 64.5606 42.6895 64.8147 40.9198 64.9354C38.2552 65.1613 35.5782 65.2025 32.9079 65.0587C32.2916 65.0587 31.6959 65.0587 31.0796 64.9354C29.3165 64.8161 27.5652 64.562 25.841 64.1753C23.4169 63.7028 20.5408 62.7167 19.4931 60.5597C19.1674 59.8727 18.999 59.1218 19 58.3616Z" stroke="#EFEFEF" stroke-width="2.5" stroke-linecap="round" stroke-linejoin="round"/>
<path d="M83 43H103" stroke="#A9A9A9" stroke-width="2"/>
<path d="M143 43H163" stroke="#A9A9A9" stroke-width="2"/>
<path d="M113 43H133" stroke="#A9A9A9" stroke-width="2"/>
<path d="M173 43H193" stroke="#A9A9A9" stroke-width="2"/>
<rect opacity="0.5" x="219" y="12" width="122" height="5" fill="#A9A9A9"/>
<rect opacity="0.5" x="219" y="31" width="122" height="5" fill="#A9A9A9"/>
<rect opacity="0.5" x="219" y="50" width="122" height="5" fill="#A9A9A9"/>
<rect opacity="0.5" x="219" y="69" width="122" height="5" fill="#A9A9A9"/>
</svg>
