<svg width="623" height="498" viewBox="0 0 623 498" fill="none" xmlns="http://www.w3.org/2000/svg">
<path d="M380 128.5L417.5 150V178.5L454.5 200" stroke="#DBE7FF"/>
<path d="M385 302L422.5 323.5V352L459.5 373.5" stroke="#DBE7FF"/>
<path d="M134 142L171.5 163.5V192L208.5 213.5" stroke="#DBE7FF"/>
<path d="M373 92.1056L213.5 0V286.052L373 377.408V92.1056Z" fill="#1D1E1F"/>
<path d="M348.289 253.032L237.463 188.704V224.422L348.289 288.227V253.032Z" stroke="black"/>
<path d="M318.336 248.739L243.453 205.178V214.389L318.336 257.596V248.739Z" fill="#F0C808"/>
<path d="M321.332 250.108V259.319L329.056 263.775V254.601L321.332 250.108Z" fill="#00AC98"/>
<path d="M331.814 256.099V265.309L339.538 269.766V260.592L331.814 256.099Z" fill="#F0C808"/>
<path d="M348.289 203.609L237.463 139.282V175L348.289 238.805V203.609Z" stroke="black"/>
<path d="M318.336 199.316L243.453 155.755V164.966L318.336 208.172V199.316Z" fill="#F0C808"/>
<path d="M321.332 200.685V209.896L329.056 214.352V205.178L321.332 200.685Z" fill="#F0C808"/>
<path d="M331.814 206.675V215.886L339.538 220.342V211.168L331.814 206.675Z" fill="#00AC98"/>
<path d="M348.289 154.187L237.463 89.8596V125.578L348.289 189.383V154.187Z" stroke="black"/>
<path d="M318.336 149.895L243.453 106.333V115.544L318.336 158.751V149.895Z" fill="#F0C808"/>
<path d="M321.332 151.263V160.474L329.056 164.931V155.756L321.332 151.263Z" fill="#00AC98"/>
<path d="M331.814 157.254V166.465L339.538 170.921V161.747L331.814 157.254Z" fill="#F0C808"/>
<path d="M348.289 104.764L237.463 40.4365V76.1551L348.289 139.96V104.764Z" stroke="black"/>
<path d="M318.336 100.472L243.453 56.9111V66.1219L318.336 109.329V100.472Z" fill="#F0C808"/>
<path d="M321.332 101.841V111.052L329.056 115.508V106.334L321.332 101.841Z" fill="#F0C808"/>
<path d="M331.814 107.831V117.042L339.538 121.498V112.324L331.814 107.831Z" fill="#00AC98"/>
<path d="M348.289 302.455L237.463 238.127V273.846L348.289 337.65V302.455Z" stroke="black"/>
<path d="M318.336 298.163L243.453 254.602V263.813L318.336 307.02V298.163Z" fill="#F0C808"/>
<path d="M321.332 299.532V308.743L329.056 313.199V304.025L321.332 299.532Z" fill="#F0C808"/>
<path d="M331.814 305.522V314.733L339.538 319.19V310.015L331.814 305.522Z" fill="#00AC98"/>
<path d="M184.303 388.039L3.99966 284L4.06625 377.981L168.45 472.828L184.369 496.407L184.303 388.039Z" fill="#1D1E1F"/>
<path d="M137.945 384.176L98.4479 361.396V369.655L137.945 392.435V384.176Z" fill="#DBE7FF"/>
<path d="M138.012 400.693L61.8809 356.733V364.992L138.012 408.952V400.693Z" fill="#DBE7FF"/>
<path d="M138.012 417.212L45.7622 363.927V372.187L138.012 425.472V417.212Z" fill="#DBE7FF"/>
<path d="M147.735 398.362C147.735 406.088 152.331 415.014 157.993 418.277C163.654 421.541 168.25 417.878 168.25 410.151C168.25 402.425 163.654 393.5 157.993 390.236C152.265 387.039 147.669 390.636 147.735 398.362Z" fill="#336DDB"/>
<path d="M622.314 406.734L472 320L472.055 398.35L609.098 477.421L622.369 497.078L622.314 406.734Z" fill="#1D1E1F"/>
<path d="M583.666 403.514L550.738 384.523V391.409L583.666 410.399V403.514Z" fill="#DBE7FF"/>
<path d="M583.722 417.284L520.253 380.636V387.521L583.722 424.17V417.284Z" fill="#DBE7FF"/>
<path d="M583.722 431.055L506.816 386.633V393.519L583.722 437.941V431.055Z" fill="#DBE7FF"/>
<path d="M591.829 415.341C591.829 421.782 595.66 429.223 600.38 431.944C605.1 434.665 608.932 431.611 608.932 425.169C608.932 418.728 605.1 411.287 600.38 408.567C595.605 405.901 591.774 408.9 591.829 415.341Z" fill="#336DDB"/>
<path d="M587.057 227.122L469 159L469.043 220.536L576.677 282.64L587.101 298.078L587.057 227.122Z" fill="#1D1E1F"/>
<path d="M556.703 224.592L530.841 209.677V215.085L556.703 230V224.592Z" fill="#DBE7FF"/>
<path d="M556.747 235.407L506.899 206.624V212.031L556.747 240.815V235.407Z" fill="#DBE7FF"/>
<path d="M556.747 246.224L496.345 211.334V216.742L556.747 251.632V246.224Z" fill="#DBE7FF"/>
<path d="M563.114 233.881C563.114 238.94 566.124 244.784 569.831 246.921C573.538 249.058 576.547 246.659 576.547 241.6C576.547 236.541 573.538 230.697 569.831 228.56C566.08 226.467 563.071 228.822 563.114 233.881Z" fill="#336DDB"/>
<path d="M118.058 75.1216L0.000511169 6.99976L0.0441132 68.5362L107.678 130.64L118.102 146.078L118.058 75.1216Z" fill="#1D1E1F"/>
<path d="M87.7031 72.592L61.8413 57.6768V63.0846L87.7031 77.9999V72.592Z" fill="#DBE7FF"/>
<path d="M87.7461 83.4074L37.8977 54.6235V60.0314L87.7461 88.8153V83.4074Z" fill="#DBE7FF"/>
<path d="M87.7461 94.2238L27.3436 59.3342V64.7421L87.7461 99.6316V94.2238Z" fill="#DBE7FF"/>
<path d="M94.1144 81.8811C94.1144 86.9401 97.1236 92.784 100.831 94.921C104.538 97.058 107.547 94.6594 107.547 89.6004C107.547 84.5414 104.538 78.6974 100.831 76.5604C97.08 74.467 94.0708 76.8221 94.1144 81.8811Z" fill="#336DDB"/>
<path d="M184 360V310.5L201 320V297" stroke="#DBE7FF"/>
</svg>
