<svg width="456" height="424" viewBox="0 0 456 424" fill="none" xmlns="http://www.w3.org/2000/svg">
<path d="M413.499 353C425.798 368.373 441.955 386.46 451.537 398.258C462.191 366.224 447.373 320.963 431.5 287.5C427.638 308.307 420.435 329.618 413.499 353Z" fill="#00AC98"/>
<path d="M342.834 237.225C327.032 252.384 312.875 280.699 323.529 324.959C333.11 324.173 346.696 323.1 358.994 321.956C351.987 290.495 346.696 262.394 342.834 237.225Z" fill="#00AC98"/>
<path d="M193.559 111.688L0.000335693 0L0.0718231 100.891L176.542 202.711L193.631 228.024L193.559 111.688Z" fill="#1D1E1F"/>
<path d="M143.793 107.541L101.392 83.0864V91.9528L143.793 116.407V107.541Z" fill="#DBE7FF"/>
<path d="M143.863 125.273L62.1352 78.0813V86.9477L143.863 134.14V125.273Z" fill="#DBE7FF"/>
<path d="M143.863 143.006L44.8314 85.8037V94.6701L143.863 151.873V143.006Z" fill="#DBE7FF"/>
<path d="M154.303 122.771C154.303 131.065 159.237 140.647 165.315 144.15C171.392 147.654 176.326 143.721 176.326 135.427C176.326 127.132 171.392 117.551 165.315 114.047C159.165 110.615 154.232 114.476 154.303 122.771Z" fill="#F0C808"/>
<path d="M272.559 306.688L79.0003 195L79.0718 295.891L255.542 397.711L272.631 423.024L272.559 306.688Z" fill="#1D1E1F"/>
<path d="M222.793 302.541L180.392 278.086V286.953L222.793 311.407V302.541Z" fill="#DBE7FF"/>
<path d="M222.863 320.273L141.135 273.081V281.948L222.863 329.14V320.273Z" fill="#DBE7FF"/>
<path d="M222.863 338.006L123.831 280.804V289.67L222.863 346.873V338.006Z" fill="#DBE7FF"/>
<path d="M233.303 317.771C233.303 326.065 238.237 335.647 244.315 339.15C250.392 342.654 255.326 338.721 255.326 330.427C255.326 322.132 250.392 312.551 244.315 309.047C238.165 305.615 233.232 309.476 233.303 317.771Z" fill="#F0C808"/>
<path d="M312.621 85.7124L197.001 19V79.2057L312.621 145.918V85.7124Z" fill="#1D1E1F"/>
<path d="M226.675 65.0479L300.752 107.807V115.1L226.675 72.3412V65.0479Z" fill="#DBE7FF"/>
<path d="M220.525 52.6779C220.525 57.6117 217.594 59.9713 213.947 57.8977C210.3 55.8241 207.369 50.1038 207.369 45.0986C207.369 40.1649 210.3 37.8053 213.947 39.8789C217.594 42.024 220.525 47.7442 220.525 52.6779Z" fill="#F0C808"/>
<path d="M421.116 327.5C469.516 173.1 417.616 56.1667 385.616 17C292.816 38.6 338.95 278.333 373.616 395.5L397.116 409.5L421.116 327.5Z" fill="#1D1E1F"/>
<path d="M413.623 136.133C413.623 156.798 401.468 166.522 386.452 157.87C371.436 149.218 359.281 125.408 359.281 104.743C359.281 84.079 371.436 74.3546 386.452 83.0065C401.468 91.6583 413.623 115.469 413.623 136.133Z" fill="#00AC98"/>
</svg>
