<svg width="925" height="604" viewBox="0 0 925 604" fill="none" xmlns="http://www.w3.org/2000/svg">
<path d="M926 126.716C710.839 2.30122 534.937 149.685 534.937 459L480 427.226C480.127 77.8435 679.1 -92.1266 926 50.5359V126.716Z" fill="#1D1E1F"/>
<path d="M746.872 581C746.872 443.94 827.078 379.104 926 436.17V360.125C796.778 285.481 692 370.188 692 549.283L746.872 581Z" fill="#1D1E1F"/>
<path d="M639.922 518C639.922 298.906 768.115 195.353 926 286.664V210.529C737.787 101.747 585 225.195 585 486.245L639.922 518Z" fill="#1D1E1F"/>
<path d="M414 269L645 403.05V524L434.414 401.725L414.078 408.431L414 269Z" fill="#1D1E1F"/>
<path d="M461 336.758C461 346.944 455.154 351.718 448 347.421C440.846 343.124 435 331.427 435 321.242C435 311.056 440.846 306.282 448 310.579C455.154 314.796 461 326.573 461 336.758Z" fill="#336DDB"/>
<path d="M473 333L524 362.396V373L473 343.604V333Z" fill="#36383A"/>
<path d="M473 354L625 441.431V452L473 364.569V354Z" fill="#36383A"/>
<path d="M473 375L592 443.425V454L473 385.575V375Z" fill="#36383A"/>
<path d="M204 108L334 183.28V425L204 349.72V108Z" fill="#1D1E1F"/>
<path d="M216 253L321 313.424V324L216 263.576V253Z" fill="#36383A"/>
<path d="M224 278L314 330.343V341L224 288.657V278Z" fill="#36383A"/>
<path d="M284 202.852C284 214.55 277.049 220.087 268.5 215.252C259.951 210.417 253 196.925 253 185.148C253 173.45 259.951 167.913 268.5 172.748C277.049 177.739 284 191.153 284 202.852Z" fill="#F0C808"/>
<path d="M268.5 224.184C255.071 216.225 243.97 223.711 242.03 240.811C241.719 243.806 243.893 247.746 246.61 249.322L290.39 275.327C293.107 276.903 295.281 275.642 294.97 272.254C293.03 252.789 281.929 232.143 268.5 224.184Z" fill="#F0C808"/>
<path d="M277 287L407 362.28V604L277 528.72V287Z" fill="#1D1E1F"/>
<path d="M289 430L394 490.424V501L289 440.576V430Z" fill="#36383A"/>
<path d="M297 455L387 507.343V518L297 465.657V455Z" fill="#36383A"/>
<path d="M357 381.852C357 393.55 350.273 399.087 342 394.252C333.727 389.339 327 375.925 327 364.148C327 352.45 333.727 346.913 342 351.748C350.273 356.661 357 370.153 357 381.852Z" fill="#00AC98"/>
<path d="M341.5 404.126C328.071 396.312 316.97 403.662 315.03 420.451C314.719 423.391 316.893 427.26 319.61 428.807L363.39 454.339C366.107 455.887 368.281 454.649 367.97 451.322C366.03 432.212 354.929 411.94 341.5 404.126Z" fill="#00AC98"/>
<path d="M231.922 454.814L0 321V441.737L211.504 563.719L232 594L231.922 454.814Z" fill="#1D1E1F"/>
<path d="M184 467.936C184 477.866 190.071 489.271 197.5 493.46C204.929 497.65 211 492.995 211 483.064C211 473.134 204.929 461.729 197.5 457.54C190.071 453.35 184 458.005 184 467.936Z" fill="#336DDB"/>
<path d="M172 449.318L121 420V430.604L172 460V449.318Z" fill="#36383A"/>
<path d="M172 471.323L20 383V393.677L172 482V471.323Z" fill="#36383A"/>
<path d="M172 492.425L53 424V434.575L172 503V492.425Z" fill="#36383A"/>
<path d="M498.5 464.242C503.596 467.165 507.672 474.387 507.672 480.319V506.541L524.828 516.514C529.923 519.437 534 526.658 534 532.676C534 538.608 529.923 541.016 524.828 538.093L507.672 528.12V554.341C507.672 560.274 503.596 562.681 498.5 559.758C493.404 556.835 489.328 549.613 489.328 543.595V517.373L472.172 507.4C467.077 504.477 463 497.256 463 491.324C463 485.392 467.077 482.984 472.172 485.907L489.328 495.88V469.659C489.328 463.726 493.404 461.319 498.5 464.242Z" fill="#1D1E1F"/>
<path d="M123.422 241L145.059 283.867C148.016 289.755 147.549 295.643 143.969 297.057C140.389 298.47 135.096 294.78 132.139 288.891L131.905 288.342V335.919C131.905 341.337 128.17 343.535 123.5 340.866C118.83 338.118 115.095 331.601 115.095 326.184V278.607L114.861 278.842C111.904 281.276 106.533 278.764 103.031 273.189C99.451 267.615 98.984 261.177 101.941 258.743L123.422 241Z" fill="#1D1E1F"/>
</svg>
