<svg width="333" height="177" viewBox="0 0 333 177" fill="none" xmlns="http://www.w3.org/2000/svg">
<rect x="220" y="1" width="75" height="46" rx="1" fill="#29292B" stroke="#707071" stroke-width="2"/>
<rect x="220" y="130" width="75" height="46" rx="1" fill="#29292B" stroke="#707071" stroke-width="2"/>
<rect x="257" y="66" width="75" height="46" rx="1" fill="#29292B" stroke="#707071" stroke-width="2"/>
<path d="M99 89H171C172.657 89 174 87.6569 174 86V28C174 26.3431 175.343 25 177 25H214" stroke="#A9A9A9"/>
<path d="M99 89H171C172.657 89 174 90.3431 174 92V150C174 151.657 175.343 153 177 153H214" stroke="#A9A9A9"/>
<path d="M22.2582 125.422L7.16305 138.12C6.61641 138.58 5.94994 138.874 5.24199 138.968C4.53404 139.061 3.81406 138.951 3.16672 138.649C2.51937 138.347 1.97157 137.867 1.58774 137.264C1.2039 136.662 0.999999 135.962 1 135.248V60.7524C1 59.7572 1.39509 58.8027 2.09835 58.099C2.80161 57.3953 3.75544 57 4.75 57H87.25C88.2446 57 89.1984 57.3953 89.9017 58.099C90.6049 58.8027 91 59.7572 91 60.7524V120.79C91 121.785 90.6049 122.74 89.9017 123.443C89.1984 124.147 88.2446 124.542 87.25 124.542H24.6713C23.7885 124.542 22.934 124.854 22.2582 125.422Z" fill="#29292B" stroke="#F0C808" stroke-width="2" stroke-linecap="round" stroke-linejoin="round"/>
<path d="M142 89H245" stroke="#989898"/>
</svg>
