<svg width="234" height="64" viewBox="0 0 234 64" fill="none" xmlns="http://www.w3.org/2000/svg">
<path d="M1.232 6.032H4.578C6.174 6.032 7.406 6.466 8.274 7.334C9.15133 8.19267 9.59 9.41533 9.59 11.002C9.59 12.598 9.15133 13.83 8.274 14.698C7.406 15.566 6.174 16 4.578 16H1.232V6.032ZM4.508 15.02C5.796 15.02 6.762 14.684 7.406 14.012C8.05933 13.34 8.386 12.3367 8.386 11.002C8.386 8.342 7.09333 7.012 4.508 7.012H2.38V15.02H4.508ZM11.7373 8.958H12.8713V16H11.7373V8.958ZM13.0113 5.976V7.264H11.6253V5.976H13.0113ZM21.5452 8.958V15.944C21.5452 16.9893 21.2746 17.778 20.7332 18.31C20.2012 18.8513 19.4126 19.122 18.3672 19.122C17.2939 19.122 16.3699 18.8793 15.5952 18.394L15.7912 17.47C16.2392 17.722 16.6592 17.904 17.0512 18.016C17.4526 18.128 17.8912 18.184 18.3672 18.184C19.0486 18.184 19.5619 18.002 19.9072 17.638C20.2526 17.2833 20.4252 16.7513 20.4252 16.042V14.376C20.2106 14.824 19.8932 15.174 19.4732 15.426C19.0626 15.6687 18.5726 15.79 18.0032 15.79C17.3872 15.79 16.8366 15.6453 16.3512 15.356C15.8752 15.0667 15.5066 14.656 15.2452 14.124C14.9839 13.592 14.8532 12.9807 14.8532 12.29C14.8532 11.5993 14.9839 10.988 15.2452 10.456C15.5066 9.924 15.8752 9.51333 16.3512 9.224C16.8366 8.93467 17.3872 8.79 18.0032 8.79C18.5632 8.79 19.0486 8.91133 19.4592 9.154C19.8792 9.39667 20.1966 9.73733 20.4112 10.176V8.958H21.5452ZM18.2272 14.838C18.9086 14.838 19.4406 14.614 19.8232 14.166C20.2152 13.7087 20.4112 13.0833 20.4112 12.29C20.4112 11.4967 20.2152 10.876 19.8232 10.428C19.4406 9.97067 18.9086 9.742 18.2272 9.742C17.5366 9.742 16.9906 9.97067 16.5892 10.428C16.1972 10.876 16.0012 11.4967 16.0012 12.29C16.0012 13.0833 16.1972 13.7087 16.5892 14.166C16.9906 14.614 17.5366 14.838 18.2272 14.838ZM23.9225 8.958H25.0565V16H23.9225V8.958ZM25.1965 5.976V7.264H23.8105V5.976H25.1965ZM28.9704 9.854V13.704C28.9704 14.2267 29.0777 14.5953 29.2924 14.81C29.5071 15.0153 29.8104 15.118 30.2024 15.118C30.4637 15.118 30.7157 15.076 30.9584 14.992V15.958C30.6691 16.0513 30.3424 16.098 29.9784 16.098C29.3064 16.098 28.7791 15.9113 28.3964 15.538C28.0231 15.1553 27.8364 14.5953 27.8364 13.858V9.854H26.4644V8.958H27.8364V7.152L28.9704 6.746V8.958H30.9864V9.854H28.9704ZM38.4469 12.444H33.2809C33.2903 13.34 33.4956 14.0167 33.8969 14.474C34.3076 14.9313 34.9003 15.16 35.6749 15.16C36.4963 15.16 37.2523 14.8847 37.9429 14.334L38.3209 15.16C38.0129 15.4493 37.6163 15.678 37.1309 15.846C36.6549 16.014 36.1649 16.098 35.6609 16.098C34.5596 16.098 33.6963 15.776 33.0709 15.132C32.4456 14.4787 32.1329 13.5873 32.1329 12.458C32.1329 11.7393 32.2729 11.1047 32.5529 10.554C32.8329 9.994 33.2249 9.56 33.7289 9.252C34.2329 8.944 34.8069 8.79 35.4509 8.79C36.3843 8.79 37.1169 9.098 37.6489 9.714C38.1809 10.3207 38.4469 11.1607 38.4469 12.234V12.444ZM35.4649 9.672C34.8769 9.672 34.3963 9.84933 34.0229 10.204C33.6589 10.5587 33.4256 11.058 33.3229 11.702H37.4249C37.3689 11.0393 37.1729 10.5353 36.8369 10.19C36.5103 9.84467 36.0529 9.672 35.4649 9.672ZM47.1306 16.098C46.4679 16.098 45.8846 15.9487 45.3806 15.65C44.8766 15.3513 44.4846 14.9267 44.2046 14.376C43.9339 13.8253 43.7986 13.1813 43.7986 12.444C43.7986 11.7067 43.9339 11.0627 44.2046 10.512C44.4846 9.96133 44.8766 9.53667 45.3806 9.238C45.8846 8.93933 46.4679 8.79 47.1306 8.79C47.7932 8.79 48.3766 8.93933 48.8806 9.238C49.3846 9.53667 49.7719 9.96133 50.0426 10.512C50.3226 11.0627 50.4626 11.7067 50.4626 12.444C50.4626 13.1813 50.3226 13.8253 50.0426 14.376C49.7719 14.9267 49.3846 15.3513 48.8806 15.65C48.3766 15.9487 47.7932 16.098 47.1306 16.098ZM47.1306 15.16C47.8306 15.16 48.3672 14.9313 48.7406 14.474C49.1139 14.0073 49.3006 13.3307 49.3006 12.444C49.3006 11.5853 49.1092 10.9227 48.7266 10.456C48.3439 9.98 47.8119 9.742 47.1306 9.742C46.4399 9.742 45.9032 9.98 45.5206 10.456C45.1379 10.9227 44.9466 11.5853 44.9466 12.444C44.9466 13.3307 45.1332 14.0073 45.5066 14.474C45.8892 14.9313 46.4306 15.16 47.1306 15.16ZM59.5567 8.79C59.79 8.79 60.0047 8.818 60.2007 8.874L60.1727 9.91C59.958 9.83533 59.7107 9.798 59.4307 9.798C58.7493 9.798 58.2407 10.0127 57.9047 10.442C57.578 10.862 57.4147 11.3753 57.4147 11.982V16H56.2807V10.932C56.2807 10.204 56.2433 9.546 56.1687 8.958H57.2467L57.3587 10.26C57.536 9.784 57.8207 9.42 58.2127 9.168C58.6047 8.916 59.0527 8.79 59.5567 8.79ZM67.3102 12.444H62.1442C62.1536 13.34 62.3589 14.0167 62.7602 14.474C63.1709 14.9313 63.7636 15.16 64.5382 15.16C65.3596 15.16 66.1156 14.8847 66.8062 14.334L67.1842 15.16C66.8762 15.4493 66.4796 15.678 65.9942 15.846C65.5182 16.014 65.0282 16.098 64.5242 16.098C63.4229 16.098 62.5596 15.776 61.9342 15.132C61.3089 14.4787 60.9962 13.5873 60.9962 12.458C60.9962 11.7393 61.1362 11.1047 61.4162 10.554C61.6962 9.994 62.0882 9.56 62.5922 9.252C63.0962 8.944 63.6702 8.79 64.3142 8.79C65.2476 8.79 65.9802 9.098 66.5122 9.714C67.0442 10.3207 67.3102 11.1607 67.3102 12.234V12.444ZM64.3282 9.672C63.7402 9.672 63.2596 9.84933 62.8862 10.204C62.5222 10.5587 62.2889 11.058 62.1862 11.702H66.2882C66.2322 11.0393 66.0362 10.5353 65.7002 10.19C65.3736 9.84467 64.9162 9.672 64.3282 9.672ZM77.0435 8.79C78.6021 8.79 79.3815 9.71867 79.3815 11.576V16H78.2475V11.632C78.2475 10.9693 78.1308 10.4887 77.8975 10.19C77.6735 9.89133 77.3048 9.742 76.7915 9.742C76.1941 9.742 75.7275 9.94267 75.3915 10.344C75.0555 10.7453 74.8875 11.2913 74.8875 11.982V16H73.7535V11.632C73.7535 10.9787 73.6368 10.5027 73.4035 10.204C73.1701 9.896 72.7968 9.742 72.2835 9.742C71.6861 9.742 71.2148 9.94267 70.8695 10.344C70.5335 10.7453 70.3655 11.2913 70.3655 11.982V16H69.2315V10.932C69.2315 10.204 69.1941 9.546 69.1195 8.958H70.1975L70.3095 10.19C70.5055 9.742 70.7948 9.39667 71.1775 9.154C71.5695 8.91133 72.0221 8.79 72.5355 8.79C73.0955 8.79 73.5528 8.902 73.9075 9.126C74.2621 9.35 74.5235 9.69533 74.6915 10.162C74.9061 9.742 75.2188 9.41067 75.6295 9.168C76.0495 8.916 76.5208 8.79 77.0435 8.79ZM87.6301 12.444H82.4641C82.4735 13.34 82.6788 14.0167 83.0801 14.474C83.4908 14.9313 84.0835 15.16 84.8581 15.16C85.6795 15.16 86.4355 14.8847 87.1261 14.334L87.5041 15.16C87.1961 15.4493 86.7995 15.678 86.3141 15.846C85.8381 16.014 85.3481 16.098 84.8441 16.098C83.7428 16.098 82.8795 15.776 82.2541 15.132C81.6288 14.4787 81.3161 13.5873 81.3161 12.458C81.3161 11.7393 81.4561 11.1047 81.7361 10.554C82.0161 9.994 82.4081 9.56 82.9121 9.252C83.4161 8.944 83.9901 8.79 84.6341 8.79C85.5675 8.79 86.3001 9.098 86.8321 9.714C87.3641 10.3207 87.6301 11.1607 87.6301 12.234V12.444ZM84.6481 9.672C84.0601 9.672 83.5795 9.84933 83.2061 10.204C82.8421 10.5587 82.6088 11.058 82.5061 11.702H86.6081C86.5521 11.0393 86.3561 10.5353 86.0201 10.19C85.6935 9.84467 85.2361 9.672 84.6481 9.672ZM91.0224 9.854V13.704C91.0224 14.2267 91.1297 14.5953 91.3444 14.81C91.559 15.0153 91.8624 15.118 92.2544 15.118C92.5157 15.118 92.7677 15.076 93.0104 14.992V15.958C92.721 16.0513 92.3944 16.098 92.0304 16.098C91.3584 16.098 90.831 15.9113 90.4484 15.538C90.075 15.1553 89.8884 14.5953 89.8884 13.858V9.854H88.5164V8.958H89.8884V7.152L91.0224 6.746V8.958H93.0384V9.854H91.0224ZM100.499 12.444H95.3329C95.3422 13.34 95.5476 14.0167 95.9489 14.474C96.3596 14.9313 96.9522 15.16 97.7269 15.16C98.5482 15.16 99.3042 14.8847 99.9949 14.334L100.373 15.16C100.065 15.4493 99.6682 15.678 99.1829 15.846C98.7069 16.014 98.2169 16.098 97.7129 16.098C96.6116 16.098 95.7482 15.776 95.1229 15.132C94.4976 14.4787 94.1849 13.5873 94.1849 12.458C94.1849 11.7393 94.3249 11.1047 94.6049 10.554C94.8849 9.994 95.2769 9.56 95.7809 9.252C96.2849 8.944 96.8589 8.79 97.5029 8.79C98.4362 8.79 99.1689 9.098 99.7009 9.714C100.233 10.3207 100.499 11.1607 100.499 12.234V12.444ZM97.5169 9.672C96.9289 9.672 96.4482 9.84933 96.0749 10.204C95.7109 10.5587 95.4776 11.058 95.3749 11.702H99.4769C99.4209 11.0393 99.2249 10.5353 98.8889 10.19C98.5622 9.84467 98.1049 9.672 97.5169 9.672ZM105.934 8.79C107.623 8.79 108.468 9.71867 108.468 11.576V16H107.334V11.632C107.334 10.9787 107.203 10.5027 106.942 10.204C106.681 9.896 106.27 9.742 105.71 9.742C105.057 9.742 104.534 9.94267 104.142 10.344C103.75 10.7453 103.554 11.2867 103.554 11.968V16H102.42V10.932C102.42 10.204 102.383 9.546 102.308 8.958H103.386L103.498 10.218C103.713 9.76067 104.035 9.41067 104.464 9.168C104.893 8.916 105.383 8.79 105.934 8.79ZM112.322 9.854V13.704C112.322 14.2267 112.429 14.5953 112.644 14.81C112.858 15.0153 113.162 15.118 113.554 15.118C113.815 15.118 114.067 15.076 114.31 14.992V15.958C114.02 16.0513 113.694 16.098 113.33 16.098C112.658 16.098 112.13 15.9113 111.748 15.538C111.374 15.1553 111.188 14.5953 111.188 13.858V9.854H109.816V8.958H111.188V7.152L112.322 6.746V8.958H114.338V9.854H112.322ZM121.798 12.444H116.632C116.641 13.34 116.847 14.0167 117.248 14.474C117.659 14.9313 118.251 15.16 119.026 15.16C119.847 15.16 120.603 14.8847 121.294 14.334L121.672 15.16C121.364 15.4493 120.967 15.678 120.482 15.846C120.006 16.014 119.516 16.098 119.012 16.098C117.911 16.098 117.047 15.776 116.422 15.132C115.797 14.4787 115.484 13.5873 115.484 12.458C115.484 11.7393 115.624 11.1047 115.904 10.554C116.184 9.994 116.576 9.56 117.08 9.252C117.584 8.944 118.158 8.79 118.802 8.79C119.735 8.79 120.468 9.098 121 9.714C121.532 10.3207 121.798 11.1607 121.798 12.234V12.444ZM118.816 9.672C118.228 9.672 117.747 9.84933 117.374 10.204C117.01 10.5587 116.777 11.058 116.674 11.702H120.776C120.72 11.0393 120.524 10.5353 120.188 10.19C119.861 9.84467 119.404 9.672 118.816 9.672Z" fill="white"/>
<path d="M124.232 5.428L125.59 3.692L123.462 3.062L123.742 2.236L125.8 2.978L125.73 0.794H126.598L126.528 2.992L128.614 2.236L128.88 3.062L126.766 3.692L128.124 5.428L127.41 5.932L126.178 4.098L124.932 5.932L124.232 5.428Z" fill="#E80000"/>
<rect x="0.5" y="36.5" width="204" height="27" fill="#141415" stroke="#313131"/>
<path d="M224 59C228.971 59 233 54.9706 233 50C233 45.0294 228.971 41 224 41C219.029 41 215 45.0294 215 50C215 54.9706 219.029 59 224 59Z" stroke="white" stroke-linecap="round" stroke-linejoin="round"/>
<path d="M224 56C224.552 56 225 55.5523 225 55C225 54.4477 224.552 54 224 54C223.448 54 223 54.4477 223 55C223 55.5523 223.448 56 224 56Z" fill="white"/>
<path d="M224 52V51.25C224.593 51.25 225.173 51.096 225.667 50.8076C226.16 50.5192 226.545 50.1092 226.772 49.6295C226.999 49.1499 227.058 48.6221 226.942 48.1129C226.827 47.6037 226.541 47.136 226.121 46.7688C225.702 46.4017 225.167 46.1517 224.585 46.0504C224.003 45.9492 223.4 46.0011 222.852 46.1998C222.304 46.3985 221.835 46.735 221.506 47.1666C221.176 47.5983 221 48.1058 221 48.625" stroke="white" stroke-linecap="round" stroke-linejoin="round"/>
</svg>
