<svg width="312" height="280" viewBox="0 0 312 280" fill="none" xmlns="http://www.w3.org/2000/svg">
<path d="M2.232 4.032H6.208C7.23467 4.032 8.03267 4.27933 8.602 4.774C9.18067 5.26867 9.47 5.95 9.47 6.818C9.47 7.686 9.18067 8.372 8.602 8.876C8.02333 9.37067 7.22533 9.618 6.208 9.618H3.38V14H2.232V4.032ZM6.11 8.666C6.84733 8.666 7.40267 8.50733 7.776 8.19C8.14933 7.87267 8.336 7.41533 8.336 6.818C8.336 6.22067 8.14933 5.768 7.776 5.46C7.40267 5.14267 6.84733 4.984 6.11 4.984H3.38V8.666H6.11ZM14.5504 6.79C14.7838 6.79 14.9984 6.818 15.1944 6.874L15.1664 7.91C14.9518 7.83533 14.7044 7.798 14.4244 7.798C13.7431 7.798 13.2344 8.01267 12.8984 8.442C12.5718 8.862 12.4084 9.37533 12.4084 9.982V14H11.2744V8.932C11.2744 8.204 11.2371 7.546 11.1624 6.958H12.2404L12.3524 8.26C12.5298 7.784 12.8144 7.42 13.2064 7.168C13.5984 6.916 14.0464 6.79 14.5504 6.79ZM19.322 14.098C18.6593 14.098 18.076 13.9487 17.572 13.65C17.068 13.3513 16.676 12.9267 16.396 12.376C16.1253 11.8253 15.99 11.1813 15.99 10.444C15.99 9.70667 16.1253 9.06267 16.396 8.512C16.676 7.96133 17.068 7.53667 17.572 7.238C18.076 6.93933 18.6593 6.79 19.322 6.79C19.9846 6.79 20.568 6.93933 21.072 7.238C21.576 7.53667 21.9633 7.96133 22.234 8.512C22.514 9.06267 22.654 9.70667 22.654 10.444C22.654 11.1813 22.514 11.8253 22.234 12.376C21.9633 12.9267 21.576 13.3513 21.072 13.65C20.568 13.9487 19.9846 14.098 19.322 14.098ZM19.322 13.16C20.022 13.16 20.5586 12.9313 20.932 12.474C21.3053 12.0073 21.492 11.3307 21.492 10.444C21.492 9.58533 21.3006 8.92267 20.918 8.456C20.5353 7.98 20.0033 7.742 19.322 7.742C18.6313 7.742 18.0946 7.98 17.712 8.456C17.3293 8.92267 17.138 9.58533 17.138 10.444C17.138 11.3307 17.3246 12.0073 17.698 12.474C18.0806 12.9313 18.622 13.16 19.322 13.16ZM30.8937 6.958V13.944C30.8937 14.9893 30.623 15.778 30.0817 16.31C29.5497 16.8513 28.761 17.122 27.7157 17.122C26.6424 17.122 25.7184 16.8793 24.9437 16.394L25.1397 15.47C25.5877 15.722 26.0077 15.904 26.3997 16.016C26.801 16.128 27.2397 16.184 27.7157 16.184C28.397 16.184 28.9104 16.002 29.2557 15.638C29.601 15.2833 29.7737 14.7513 29.7737 14.042V12.376C29.559 12.824 29.2417 13.174 28.8217 13.426C28.411 13.6687 27.921 13.79 27.3517 13.79C26.7357 13.79 26.185 13.6453 25.6997 13.356C25.2237 13.0667 24.855 12.656 24.5937 12.124C24.3324 11.592 24.2017 10.9807 24.2017 10.29C24.2017 9.59933 24.3324 8.988 24.5937 8.456C24.855 7.924 25.2237 7.51333 25.6997 7.224C26.185 6.93467 26.7357 6.79 27.3517 6.79C27.9117 6.79 28.397 6.91133 28.8077 7.154C29.2277 7.39667 29.545 7.73733 29.7597 8.176V6.958H30.8937ZM27.5757 12.838C28.257 12.838 28.789 12.614 29.1717 12.166C29.5637 11.7087 29.7597 11.0833 29.7597 10.29C29.7597 9.49667 29.5637 8.876 29.1717 8.428C28.789 7.97067 28.257 7.742 27.5757 7.742C26.885 7.742 26.339 7.97067 25.9377 8.428C25.5457 8.876 25.3497 9.49667 25.3497 10.29C25.3497 11.0833 25.5457 11.7087 25.9377 12.166C26.339 12.614 26.885 12.838 27.5757 12.838ZM36.5469 6.79C36.7802 6.79 36.9949 6.818 37.1909 6.874L37.1629 7.91C36.9482 7.83533 36.7009 7.798 36.4209 7.798C35.7396 7.798 35.2309 8.01267 34.8949 8.442C34.5682 8.862 34.4049 9.37533 34.4049 9.982V14H33.2709V8.932C33.2709 8.204 33.2336 7.546 33.1589 6.958H34.2369L34.3489 8.26C34.5262 7.784 34.8109 7.42 35.2029 7.168C35.5949 6.916 36.0429 6.79 36.5469 6.79ZM44.6085 6.958V14H43.4885V12.726C43.2831 13.1647 42.9705 13.5053 42.5505 13.748C42.1398 13.9813 41.6591 14.098 41.1085 14.098C40.4831 14.098 39.9325 13.9487 39.4565 13.65C38.9898 13.3513 38.6258 12.9313 38.3645 12.39C38.1125 11.8393 37.9865 11.2 37.9865 10.472C37.9865 9.744 38.1171 9.10467 38.3785 8.554C38.6398 7.994 39.0038 7.56 39.4705 7.252C39.9465 6.944 40.4925 6.79 41.1085 6.79C41.6591 6.79 42.1398 6.91133 42.5505 7.154C42.9611 7.39667 43.2738 7.73733 43.4885 8.176V6.958H44.6085ZM41.3325 13.16C42.0231 13.16 42.5551 12.9267 42.9285 12.46C43.3018 11.984 43.4885 11.312 43.4885 10.444C43.4885 9.576 43.3018 8.90867 42.9285 8.442C42.5551 7.97533 42.0231 7.742 41.3325 7.742C40.6418 7.742 40.1005 7.98467 39.7085 8.47C39.3258 8.946 39.1345 9.61333 39.1345 10.472C39.1345 11.3307 39.3258 11.9933 39.7085 12.46C40.0911 12.9267 40.6325 13.16 41.3325 13.16ZM54.813 6.79C56.3717 6.79 57.151 7.71867 57.151 9.576V14H56.017V9.632C56.017 8.96933 55.9003 8.48867 55.667 8.19C55.443 7.89133 55.0743 7.742 54.561 7.742C53.9637 7.742 53.497 7.94267 53.161 8.344C52.825 8.74533 52.657 9.29133 52.657 9.982V14H51.523V9.632C51.523 8.97867 51.4063 8.50267 51.173 8.204C50.9397 7.896 50.5663 7.742 50.053 7.742C49.4557 7.742 48.9843 7.94267 48.639 8.344C48.303 8.74533 48.135 9.29133 48.135 9.982V14H47.001V8.932C47.001 8.204 46.9637 7.546 46.889 6.958H47.967L48.079 8.19C48.275 7.742 48.5643 7.39667 48.947 7.154C49.339 6.91133 49.7917 6.79 50.305 6.79C50.865 6.79 51.3223 6.902 51.677 7.126C52.0317 7.35 52.293 7.69533 52.461 8.162C52.6757 7.742 52.9883 7.41067 53.399 7.168C53.819 6.916 54.2903 6.79 54.813 6.79ZM65.7077 6.958V14H64.5877V12.726C64.3823 13.1647 64.0697 13.5053 63.6497 13.748C63.239 13.9813 62.7583 14.098 62.2077 14.098C61.5823 14.098 61.0317 13.9487 60.5557 13.65C60.089 13.3513 59.725 12.9313 59.4637 12.39C59.2117 11.8393 59.0857 11.2 59.0857 10.472C59.0857 9.744 59.2163 9.10467 59.4777 8.554C59.739 7.994 60.103 7.56 60.5697 7.252C61.0457 6.944 61.5917 6.79 62.2077 6.79C62.7583 6.79 63.239 6.91133 63.6497 7.154C64.0603 7.39667 64.373 7.73733 64.5877 8.176V6.958H65.7077ZM62.4317 13.16C63.1223 13.16 63.6543 12.9267 64.0277 12.46C64.401 11.984 64.5877 11.312 64.5877 10.444C64.5877 9.576 64.401 8.90867 64.0277 8.442C63.6543 7.97533 63.1223 7.742 62.4317 7.742C61.741 7.742 61.1997 7.98467 60.8077 8.47C60.425 8.946 60.2337 9.61333 60.2337 10.472C60.2337 11.3307 60.425 11.9933 60.8077 12.46C61.1903 12.9267 61.7317 13.16 62.4317 13.16ZM71.3762 6.79C71.6095 6.79 71.8242 6.818 72.0202 6.874L71.9922 7.91C71.7775 7.83533 71.5302 7.798 71.2502 7.798C70.5689 7.798 70.0602 8.01267 69.7242 8.442C69.3975 8.862 69.2342 9.37533 69.2342 9.982V14H68.1002V8.932C68.1002 8.204 68.0629 7.546 67.9882 6.958H69.0662L69.1782 8.26C69.3555 7.784 69.6402 7.42 70.0322 7.168C70.4242 6.916 70.8722 6.79 71.3762 6.79ZM83.1169 10.444H77.9509C77.9602 11.34 78.1655 12.0167 78.5669 12.474C78.9775 12.9313 79.5702 13.16 80.3449 13.16C81.1662 13.16 81.9222 12.8847 82.6129 12.334L82.9909 13.16C82.6829 13.4493 82.2862 13.678 81.8009 13.846C81.3249 14.014 80.8349 14.098 80.3309 14.098C79.2295 14.098 78.3662 13.776 77.7409 13.132C77.1155 12.4787 76.8029 11.5873 76.8029 10.458C76.8029 9.73933 76.9429 9.10467 77.2229 8.554C77.5029 7.994 77.8949 7.56 78.3989 7.252C78.9029 6.944 79.4769 6.79 80.1209 6.79C81.0542 6.79 81.7869 7.098 82.3189 7.714C82.8509 8.32067 83.1169 9.16067 83.1169 10.234V10.444ZM80.1349 7.672C79.5469 7.672 79.0662 7.84933 78.6929 8.204C78.3289 8.55867 78.0955 9.058 77.9929 9.702H82.0949C82.0389 9.03933 81.8429 8.53533 81.5069 8.19C81.1802 7.84467 80.7229 7.672 80.1349 7.672ZM88.5521 6.79C90.2414 6.79 91.0861 7.71867 91.0861 9.576V14H89.9521V9.632C89.9521 8.97867 89.8214 8.50267 89.5601 8.204C89.2988 7.896 88.8881 7.742 88.3281 7.742C87.6748 7.742 87.1521 7.94267 86.7601 8.344C86.3681 8.74533 86.1721 9.28667 86.1721 9.968V14H85.0381V8.932C85.0381 8.204 85.0008 7.546 84.9261 6.958H86.0041L86.1161 8.218C86.3308 7.76067 86.6528 7.41067 87.0821 7.168C87.5114 6.916 88.0014 6.79 88.5521 6.79ZM99.6155 6.972L96.5775 14H95.4995L92.5035 6.972H93.6935L96.0735 12.768L98.4815 6.972H99.6155ZM101.065 6.958H102.199V14H101.065V6.958ZM102.339 3.976V5.264H100.953V3.976H102.339ZM107.513 14.098C106.85 14.098 106.267 13.9487 105.763 13.65C105.259 13.3513 104.867 12.9267 104.587 12.376C104.316 11.8253 104.181 11.1813 104.181 10.444C104.181 9.70667 104.316 9.06267 104.587 8.512C104.867 7.96133 105.259 7.53667 105.763 7.238C106.267 6.93933 106.85 6.79 107.513 6.79C108.176 6.79 108.759 6.93933 109.263 7.238C109.767 7.53667 110.154 7.96133 110.425 8.512C110.705 9.06267 110.845 9.70667 110.845 10.444C110.845 11.1813 110.705 11.8253 110.425 12.376C110.154 12.9267 109.767 13.3513 109.263 13.65C108.759 13.9487 108.176 14.098 107.513 14.098ZM107.513 13.16C108.213 13.16 108.75 12.9313 109.123 12.474C109.496 12.0073 109.683 11.3307 109.683 10.444C109.683 9.58533 109.492 8.92267 109.109 8.456C108.726 7.98 108.194 7.742 107.513 7.742C106.822 7.742 106.286 7.98 105.903 8.456C105.52 8.92267 105.329 9.58533 105.329 10.444C105.329 11.3307 105.516 12.0073 105.889 12.474C106.272 12.9313 106.813 13.16 107.513 13.16Z" fill="white"/>
<rect x="149" width="50" height="21" rx="2" fill="#337AB7"/>
<path d="M164.648 12.804H160.184L159.236 15H158.216L161.972 6.456H162.836L166.592 15H165.584L164.648 12.804ZM164.3 11.988L162.416 7.596L160.532 11.988H164.3ZM169.116 9.732V13.032C169.116 13.48 169.208 13.796 169.392 13.98C169.576 14.156 169.836 14.244 170.172 14.244C170.396 14.244 170.612 14.208 170.82 14.136V14.964C170.572 15.044 170.292 15.084 169.98 15.084C169.404 15.084 168.952 14.924 168.624 14.604C168.304 14.276 168.144 13.796 168.144 13.164V9.732H166.968V8.964H168.144V7.416L169.116 7.068V8.964H170.844V9.732H169.116ZM172.215 8.964H173.187V15H172.215V8.964ZM173.307 6.408V7.512H172.119V6.408H173.307ZM180.578 8.976L177.974 15H177.05L174.482 8.976H175.502L177.542 13.944L179.606 8.976H180.578ZM184.275 15.084C183.707 15.084 183.207 14.956 182.775 14.7C182.343 14.444 182.007 14.08 181.767 13.608C181.535 13.136 181.419 12.584 181.419 11.952C181.419 11.32 181.535 10.768 181.767 10.296C182.007 9.824 182.343 9.46 182.775 9.204C183.207 8.948 183.707 8.82 184.275 8.82C184.843 8.82 185.343 8.948 185.775 9.204C186.207 9.46 186.539 9.824 186.771 10.296C187.011 10.768 187.131 11.32 187.131 11.952C187.131 12.584 187.011 13.136 186.771 13.608C186.539 14.08 186.207 14.444 185.775 14.7C185.343 14.956 184.843 15.084 184.275 15.084ZM184.275 14.28C184.875 14.28 185.335 14.084 185.655 13.692C185.975 13.292 186.135 12.712 186.135 11.952C186.135 11.216 185.971 10.648 185.643 10.248C185.315 9.84 184.859 9.636 184.275 9.636C183.683 9.636 183.223 9.84 182.895 10.248C182.567 10.648 182.403 11.216 182.403 11.952C182.403 12.712 182.563 13.292 182.883 13.692C183.211 14.084 183.675 14.28 184.275 14.28Z" fill="white"/>
<rect x="148.5" y="0.5" width="98" height="20" rx="1.5" stroke="#313131"/>
<path d="M0 57H312V269.457C312 274.98 307.523 279.457 302 279.457H0V57Z" fill="#141415"/>
<path d="M145.507 199.709H174.888V229.09H145.507V199.709Z" fill="#337AB7"/>
<path d="M23.629 75.8391V87.223H25.9636V79.7856H26.0581L29.0041 87.1674H30.5938L33.5399 79.8134H33.6344V87.223H35.969V75.8391H33.0007L29.8657 83.4876H29.7323L26.5972 75.8391H23.629Z" fill="white"/>
<path d="M40.3422 87.3842C41.604 87.3842 42.4211 86.8339 42.838 86.039H42.9047V87.223H45.1503V81.4643C45.1503 79.4299 43.4272 78.5739 41.5261 78.5739C39.4806 78.5739 38.1354 79.5522 37.8075 81.1086L39.9975 81.2865C40.1587 80.7195 40.6646 80.3026 41.515 80.3026C42.321 80.3026 42.7824 80.7084 42.7824 81.4087V81.4421C42.7824 81.9924 42.1987 82.0647 40.7146 82.2092C39.0248 82.3648 37.5073 82.9318 37.5073 84.8384C37.5073 86.5282 38.7135 87.3842 40.3422 87.3842ZM41.0203 85.75C40.2921 85.75 39.7696 85.4109 39.7696 84.7606C39.7696 84.0935 40.3199 83.7656 41.1537 83.6488C41.6707 83.5766 42.5156 83.4543 42.799 83.2653V84.1714C42.799 85.0663 42.0598 85.75 41.0203 85.75Z" fill="white"/>
<path d="M46.9874 87.223H49.3554V78.6851H46.9874V87.223ZM48.177 77.5845C48.8829 77.5845 49.461 77.0453 49.461 76.3838C49.461 75.7279 48.8829 75.1887 48.177 75.1887C47.4766 75.1887 46.8985 75.7279 46.8985 76.3838C46.8985 77.0453 47.4766 77.5845 48.177 77.5845Z" fill="white"/>
<path d="M55.1099 87.3898C57.7002 87.3898 59.3121 85.6166 59.3121 82.9874C59.3121 80.3415 57.7002 78.5739 55.1099 78.5739C52.5196 78.5739 50.9076 80.3415 50.9076 82.9874C50.9076 85.6166 52.5196 87.3898 55.1099 87.3898ZM55.121 85.5554C53.9259 85.5554 53.3145 84.4604 53.3145 82.9707C53.3145 81.481 53.9259 80.3804 55.121 80.3804C56.2938 80.3804 56.9053 81.481 56.9053 82.9707C56.9053 84.4604 56.2938 85.5554 55.121 85.5554Z" fill="white"/>
<path d="M64.4524 87.223H72.5679V85.2553H67.7876V85.1775L69.4496 83.5488C71.7897 81.4143 72.4178 80.3471 72.4178 79.0519C72.4178 77.0786 70.8058 75.6834 68.3656 75.6834C65.9755 75.6834 64.3357 77.112 64.3412 79.3465H66.6258C66.6203 78.257 67.3095 77.59 68.349 77.59C69.3495 77.59 70.0944 78.2126 70.0944 79.2131C70.0944 80.1192 69.5385 80.7417 68.5046 81.7367L64.4524 85.4887V87.223Z" fill="white"/>
<path d="M78.7754 87.4731C81.6381 87.4731 83.3668 85.2942 83.3724 81.5422C83.3779 77.8179 81.627 75.6834 78.7754 75.6834C75.9183 75.6834 74.1841 77.8124 74.1785 81.5422C74.1674 85.2831 75.9072 87.4676 78.7754 87.4731ZM78.7754 85.4776C77.4692 85.4776 76.6243 84.1658 76.6298 81.5422C76.6354 78.9574 77.4747 77.6567 78.7754 77.6567C80.0706 77.6567 80.9155 78.9574 80.9155 81.5422C80.921 84.1658 80.0761 85.4776 78.7754 85.4776Z" fill="white"/>
<path d="M85.0886 87.223H93.2041V85.2553H88.4237V85.1775L90.0857 83.5488C92.4259 81.4143 93.054 80.3471 93.054 79.0519C93.054 77.0786 91.442 75.6834 89.0018 75.6834C86.6116 75.6834 84.9718 77.112 84.9774 79.3465H87.262C87.2564 78.257 87.9457 77.59 88.9851 77.59C89.9857 77.59 90.7305 78.2126 90.7305 79.2131C90.7305 80.1192 90.1746 80.7417 89.1408 81.7367L85.0886 85.4887V87.223Z" fill="white"/>
<path d="M99.4116 87.4731C102.274 87.4731 104.003 85.2942 104.009 81.5422C104.014 77.8179 102.263 75.6834 99.4116 75.6834C96.5545 75.6834 94.8202 77.8124 94.8147 81.5422C94.8035 85.2831 96.5434 87.4676 99.4116 87.4731ZM99.4116 85.4776C98.1053 85.4776 97.2604 84.1658 97.266 81.5422C97.2715 78.9574 98.1109 77.6567 99.4116 77.6567C100.707 77.6567 101.552 78.9574 101.552 81.5422C101.557 84.1658 100.712 85.4776 99.4116 85.4776Z" fill="white"/>
<path fill-rule="evenodd" clip-rule="evenodd" d="M242.766 83.1221C242.368 82.7238 242.368 82.078 242.766 81.6796L248.536 75.9097C248.934 75.5114 249.58 75.5114 249.978 75.9097C250.377 76.3081 250.377 76.9539 249.978 77.3522L244.93 82.4009L249.978 87.4495C250.377 87.8479 250.377 88.4937 249.978 88.892C249.58 89.2903 248.934 89.2903 248.536 88.892L242.766 83.1221Z" fill="white"/>
<path fill-rule="evenodd" clip-rule="evenodd" d="M286.494 83.1221C286.892 82.7238 286.892 82.078 286.494 81.6796L280.724 75.9097C280.326 75.5114 279.68 75.5114 279.281 75.9097C278.883 76.3081 278.883 76.9539 279.281 77.3522L284.33 82.4009L279.281 87.4495C278.883 87.8479 278.883 88.4937 279.281 88.892C279.68 89.2903 280.326 89.2903 280.724 88.892L286.494 83.1221Z" fill="white"/>
<path d="M24.5635 140.759C27.9301 140.759 29.8778 138.415 29.8778 134.538C29.8778 130.68 27.9301 128.354 24.6768 128.354H20.9866V140.759H24.5635ZM22.6537 139.123V129.99H24.5743C26.9914 129.99 28.2376 131.613 28.2376 134.538C28.2376 137.476 26.9914 139.123 24.4718 139.123H22.6537Z" fill="white"/>
<path d="M35.312 140.946C37.6481 140.946 39.1749 139.026 39.1749 136.149C39.1749 133.254 37.6481 131.334 35.312 131.334C32.9759 131.334 31.4491 133.254 31.4491 136.149C31.4491 139.026 32.9759 140.946 35.312 140.946ZM35.3174 139.426C33.7906 139.426 33.0784 137.93 33.0784 136.143C33.0784 134.363 33.7906 132.849 35.3174 132.849C36.8334 132.849 37.5456 134.363 37.5456 136.143C37.5456 137.93 36.8334 139.426 35.3174 139.426Z" fill="white"/>
<path d="M71.1888 131.732H72.8878C72.8365 129.775 71.1831 128.354 68.8114 128.354C66.4682 128.354 64.6723 129.757 64.6723 131.864C64.6723 133.564 65.8354 134.561 67.7111 135.092L69.0908 135.486C70.3394 135.832 71.3029 136.262 71.3029 137.348C71.3029 138.541 70.2139 139.329 68.7145 139.329C67.3576 139.329 66.2288 138.697 66.1261 137.366H64.3588C64.4728 139.58 66.109 140.946 68.7259 140.946C71.4682 140.946 73.0474 139.437 73.0474 137.366C73.0474 135.164 71.1717 134.31 69.6894 133.928L68.5492 133.618C67.637 133.373 66.4226 132.926 66.4283 131.756C66.4283 130.718 67.3348 129.948 68.7715 129.948C70.1113 129.948 71.0634 130.604 71.1888 131.732Z" fill="white"/>
<path d="M78.79 140.929C80.6999 140.929 82.0511 139.944 82.4388 138.452L80.8253 138.148C80.5175 139.013 79.7763 139.454 78.8071 139.454C77.3476 139.454 76.367 138.464 76.3214 136.697H82.5471V136.065C82.5471 132.753 80.6543 131.458 78.6703 131.458C76.2301 131.458 74.6224 133.403 74.6224 136.22C74.6224 139.067 76.2073 140.929 78.79 140.929ZM76.3271 135.361C76.3955 134.06 77.2963 132.932 78.6817 132.932C80.0044 132.932 80.8709 133.958 80.8766 135.361H76.3271Z" fill="white"/>
<path d="M107.731 129.966H111.29V140.759H113.008V129.966H116.573V128.354H107.731V129.966Z" fill="white"/>
<path d="M120.844 140.946C122.713 140.946 124.035 139.947 124.414 138.433L122.835 138.124C122.534 139.002 121.809 139.45 120.861 139.45C119.432 139.45 118.473 138.445 118.428 136.652H124.52V136.01C124.52 132.649 122.668 131.334 120.727 131.334C118.339 131.334 116.766 133.309 116.766 136.168C116.766 139.057 118.317 140.946 120.844 140.946ZM118.434 135.295C118.501 133.975 119.382 132.83 120.738 132.83C122.032 132.83 122.88 133.872 122.886 135.295H118.434Z" fill="white"/>
<path d="M160.748 134.867C160.748 130.812 158.699 128.354 155.928 128.354C153.147 128.354 151.103 130.812 151.103 134.867C151.103 138.916 153.147 141.38 155.928 141.38C156.618 141.38 157.261 141.231 157.836 140.94L158.751 142.346H160.403L158.96 140.117C160.069 139.009 160.748 137.201 160.748 134.867ZM155.385 137.096L156.906 139.461C156.603 139.578 156.273 139.634 155.928 139.634C154.083 139.634 152.708 137.956 152.708 134.867C152.708 131.778 154.083 130.1 155.928 130.1C157.768 130.1 159.149 131.778 159.149 134.867C159.149 136.601 158.715 137.894 158.004 138.687L156.974 137.096H155.385Z" fill="white"/>
<path d="M167.723 137.263C167.728 138.879 166.714 139.646 165.836 139.646C164.869 139.646 164.2 138.817 164.2 137.523V131.697H162.637V137.746C162.637 140.104 163.729 141.33 165.271 141.33C166.479 141.33 167.3 140.575 167.671 139.56H167.755V141.206H169.291V131.697H167.723V137.263Z" fill="white"/>
<path d="M197.876 135.042C197.876 131.081 195.667 128.681 192.681 128.681C189.683 128.681 187.48 131.081 187.48 135.042C187.48 138.996 189.683 141.402 192.681 141.402C193.425 141.402 194.118 141.257 194.738 140.973L195.724 142.346H197.504L195.949 140.169C197.144 139.087 197.876 137.321 197.876 135.042ZM192.095 137.218L193.735 139.528C193.408 139.643 193.053 139.697 192.681 139.697C190.692 139.697 189.21 138.059 189.21 135.042C189.21 132.025 190.692 130.386 192.681 130.386C194.664 130.386 196.152 132.025 196.152 135.042C196.152 136.735 195.684 137.998 194.918 138.772L193.808 137.218H192.095Z" fill="white"/>
<path d="M205.394 137.382C205.4 138.96 204.307 139.709 203.36 139.709C202.318 139.709 201.597 138.899 201.597 137.635V131.946H199.912V137.853C199.912 140.157 201.089 141.354 202.752 141.354C204.053 141.354 204.938 140.616 205.338 139.625H205.428V141.233H207.085V131.946H205.394V137.382Z" fill="white"/>
<path d="M209.349 141.233H211.034V131.946H209.349V141.233ZM210.2 130.513C210.78 130.513 211.265 130.029 211.265 129.437C211.265 128.844 210.78 128.354 210.2 128.354C209.614 128.354 209.135 128.844 209.135 129.437C209.135 130.029 209.614 130.513 210.2 130.513Z" fill="white"/>
<path d="M234.884 131.732H236.583C236.532 129.775 234.878 128.354 232.506 128.354C230.163 128.354 228.367 129.757 228.367 131.864C228.367 133.564 229.53 134.561 231.406 135.092L232.786 135.486C234.034 135.832 234.998 136.262 234.998 137.348C234.998 138.541 233.909 139.329 232.41 139.329C231.053 139.329 229.924 138.697 229.821 137.366H228.054C228.168 139.58 229.804 140.946 232.421 140.946C235.163 140.946 236.743 139.437 236.743 137.366C236.743 135.164 234.867 134.31 233.384 133.928L232.244 133.618C231.332 133.373 230.118 132.926 230.123 131.756C230.123 130.718 231.03 129.948 232.467 129.948C233.806 129.948 234.758 130.604 234.884 131.732Z" fill="white"/>
<path d="M242.485 140.929C244.395 140.929 245.746 139.944 246.134 138.452L244.52 138.148C244.213 139.013 243.471 139.454 242.502 139.454C241.043 139.454 240.062 138.464 240.016 136.697H246.242V136.065C246.242 132.753 244.349 131.458 242.365 131.458C239.925 131.458 238.317 133.403 238.317 136.22C238.317 139.067 239.902 140.929 242.485 140.929ZM240.022 135.361C240.091 134.06 240.991 132.932 242.377 132.932C243.699 132.932 244.566 133.958 244.572 135.361H240.022Z" fill="white"/>
<path d="M276.569 131.732H278.197C278.148 129.775 276.564 128.354 274.292 128.354C272.048 128.354 270.327 129.757 270.327 131.864C270.327 133.564 271.441 134.561 273.238 135.092L274.56 135.486C275.756 135.832 276.679 136.262 276.679 137.348C276.679 138.541 275.636 139.329 274.199 139.329C272.9 139.329 271.818 138.697 271.72 137.366H270.027C270.136 139.58 271.704 140.946 274.21 140.946C276.837 140.946 278.35 139.437 278.35 137.366C278.35 135.164 276.553 134.31 275.133 133.928L274.041 133.618C273.167 133.373 272.004 132.926 272.009 131.756C272.009 130.718 272.878 129.948 274.254 129.948C275.537 129.948 276.449 130.604 276.569 131.732Z" fill="white"/>
<path d="M282.677 140.946C284.064 140.946 284.845 140.177 285.156 139.49H285.221V140.744H286.816V134.656C286.816 131.989 284.894 131.458 283.561 131.458C282.043 131.458 280.645 132.126 280.099 133.797L281.633 134.179C281.874 133.529 282.485 132.902 283.583 132.902C284.637 132.902 285.178 133.505 285.178 134.543V134.585C285.178 135.235 284.566 135.223 283.059 135.414C281.47 135.617 279.842 136.071 279.842 138.154C279.842 139.956 281.082 140.946 282.677 140.946ZM283.032 139.514C282.109 139.514 281.442 139.061 281.442 138.177C281.442 137.223 282.218 136.882 283.163 136.745C283.692 136.668 284.948 136.512 285.183 136.256V137.437C285.183 138.524 284.391 139.514 283.032 139.514Z" fill="white"/>
<path d="M161.636 168.656H159.963L157.122 170.513V172.158L159.846 170.379H159.913V180.04H161.636V168.656Z" fill="#E7E7E7"/>
<path d="M195.675 180.04H203.168V178.567H198.043V178.483L200.305 176.115C202.39 174.009 202.984 173.003 202.984 171.73C202.984 169.901 201.495 168.5 199.349 168.5C197.22 168.5 195.664 169.879 195.664 171.958H197.303C197.298 170.735 198.087 169.934 199.316 169.934C200.472 169.934 201.35 170.646 201.35 171.78C201.35 172.786 200.75 173.509 199.527 174.804L195.675 178.795V180.04Z" fill="#E7E7E7"/>
<path d="M237.547 180.195C239.87 180.195 241.577 178.806 241.571 176.916C241.577 175.476 240.704 174.442 239.192 174.209V174.12C240.382 173.814 241.154 172.88 241.149 171.602C241.154 169.929 239.781 168.5 237.591 168.5C235.501 168.5 233.823 169.762 233.767 171.613H235.429C235.468 170.568 236.452 169.934 237.569 169.934C238.731 169.934 239.492 170.64 239.487 171.691C239.492 172.791 238.608 173.514 237.347 173.514H236.385V174.915H237.347C238.925 174.915 239.837 175.715 239.837 176.86C239.837 177.966 238.875 178.717 237.536 178.717C236.302 178.717 235.34 178.083 235.273 177.072H233.528C233.6 178.928 235.246 180.195 237.547 180.195Z" fill="#E7E7E7"/>
<path d="M273.705 177.817H279.102V180.04H280.742V177.817H282.248V176.36H280.742V168.656H278.624L273.705 176.427V177.817ZM279.113 176.36H275.506V176.271L279.024 170.702H279.113V176.36Z" fill="#E7E7E7"/>
<path d="M30.4548 219.981C32.745 219.981 34.3792 218.363 34.3736 216.145C34.3792 213.944 32.845 212.343 30.7717 212.343C29.9268 212.343 29.143 212.666 28.6983 213.099H28.6316L28.9929 209.914H33.8233V208.441H27.5644L26.9251 214.178L28.4982 214.411C28.9262 214.028 29.6933 213.766 30.3826 213.766C31.7333 213.777 32.7116 214.789 32.7116 216.179C32.7116 217.546 31.7611 218.536 30.4548 218.536C29.3542 218.536 28.4815 217.835 28.3926 216.857H26.725C26.7917 218.669 28.3648 219.981 30.4548 219.981Z" fill="#E7E7E7"/>
<path d="M73.2694 219.98C75.6485 220.003 77.2271 218.291 77.2216 216.106C77.2271 213.927 75.6429 212.365 73.6696 212.365C72.469 212.365 71.4295 212.943 70.8459 213.905H70.7625C70.7681 211.292 71.7464 209.764 73.414 209.764C74.509 209.764 75.1983 210.425 75.4317 211.398H77.1271C76.8658 209.569 75.4484 208.257 73.414 208.257C70.7681 208.257 69.1172 210.531 69.1172 214.516C69.1172 218.707 71.2461 219.964 73.2694 219.98ZM73.2639 218.535C71.9409 218.535 70.9737 217.423 70.9737 216.145C70.9793 214.872 71.991 213.76 73.3028 213.76C74.6035 213.76 75.5596 214.811 75.554 216.128C75.5596 217.473 74.5646 218.535 73.2639 218.535Z" fill="#E7E7E7"/>
<path d="M113.167 219.825H114.963L119.915 209.964V208.441H112.389V209.914H118.137V209.998L113.167 219.825Z" fill="#E7E7E7"/>
<path d="M159.916 219.981C162.284 219.981 163.957 218.636 163.968 216.79C163.957 215.356 162.951 214.15 161.678 213.922V213.855C162.784 213.589 163.535 212.549 163.546 211.321C163.535 209.581 162 208.286 159.916 208.286C157.809 208.286 156.275 209.581 156.286 211.321C156.275 212.544 157.025 213.589 158.154 213.855V213.922C156.859 214.15 155.853 215.356 155.864 216.79C155.853 218.636 157.526 219.981 159.916 219.981ZM159.916 218.575C158.493 218.575 157.592 217.819 157.604 216.679C157.592 215.495 158.571 214.65 159.916 214.65C161.239 214.65 162.217 215.495 162.228 216.679C162.217 217.819 161.322 218.575 159.916 218.575ZM159.916 213.277C158.765 213.277 157.948 212.549 157.959 211.465C157.948 210.398 158.738 209.692 159.916 209.692C161.072 209.692 161.861 210.398 161.873 211.465C161.861 212.549 161.05 213.277 159.916 213.277Z" fill="white"/>
<path d="M198.954 208.257C196.563 208.241 195.002 209.953 195.002 212.132C195.002 214.311 196.58 215.878 198.553 215.878C199.76 215.878 200.794 215.289 201.377 214.333H201.466C201.461 216.951 200.477 218.48 198.809 218.48C197.72 218.48 197.019 217.813 196.797 216.84H195.102C195.352 218.68 196.775 219.98 198.809 219.98C201.455 219.98 203.106 217.707 203.111 213.722C203.106 209.536 200.983 208.274 198.954 208.257ZM198.959 209.703C200.277 209.703 201.249 210.82 201.249 212.093C201.249 213.366 200.227 214.477 198.926 214.477C197.62 214.477 196.669 213.432 196.669 212.11C196.669 210.764 197.653 209.703 198.959 209.703Z" fill="#E7E7E7"/>
<path d="M234.519 208.441H232.846L230.005 210.298V211.943L232.729 210.164H232.796V219.825H234.519V208.441Z" fill="#E7E7E7"/>
<path d="M241.562 220.014C244.191 220.014 245.731 217.869 245.731 214.139C245.731 210.437 244.169 208.286 241.562 208.286C238.949 208.286 237.393 210.431 237.387 214.139C237.387 217.863 238.927 220.009 241.562 220.014ZM241.562 218.53C240.022 218.53 239.094 216.985 239.094 214.139C239.099 211.304 240.028 209.742 241.562 209.742C243.09 209.742 244.024 211.304 244.024 214.139C244.024 216.985 243.096 218.53 241.562 218.53Z" fill="#E7E7E7"/>
<path d="M276.308 208.441H274.635L271.794 210.298V211.943L274.518 210.164H274.585V219.825H276.308V208.441Z" fill="#E7E7E7"/>
<path d="M283.706 208.441H282.033L279.193 210.298V211.943L281.916 210.164H281.983V219.825H283.706V208.441Z" fill="#E7E7E7"/>
<path d="M27.3719 248.225H25.6988L22.8584 250.082V251.727L25.5821 249.948H25.6488V259.609H27.3719V248.225Z" fill="#E7E7E7"/>
<path d="M30.4514 259.609H37.9443V258.136H32.8193V258.053L35.0817 255.685C37.1661 253.578 37.7609 252.572 37.7609 251.299C37.7609 249.47 36.2712 248.069 34.1256 248.069C31.9967 248.069 30.4403 249.448 30.4403 251.527H32.08C32.0745 250.304 32.8638 249.503 34.0922 249.503C35.2484 249.503 36.1267 250.215 36.1267 251.349C36.1267 252.355 35.5264 253.078 34.3035 254.373L30.4514 258.364V259.609Z" fill="#E7E7E7"/>
<path d="M70.1718 248.225H68.4986L65.6582 250.082V251.727L68.3819 249.949H68.4486V259.609H70.1718V248.225Z" fill="#E7E7E7"/>
<path d="M77.2144 259.765C79.5379 259.765 81.2444 258.375 81.2388 256.485C81.2444 255.046 80.3717 254.012 78.8598 253.778V253.69C80.0493 253.384 80.822 252.45 80.8164 251.172C80.822 249.498 79.449 248.07 77.2589 248.07C75.1689 248.07 73.4902 249.332 73.4346 251.183H75.0966C75.1355 250.138 76.1194 249.504 77.2367 249.504C78.3984 249.504 79.1599 250.21 79.1544 251.26C79.1599 252.361 78.2761 253.084 77.0143 253.084H76.0527V254.484H77.0143C78.593 254.484 79.5046 255.285 79.5046 256.43C79.5046 257.536 78.5429 258.286 77.2033 258.286C75.9693 258.286 75.0077 257.653 74.941 256.641H73.1956C73.2679 258.498 74.9132 259.765 77.2144 259.765Z" fill="#E7E7E7"/>
<path d="M112.815 248.225H111.142L108.301 250.082V251.727L111.025 249.948H111.092V259.609H112.815V248.225Z" fill="#E7E7E7"/>
<path d="M115.655 257.386H121.053V259.609H122.692V257.386H124.199V255.93H122.692V248.225H120.575L115.655 255.996V257.386ZM121.064 255.93H117.456V255.841L120.975 250.271H121.064V255.93Z" fill="#E7E7E7"/>
<path d="M157.107 248.225H155.434L152.593 250.082V251.727L155.317 249.948H155.384V259.609H157.107V248.225Z" fill="#E7E7E7"/>
<path d="M163.944 259.765C166.234 259.765 167.868 258.147 167.863 255.93C167.868 253.728 166.334 252.127 164.261 252.127C163.416 252.127 162.632 252.45 162.188 252.883H162.121L162.482 249.698H167.313V248.225H161.054L160.414 253.962L161.987 254.195C162.415 253.812 163.182 253.55 163.872 253.55C165.222 253.562 166.201 254.573 166.201 255.963C166.201 257.33 165.25 258.32 163.944 258.32C162.843 258.32 161.971 257.619 161.882 256.641H160.214C160.281 258.453 161.854 259.765 163.944 259.765Z" fill="#E7E7E7"/>
<path d="M196.116 248.225H194.443L191.602 250.081V251.727L194.326 249.948H194.393V259.609H196.116V248.225Z" fill="#E7E7E7"/>
<path d="M203.17 259.765C205.549 259.787 207.127 258.075 207.122 255.89C207.127 253.711 205.543 252.149 203.57 252.149C202.369 252.149 201.33 252.727 200.746 253.689H200.663C200.668 251.076 201.647 249.548 203.314 249.548C204.409 249.548 205.099 250.209 205.332 251.182H207.027C206.766 249.353 205.349 248.042 203.314 248.042C200.668 248.042 199.018 250.315 199.018 254.3C199.018 258.492 201.146 259.748 203.17 259.765ZM203.164 258.319C201.841 258.319 200.874 257.208 200.874 255.929C200.88 254.656 201.891 253.544 203.203 253.544C204.504 253.544 205.46 254.595 205.454 255.912C205.46 257.258 204.465 258.319 203.164 258.319Z" fill="#E7E7E7"/>
<path d="M234.715 248.225H233.042L230.201 250.082V251.727L232.925 249.948H232.992V259.609H234.715V248.225Z" fill="#E7E7E7"/>
<path d="M238.178 259.609H239.973L244.926 249.748V248.225H237.4V249.698H243.147V249.782L238.178 259.609Z" fill="#E7E7E7"/>
<path d="M275.064 248.225H273.391L270.551 250.082V251.727L273.274 249.949H273.341V259.609H275.064V248.225Z" fill="#E7E7E7"/>
<path d="M281.99 259.765C284.358 259.765 286.031 258.42 286.042 256.574C286.031 255.14 285.025 253.934 283.752 253.706V253.639C284.858 253.373 285.609 252.333 285.62 251.105C285.609 249.365 284.075 248.07 281.99 248.07C279.884 248.07 278.349 249.365 278.36 251.105C278.349 252.328 279.1 253.373 280.228 253.639V253.706C278.933 253.934 277.927 255.14 277.938 256.574C277.927 258.42 279.6 259.765 281.99 259.765ZM281.99 258.359C280.567 258.359 279.667 257.603 279.678 256.463C279.667 255.279 280.645 254.434 281.99 254.434C283.313 254.434 284.291 255.279 284.303 256.463C284.291 257.603 283.397 258.359 281.99 258.359ZM281.99 253.061C280.84 253.061 280.023 252.333 280.034 251.249C280.023 250.182 280.812 249.476 281.99 249.476C283.146 249.476 283.936 250.182 283.947 251.249C283.936 252.333 283.124 253.061 281.99 253.061Z" fill="#E7E7E7"/>
</svg>
