<svg width="545" height="159" viewBox="0 0 545 159" fill="none" xmlns="http://www.w3.org/2000/svg">
<path d="M0.232 49.032H4.208C5.23467 49.032 6.03267 49.2793 6.602 49.774C7.18067 50.2687 7.47 50.95 7.47 51.818C7.47 52.686 7.18067 53.372 6.602 53.876C6.02333 54.3707 5.22533 54.618 4.208 54.618H1.38V59H0.232V49.032ZM4.11 53.666C4.84733 53.666 5.40267 53.5073 5.776 53.19C6.14933 52.8727 6.336 52.4153 6.336 51.818C6.336 51.2207 6.14933 50.768 5.776 50.46C5.40267 50.1427 4.84733 49.984 4.11 49.984H1.38V53.666H4.11ZM12.5504 51.79C12.7838 51.79 12.9984 51.818 13.1944 51.874L13.1664 52.91C12.9518 52.8353 12.7044 52.798 12.4244 52.798C11.7431 52.798 11.2344 53.0127 10.8984 53.442C10.5718 53.862 10.4084 54.3753 10.4084 54.982V59H9.27442V53.932C9.27442 53.204 9.23709 52.546 9.16242 51.958H10.2404L10.3524 53.26C10.5298 52.784 10.8144 52.42 11.2064 52.168C11.5984 51.916 12.0464 51.79 12.5504 51.79ZM17.322 59.098C16.6593 59.098 16.076 58.9487 15.572 58.65C15.068 58.3513 14.676 57.9267 14.396 57.376C14.1253 56.8253 13.99 56.1813 13.99 55.444C13.99 54.7067 14.1253 54.0627 14.396 53.512C14.676 52.9613 15.068 52.5367 15.572 52.238C16.076 51.9393 16.6593 51.79 17.322 51.79C17.9846 51.79 18.568 51.9393 19.072 52.238C19.576 52.5367 19.9633 52.9613 20.234 53.512C20.514 54.0627 20.654 54.7067 20.654 55.444C20.654 56.1813 20.514 56.8253 20.234 57.376C19.9633 57.9267 19.576 58.3513 19.072 58.65C18.568 58.9487 17.9846 59.098 17.322 59.098ZM17.322 58.16C18.022 58.16 18.5586 57.9313 18.932 57.474C19.3053 57.0073 19.492 56.3307 19.492 55.444C19.492 54.5853 19.3006 53.9227 18.918 53.456C18.5353 52.98 18.0033 52.742 17.322 52.742C16.6313 52.742 16.0946 52.98 15.712 53.456C15.3293 53.9227 15.138 54.5853 15.138 55.444C15.138 56.3307 15.3246 57.0073 15.698 57.474C16.0806 57.9313 16.622 58.16 17.322 58.16ZM28.8937 51.958V58.944C28.8937 59.9893 28.623 60.778 28.0817 61.31C27.5497 61.8513 26.761 62.122 25.7157 62.122C24.6424 62.122 23.7184 61.8793 22.9437 61.394L23.1397 60.47C23.5877 60.722 24.0077 60.904 24.3997 61.016C24.801 61.128 25.2397 61.184 25.7157 61.184C26.397 61.184 26.9104 61.002 27.2557 60.638C27.601 60.2833 27.7737 59.7513 27.7737 59.042V57.376C27.559 57.824 27.2417 58.174 26.8217 58.426C26.411 58.6687 25.921 58.79 25.3517 58.79C24.7357 58.79 24.185 58.6453 23.6997 58.356C23.2237 58.0667 22.855 57.656 22.5937 57.124C22.3324 56.592 22.2017 55.9807 22.2017 55.29C22.2017 54.5993 22.3324 53.988 22.5937 53.456C22.855 52.924 23.2237 52.5133 23.6997 52.224C24.185 51.9347 24.7357 51.79 25.3517 51.79C25.9117 51.79 26.397 51.9113 26.8077 52.154C27.2277 52.3967 27.545 52.7373 27.7597 53.176V51.958H28.8937ZM25.5757 57.838C26.257 57.838 26.789 57.614 27.1717 57.166C27.5637 56.7087 27.7597 56.0833 27.7597 55.29C27.7597 54.4967 27.5637 53.876 27.1717 53.428C26.789 52.9707 26.257 52.742 25.5757 52.742C24.885 52.742 24.339 52.9707 23.9377 53.428C23.5457 53.876 23.3497 54.4967 23.3497 55.29C23.3497 56.0833 23.5457 56.7087 23.9377 57.166C24.339 57.614 24.885 57.838 25.5757 57.838ZM34.5469 51.79C34.7802 51.79 34.9949 51.818 35.1909 51.874L35.1629 52.91C34.9482 52.8353 34.7009 52.798 34.4209 52.798C33.7396 52.798 33.2309 53.0127 32.8949 53.442C32.5682 53.862 32.4049 54.3753 32.4049 54.982V59H31.2709V53.932C31.2709 53.204 31.2336 52.546 31.1589 51.958H32.2369L32.3489 53.26C32.5262 52.784 32.8109 52.42 33.2029 52.168C33.5949 51.916 34.0429 51.79 34.5469 51.79ZM42.6085 51.958V59H41.4885V57.726C41.2831 58.1647 40.9705 58.5053 40.5505 58.748C40.1398 58.9813 39.6591 59.098 39.1085 59.098C38.4831 59.098 37.9325 58.9487 37.4565 58.65C36.9898 58.3513 36.6258 57.9313 36.3645 57.39C36.1125 56.8393 35.9865 56.2 35.9865 55.472C35.9865 54.744 36.1171 54.1047 36.3785 53.554C36.6398 52.994 37.0038 52.56 37.4705 52.252C37.9465 51.944 38.4925 51.79 39.1085 51.79C39.6591 51.79 40.1398 51.9113 40.5505 52.154C40.9611 52.3967 41.2738 52.7373 41.4885 53.176V51.958H42.6085ZM39.3325 58.16C40.0231 58.16 40.5551 57.9267 40.9285 57.46C41.3018 56.984 41.4885 56.312 41.4885 55.444C41.4885 54.576 41.3018 53.9087 40.9285 53.442C40.5551 52.9753 40.0231 52.742 39.3325 52.742C38.6418 52.742 38.1005 52.9847 37.7085 53.47C37.3258 53.946 37.1345 54.6133 37.1345 55.472C37.1345 56.3307 37.3258 56.9933 37.7085 57.46C38.0911 57.9267 38.6325 58.16 39.3325 58.16ZM52.813 51.79C54.3717 51.79 55.151 52.7187 55.151 54.576V59H54.017V54.632C54.017 53.9693 53.9003 53.4887 53.667 53.19C53.443 52.8913 53.0743 52.742 52.561 52.742C51.9637 52.742 51.497 52.9427 51.161 53.344C50.825 53.7453 50.657 54.2913 50.657 54.982V59H49.523V54.632C49.523 53.9787 49.4063 53.5027 49.173 53.204C48.9397 52.896 48.5663 52.742 48.053 52.742C47.4557 52.742 46.9843 52.9427 46.639 53.344C46.303 53.7453 46.135 54.2913 46.135 54.982V59H45.001V53.932C45.001 53.204 44.9637 52.546 44.889 51.958H45.967L46.079 53.19C46.275 52.742 46.5643 52.3967 46.947 52.154C47.339 51.9113 47.7917 51.79 48.305 51.79C48.865 51.79 49.3223 51.902 49.677 52.126C50.0317 52.35 50.293 52.6953 50.461 53.162C50.6757 52.742 50.9883 52.4107 51.399 52.168C51.819 51.916 52.2903 51.79 52.813 51.79ZM63.7077 51.958V59H62.5877V57.726C62.3823 58.1647 62.0697 58.5053 61.6497 58.748C61.239 58.9813 60.7583 59.098 60.2077 59.098C59.5823 59.098 59.0317 58.9487 58.5557 58.65C58.089 58.3513 57.725 57.9313 57.4637 57.39C57.2117 56.8393 57.0857 56.2 57.0857 55.472C57.0857 54.744 57.2163 54.1047 57.4777 53.554C57.739 52.994 58.103 52.56 58.5697 52.252C59.0457 51.944 59.5917 51.79 60.2077 51.79C60.7583 51.79 61.239 51.9113 61.6497 52.154C62.0603 52.3967 62.373 52.7373 62.5877 53.176V51.958H63.7077ZM60.4317 58.16C61.1223 58.16 61.6543 57.9267 62.0277 57.46C62.401 56.984 62.5877 56.312 62.5877 55.444C62.5877 54.576 62.401 53.9087 62.0277 53.442C61.6543 52.9753 61.1223 52.742 60.4317 52.742C59.741 52.742 59.1997 52.9847 58.8077 53.47C58.425 53.946 58.2337 54.6133 58.2337 55.472C58.2337 56.3307 58.425 56.9933 58.8077 57.46C59.1903 57.9267 59.7317 58.16 60.4317 58.16ZM69.3762 51.79C69.6095 51.79 69.8242 51.818 70.0202 51.874L69.9922 52.91C69.7775 52.8353 69.5302 52.798 69.2502 52.798C68.5689 52.798 68.0602 53.0127 67.7242 53.442C67.3975 53.862 67.2342 54.3753 67.2342 54.982V59H66.1002V53.932C66.1002 53.204 66.0629 52.546 65.9882 51.958H67.0662L67.1782 53.26C67.3555 52.784 67.6402 52.42 68.0322 52.168C68.4242 51.916 68.8722 51.79 69.3762 51.79ZM81.1169 55.444H75.9509C75.9602 56.34 76.1655 57.0167 76.5669 57.474C76.9775 57.9313 77.5702 58.16 78.3449 58.16C79.1662 58.16 79.9222 57.8847 80.6129 57.334L80.9909 58.16C80.6829 58.4493 80.2862 58.678 79.8009 58.846C79.3249 59.014 78.8349 59.098 78.3309 59.098C77.2295 59.098 76.3662 58.776 75.7409 58.132C75.1155 57.4787 74.8029 56.5873 74.8029 55.458C74.8029 54.7393 74.9429 54.1047 75.2229 53.554C75.5029 52.994 75.8949 52.56 76.3989 52.252C76.9029 51.944 77.4769 51.79 78.1209 51.79C79.0542 51.79 79.7869 52.098 80.3189 52.714C80.8509 53.3207 81.1169 54.1607 81.1169 55.234V55.444ZM78.1349 52.672C77.5469 52.672 77.0662 52.8493 76.6929 53.204C76.3289 53.5587 76.0955 54.058 75.9929 54.702H80.0949C80.0389 54.0393 79.8429 53.5353 79.5069 53.19C79.1802 52.8447 78.7229 52.672 78.1349 52.672ZM86.5521 51.79C88.2414 51.79 89.0861 52.7187 89.0861 54.576V59H87.9521V54.632C87.9521 53.9787 87.8214 53.5027 87.5601 53.204C87.2988 52.896 86.8881 52.742 86.3281 52.742C85.6748 52.742 85.1521 52.9427 84.7601 53.344C84.3681 53.7453 84.1721 54.2867 84.1721 54.968V59H83.0381V53.932C83.0381 53.204 83.0008 52.546 82.9261 51.958H84.0041L84.1161 53.218C84.3308 52.7607 84.6528 52.4107 85.0821 52.168C85.5114 51.916 86.0014 51.79 86.5521 51.79ZM97.6155 51.972L94.5775 59H93.4995L90.5035 51.972H91.6935L94.0735 57.768L96.4815 51.972H97.6155ZM99.065 51.958H100.199V59H99.065V51.958ZM100.339 48.976V50.264H98.953V48.976H100.339ZM105.513 59.098C104.85 59.098 104.267 58.9487 103.763 58.65C103.259 58.3513 102.867 57.9267 102.587 57.376C102.316 56.8253 102.181 56.1813 102.181 55.444C102.181 54.7067 102.316 54.0627 102.587 53.512C102.867 52.9613 103.259 52.5367 103.763 52.238C104.267 51.9393 104.85 51.79 105.513 51.79C106.176 51.79 106.759 51.9393 107.263 52.238C107.767 52.5367 108.154 52.9613 108.425 53.512C108.705 54.0627 108.845 54.7067 108.845 55.444C108.845 56.1813 108.705 56.8253 108.425 57.376C108.154 57.9267 107.767 58.3513 107.263 58.65C106.759 58.9487 106.176 59.098 105.513 59.098ZM105.513 58.16C106.213 58.16 106.75 57.9313 107.123 57.474C107.496 57.0073 107.683 56.3307 107.683 55.444C107.683 54.5853 107.492 53.9227 107.109 53.456C106.726 52.98 106.194 52.742 105.513 52.742C104.822 52.742 104.286 52.98 103.903 53.456C103.52 53.9227 103.329 54.5853 103.329 55.444C103.329 56.3307 103.516 57.0073 103.889 57.474C104.272 57.9313 104.813 58.16 105.513 58.16Z" fill="white"/>
<rect width="223" height="159" transform="translate(322)" fill="#141415"/>
<path d="M426 101H447V122H426V101Z" fill="#337AB7"/>
<path d="M338.889 12.4648V20.6014H340.557V15.2856H340.625L342.731 20.5617H343.867L345.972 15.3055H346.04V20.6014H347.709V12.4648H345.587L343.346 17.9316H343.251L341.01 12.4648H338.889Z" fill="white"/>
<path d="M350.834 20.7166C351.736 20.7166 352.32 20.3233 352.618 19.7552H352.666V20.6014H354.271V16.4855C354.271 15.0314 353.039 14.4195 351.681 14.4195C350.219 14.4195 349.257 15.1188 349.023 16.2312L350.588 16.3583C350.703 15.9531 351.065 15.6551 351.673 15.6551C352.249 15.6551 352.578 15.9451 352.578 16.4457V16.4696C352.578 16.8629 352.161 16.9145 351.101 17.0178C349.893 17.1291 348.808 17.5343 348.808 18.897C348.808 20.1048 349.67 20.7166 350.834 20.7166ZM351.319 19.5486C350.799 19.5486 350.425 19.3062 350.425 18.8414C350.425 18.3647 350.818 18.1303 351.414 18.0468C351.784 17.9952 352.388 17.9078 352.59 17.7727V18.4203C352.59 19.0599 352.062 19.5486 351.319 19.5486Z" fill="white"/>
<path d="M355.584 20.6014H357.276V14.499H355.584V20.6014ZM356.434 13.7123C356.939 13.7123 357.352 13.327 357.352 12.8542C357.352 12.3854 356.939 12 356.434 12C355.934 12 355.52 12.3854 355.52 12.8542C355.52 13.327 355.934 13.7123 356.434 13.7123Z" fill="white"/>
<path d="M361.389 20.7206C363.241 20.7206 364.393 19.4532 364.393 17.574C364.393 15.6829 363.241 14.4195 361.389 14.4195C359.538 14.4195 358.386 15.6829 358.386 17.574C358.386 19.4532 359.538 20.7206 361.389 20.7206ZM361.397 19.4095C360.543 19.4095 360.106 18.6269 360.106 17.5621C360.106 16.4974 360.543 15.7107 361.397 15.7107C362.236 15.7107 362.673 16.4974 362.673 17.5621C362.673 18.6269 362.236 19.4095 361.397 19.4095Z" fill="white"/>
<path d="M368.067 20.6014H373.867V19.195H370.451V19.1394L371.639 17.9753C373.311 16.4497 373.76 15.6869 373.76 14.7612C373.76 13.3508 372.608 12.3536 370.864 12.3536C369.156 12.3536 367.984 13.3746 367.988 14.9718H369.62C369.616 14.1931 370.109 13.7163 370.852 13.7163C371.567 13.7163 372.1 14.1613 372.1 14.8764C372.1 15.524 371.702 15.969 370.963 16.6801L368.067 19.3619V20.6014Z" fill="white"/>
<path d="M378.304 20.7802C380.35 20.7802 381.586 19.2228 381.59 16.5411C381.594 13.8792 380.342 12.3536 378.304 12.3536C376.262 12.3536 375.023 13.8752 375.019 16.5411C375.011 19.2149 376.254 20.7762 378.304 20.7802ZM378.304 19.3539C377.371 19.3539 376.767 18.4163 376.771 16.5411C376.775 14.6937 377.375 13.764 378.304 13.764C379.23 13.764 379.834 14.6937 379.834 16.5411C379.838 18.4163 379.234 19.3539 378.304 19.3539Z" fill="white"/>
<path d="M382.817 20.6014H388.617V19.195H385.2V19.1394L386.388 17.9753C388.061 16.4497 388.51 15.6869 388.51 14.7612C388.51 13.3508 387.358 12.3536 385.613 12.3536C383.905 12.3536 382.733 13.3746 382.737 14.9718H384.37C384.366 14.1931 384.859 13.7163 385.602 13.7163C386.317 13.7163 386.849 14.1613 386.849 14.8764C386.849 15.524 386.452 15.969 385.713 16.6801L382.817 19.3619V20.6014Z" fill="white"/>
<path d="M393.054 20.7802C395.1 20.7802 396.335 19.2228 396.339 16.5411C396.343 13.8792 395.092 12.3536 393.054 12.3536C391.012 12.3536 389.772 13.8752 389.768 16.5411C389.76 19.2149 391.004 20.7762 393.054 20.7802ZM393.054 19.3539C392.12 19.3539 391.516 18.4163 391.52 16.5411C391.524 14.6937 392.124 13.764 393.054 13.764C393.98 13.764 394.583 14.6937 394.583 16.5411C394.587 18.4163 393.983 19.3539 393.054 19.3539Z" fill="white"/>
<path fill-rule="evenodd" clip-rule="evenodd" d="M495.515 17.6703C495.231 17.3856 495.231 16.924 495.515 16.6393L499.639 12.5153C499.924 12.2306 500.386 12.2306 500.67 12.5153C500.955 12.8 500.955 13.2616 500.67 13.5463L497.062 17.1548L500.67 20.7633C500.955 21.048 500.955 21.5096 500.67 21.7943C500.386 22.079 499.924 22.079 499.639 21.7943L495.515 17.6703Z" fill="white"/>
<path fill-rule="evenodd" clip-rule="evenodd" d="M526.77 17.6703C527.054 17.3856 527.054 16.924 526.77 16.6393L522.646 12.5153C522.361 12.2306 521.899 12.2306 521.615 12.5153C521.33 12.8 521.33 13.2616 521.615 13.5463L525.223 17.1548L521.615 20.7633C521.33 21.048 521.33 21.5096 521.615 21.7943C521.899 22.079 522.361 22.079 522.646 21.7943L526.77 17.6703Z" fill="white"/>
<path d="M339.557 58.8658C341.963 58.8658 343.355 57.1905 343.355 54.4199C343.355 51.6623 341.963 50 339.638 50H337V58.8658H339.557ZM338.192 57.697V51.1688H339.564C341.292 51.1688 342.183 52.329 342.183 54.4199C342.183 56.5195 341.292 57.697 339.491 57.697H338.192Z" fill="white"/>
<path d="M347.239 59C348.909 59 350 57.6277 350 55.5714C350 53.5022 348.909 52.1299 347.239 52.1299C345.569 52.1299 344.478 53.5022 344.478 55.5714C344.478 57.6277 345.569 59 347.239 59ZM347.243 57.9134C346.152 57.9134 345.643 56.8442 345.643 55.5671C345.643 54.2944 346.152 53.2121 347.243 53.2121C348.326 53.2121 348.835 54.2944 348.835 55.5671C348.835 56.8442 348.326 57.9134 347.243 57.9134Z" fill="white"/>
<path d="M372.882 52.4142H374.096C374.059 51.0152 372.878 50 371.183 50C369.508 50 368.224 51.0024 368.224 52.5081C368.224 53.7237 369.055 54.436 370.396 54.8156L371.382 55.0972C372.275 55.3446 372.963 55.6517 372.963 56.428C372.963 57.281 372.185 57.8441 371.113 57.8441C370.143 57.8441 369.337 57.3919 369.263 56.4408H368C368.081 58.0232 369.251 59 371.121 59C373.081 59 374.21 57.9209 374.21 56.4408C374.21 54.8668 372.87 54.2569 371.81 53.9839L370.995 53.7621C370.343 53.5872 369.475 53.2673 369.479 52.4313C369.479 51.6891 370.127 51.1389 371.154 51.1389C372.112 51.1389 372.792 51.6081 372.882 52.4142Z" fill="white"/>
<path d="M378.315 58.9872C379.68 58.9872 380.645 58.2834 380.923 57.2171L379.769 56.9995C379.549 57.618 379.02 57.9336 378.327 57.9336C377.284 57.9336 376.583 57.2256 376.55 55.963H381V55.5109C381 53.1436 379.647 52.218 378.229 52.218C376.485 52.218 375.336 53.6085 375.336 55.6218C375.336 57.6564 376.469 58.9872 378.315 58.9872ZM376.554 55.0076C376.603 54.0777 377.247 53.2716 378.237 53.2716C379.183 53.2716 379.802 54.0052 379.806 55.0076H376.554Z" fill="white"/>
<path d="M399 51.1515H401.544V58.8658H402.772V51.1515H405.32V50H399V51.1515Z" fill="white"/>
<path d="M408.372 59C409.708 59 410.653 58.2857 410.924 57.2035L409.796 56.9827C409.58 57.6104 409.062 57.9307 408.384 57.9307C407.364 57.9307 406.678 57.2121 406.646 55.9307H411V55.4719C411 53.0693 409.676 52.1299 408.289 52.1299C406.582 52.1299 405.458 53.5411 405.458 55.5844C405.458 57.6494 406.566 59 408.372 59ZM406.65 54.961C406.698 54.0173 407.328 53.1991 408.297 53.1991C409.222 53.1991 409.828 53.9437 409.832 54.961H406.65Z" fill="white"/>
<path d="M436.894 54.6549C436.894 51.7566 435.429 50 433.449 50C431.461 50 430 51.7566 430 54.6549C430 57.5487 431.461 59.3097 433.449 59.3097C433.942 59.3097 434.402 59.2035 434.813 58.9956L435.466 60H436.647L435.616 58.4071C436.408 57.615 436.894 56.323 436.894 54.6549ZM433.06 56.2478L434.147 57.9381C433.931 58.0221 433.695 58.0619 433.449 58.0619C432.13 58.0619 431.147 56.8628 431.147 54.6549C431.147 52.4469 432.13 51.2478 433.449 51.2478C434.764 51.2478 435.75 52.4469 435.75 54.6549C435.75 55.8938 435.44 56.8186 434.932 57.385L434.196 56.2478H433.06Z" fill="white"/>
<path d="M441.879 56.3673C441.883 57.5221 441.158 58.0708 440.53 58.0708C439.839 58.0708 439.361 57.4779 439.361 56.5531V52.3894H438.244V56.7124C438.244 58.3982 439.024 59.2743 440.127 59.2743C440.99 59.2743 441.576 58.7345 441.842 58.0088H441.901V59.1858H443V52.3894H441.879V56.3673Z" fill="white"/>
<path d="M463.431 54.7796C463.431 51.949 461.852 50.2334 459.717 50.2334C457.575 50.2334 456 51.949 456 54.7796C456 57.6059 457.575 59.3258 459.717 59.3258C460.249 59.3258 460.744 59.2221 461.187 59.019L461.892 60H463.165L462.053 58.4443C462.907 57.6707 463.431 56.4088 463.431 54.7796ZM459.299 56.3353L460.471 57.9862C460.237 58.0683 459.983 58.1072 459.717 58.1072C458.296 58.1072 457.236 56.936 457.236 54.7796C457.236 52.6232 458.296 51.452 459.717 51.452C461.135 51.452 462.198 52.6232 462.198 54.7796C462.198 55.9896 461.864 56.8928 461.316 57.446L460.523 56.3353H459.299Z" fill="white"/>
<path d="M468.804 56.452C468.808 57.5799 468.027 58.1158 467.35 58.1158C466.605 58.1158 466.09 57.5367 466.09 56.6335V52.567H464.886V56.7891C464.886 58.4356 465.727 59.2913 466.915 59.2913C467.846 59.2913 468.478 58.764 468.764 58.0553H468.829V59.2048H470.013V52.567H468.804V56.452Z" fill="white"/>
<path d="M471.631 59.2048H472.835V52.567H471.631V59.2048ZM472.239 51.5428C472.654 51.5428 473 51.1971 473 50.7736C473 50.35 472.654 50 472.239 50C471.82 50 471.478 50.35 471.478 50.7736C471.478 51.1971 471.82 51.5428 472.239 51.5428Z" fill="white"/>
<path d="M489.882 52.4142H491.096C491.059 51.0152 489.878 50 488.183 50C486.508 50 485.224 51.0024 485.224 52.5081C485.224 53.7237 486.055 54.436 487.396 54.8156L488.382 55.0972C489.275 55.3446 489.963 55.6517 489.963 56.428C489.963 57.281 489.185 57.8441 488.113 57.8441C487.143 57.8441 486.337 57.3919 486.263 56.4408H485C485.081 58.0232 486.251 59 488.121 59C490.081 59 491.21 57.9209 491.21 56.4408C491.21 54.8668 489.87 54.2569 488.81 53.9839L487.995 53.7621C487.343 53.5872 486.475 53.2673 486.479 52.4313C486.479 51.6891 487.127 51.1389 488.154 51.1389C489.112 51.1389 489.792 51.6081 489.882 52.4142Z" fill="white"/>
<path d="M495.315 58.9872C496.68 58.9872 497.645 58.2834 497.923 57.2171L496.769 56.9995C496.549 57.618 496.02 57.9336 495.327 57.9336C494.284 57.9336 493.583 57.2256 493.55 55.963H498V55.5109C498 53.1436 496.647 52.218 495.229 52.218C493.485 52.218 492.336 53.6085 492.336 55.6218C492.336 57.6564 493.469 58.9872 495.315 58.9872ZM493.554 55.0076C493.603 54.0777 494.247 53.2716 495.237 53.2716C496.183 53.2716 496.802 54.0052 496.806 55.0076H493.554Z" fill="white"/>
<path d="M519.676 52.4142H520.839C520.804 51.0152 519.672 50 518.049 50C516.444 50 515.215 51.0024 515.215 52.5081C515.215 53.7237 516.011 54.436 517.295 54.8156L518.24 55.0972C519.095 55.3446 519.754 55.6517 519.754 56.428C519.754 57.281 519.009 57.8441 517.982 57.8441C517.053 57.8441 516.28 57.3919 516.21 56.4408H515C515.078 58.0232 516.198 59 517.99 59C519.868 59 520.949 57.9209 520.949 56.4408C520.949 54.8668 519.665 54.2569 518.65 53.9839L517.869 53.7621C517.244 53.5872 516.413 53.2673 516.417 52.4313C516.417 51.6891 517.038 51.1389 518.021 51.1389C518.939 51.1389 519.59 51.6081 519.676 52.4142Z" fill="white"/>
<path d="M524.041 59C525.033 59 525.591 58.4498 525.813 57.9592H525.86V58.855H527V54.5043C527 52.5976 525.626 52.218 524.674 52.218C523.588 52.218 522.589 52.6957 522.199 53.89L523.296 54.163C523.467 53.6981 523.905 53.2502 524.689 53.2502C525.443 53.2502 525.829 53.681 525.829 54.4232V54.4531C525.829 54.918 525.392 54.9095 524.314 55.046C523.179 55.191 522.015 55.5152 522.015 57.0038C522.015 58.2919 522.901 59 524.041 59ZM524.295 57.9763C523.635 57.9763 523.159 57.6521 523.159 57.0209C523.159 56.3384 523.713 56.0953 524.389 55.9972C524.767 55.9417 525.665 55.8308 525.833 55.6474V56.4919C525.833 57.2682 525.267 57.9763 524.295 57.9763Z" fill="white"/>
<path d="M437.529 78.8052H436.333L434.303 80.1321V81.3081L436.249 80.0368H436.297V86.9418H437.529V78.8052Z" fill="#E7E7E7"/>
<path d="M461.858 86.9417H467.213V85.8888H463.55V85.8293L465.167 84.1368C466.657 82.631 467.082 81.9119 467.082 81.0021C467.082 79.695 466.017 78.6938 464.484 78.6938C462.962 78.6938 461.85 79.6791 461.85 81.165H463.022C463.018 80.291 463.582 79.7189 464.46 79.7189C465.286 79.7189 465.914 80.2274 465.914 81.0379C465.914 81.757 465.485 82.2735 464.611 83.1992L461.858 86.0517V86.9417Z" fill="#E7E7E7"/>
<path d="M491.785 87.0529C493.445 87.0529 494.665 86.0597 494.661 84.7089C494.665 83.6799 494.041 82.9409 492.961 82.7741V82.7105C493.811 82.492 494.363 81.8245 494.359 80.9108C494.363 79.7149 493.382 78.6938 491.816 78.6938C490.323 78.6938 489.123 79.5957 489.083 80.9187H490.271C490.299 80.1718 491.002 79.7189 491.8 79.7189C492.631 79.7189 493.175 80.2234 493.171 80.9743C493.175 81.761 492.543 82.2774 491.642 82.2774H490.954V83.2786H491.642C492.77 83.2786 493.421 83.8507 493.421 84.6692C493.421 85.4598 492.734 85.9961 491.777 85.9961C490.895 85.9961 490.207 85.5432 490.16 84.8201H488.912C488.964 86.1471 490.14 87.0529 491.785 87.0529Z" fill="#E7E7E7"/>
<path d="M517.629 85.3526H521.487V86.9418H522.659V85.3526H523.735V84.3117H522.659V78.8052H521.145L517.629 84.3594V85.3526ZM521.495 84.3117H518.916V84.2481L521.431 80.2672H521.495V84.3117Z" fill="#E7E7E7"/>
<path d="M343.767 115.489C345.404 115.489 346.572 114.333 346.568 112.748C346.572 111.174 345.476 110.03 343.994 110.03C343.39 110.03 342.83 110.261 342.512 110.571H342.464L342.723 108.294H346.175V107.241H341.701L341.245 111.341L342.369 111.508C342.675 111.234 343.223 111.047 343.716 111.047C344.681 111.055 345.38 111.778 345.38 112.772C345.38 113.749 344.701 114.456 343.767 114.456C342.981 114.456 342.357 113.955 342.293 113.256H341.102C341.149 114.551 342.274 115.489 343.767 115.489Z" fill="#E7E7E7"/>
<path d="M374.368 115.489C376.069 115.505 377.197 114.281 377.193 112.72C377.197 111.162 376.065 110.046 374.654 110.046C373.796 110.046 373.053 110.459 372.636 111.146H372.576C372.58 109.279 373.28 108.187 374.471 108.187C375.254 108.187 375.747 108.659 375.914 109.355H377.125C376.939 108.047 375.926 107.11 374.471 107.11C372.58 107.11 371.4 108.735 371.4 111.583C371.4 114.579 372.922 115.477 374.368 115.489ZM374.364 114.456C373.419 114.456 372.727 113.661 372.727 112.747C372.731 111.838 373.454 111.043 374.392 111.043C375.322 111.043 376.005 111.794 376.001 112.736C376.005 113.697 375.294 114.456 374.364 114.456Z" fill="#E7E7E7"/>
<path d="M402.886 115.378H404.17L407.709 108.33V107.241H402.33V108.294H406.438V108.354L402.886 115.378Z" fill="#E7E7E7"/>
<path d="M436.299 115.489C437.991 115.489 439.187 114.528 439.195 113.208C439.187 112.183 438.468 111.321 437.558 111.158V111.111C438.349 110.92 438.885 110.177 438.893 109.299C438.885 108.056 437.789 107.13 436.299 107.13C434.793 107.13 433.696 108.056 433.704 109.299C433.696 110.173 434.233 110.92 435.039 111.111V111.158C434.114 111.321 433.394 112.183 433.402 113.208C433.394 114.528 434.59 115.489 436.299 115.489ZM436.299 114.484C435.282 114.484 434.638 113.943 434.646 113.129C434.638 112.283 435.337 111.679 436.299 111.679C437.244 111.679 437.943 112.283 437.951 113.129C437.943 113.943 437.304 114.484 436.299 114.484ZM436.299 110.698C435.476 110.698 434.892 110.177 434.9 109.402C434.892 108.64 435.456 108.135 436.299 108.135C437.125 108.135 437.689 108.64 437.697 109.402C437.689 110.177 437.109 110.698 436.299 110.698Z" fill="white"/>
<path d="M464.202 107.11C462.493 107.098 461.377 108.322 461.377 109.879C461.377 111.436 462.505 112.557 463.916 112.557C464.778 112.557 465.517 112.136 465.934 111.452H465.997C465.994 113.324 465.29 114.416 464.098 114.416C463.32 114.416 462.819 113.939 462.66 113.244H461.448C461.627 114.559 462.644 115.489 464.098 115.489C465.99 115.489 467.17 113.864 467.173 111.015C467.17 108.024 465.652 107.122 464.202 107.11ZM464.206 108.143C465.147 108.143 465.843 108.941 465.843 109.851C465.843 110.761 465.112 111.556 464.182 111.556C463.248 111.556 462.569 110.809 462.569 109.863C462.569 108.902 463.272 108.143 464.206 108.143Z" fill="#E7E7E7"/>
<path d="M489.621 107.241H488.425L486.395 108.568V109.744L488.341 108.473H488.389V115.378H489.621V107.241Z" fill="#E7E7E7"/>
<path d="M494.654 115.513C496.533 115.513 497.634 113.979 497.634 111.313C497.634 108.667 496.518 107.13 494.654 107.13C492.787 107.13 491.675 108.663 491.671 111.313C491.671 113.975 492.771 115.509 494.654 115.513ZM494.654 114.452C493.554 114.452 492.89 113.348 492.89 111.313C492.894 109.287 493.558 108.171 494.654 108.171C495.747 108.171 496.414 109.287 496.414 111.313C496.414 113.348 495.751 114.452 494.654 114.452Z" fill="#E7E7E7"/>
<path d="M519.49 107.241H518.294L516.264 108.568V109.744L518.21 108.473H518.258V115.378H519.49V107.241Z" fill="#E7E7E7"/>
<path d="M524.778 107.241H523.582L521.552 108.568V109.744L523.498 108.473H523.546V115.378H524.778V107.241Z" fill="#E7E7E7"/>
<path d="M341.564 135.677H340.368L338.338 137.004V138.18L340.285 136.908H340.332V143.813H341.564V135.677Z" fill="#E7E7E7"/>
<path d="M343.765 143.813H349.12V142.76H345.457V142.701L347.074 141.008C348.564 139.503 348.989 138.784 348.989 137.874C348.989 136.567 347.925 135.565 346.391 135.565C344.869 135.565 343.757 136.551 343.757 138.037H344.929C344.925 137.163 345.489 136.59 346.367 136.59C347.194 136.59 347.821 137.099 347.821 137.909C347.821 138.629 347.392 139.145 346.518 140.071L343.765 142.923V143.813Z" fill="#E7E7E7"/>
<path d="M372.156 135.677H370.96L368.93 137.004V138.18L370.876 136.908H370.924V143.813H372.156V135.677Z" fill="#E7E7E7"/>
<path d="M377.189 143.925C378.85 143.925 380.07 142.931 380.066 141.58C380.07 140.551 379.446 139.813 378.365 139.646V139.582C379.216 139.364 379.768 138.696 379.764 137.782C379.768 136.586 378.787 135.565 377.221 135.565C375.727 135.565 374.528 136.467 374.488 137.79H375.676C375.704 137.043 376.407 136.59 377.205 136.59C378.036 136.59 378.58 137.095 378.576 137.846C378.58 138.633 377.948 139.149 377.046 139.149H376.359V140.15H377.046C378.175 140.15 378.826 140.722 378.826 141.541C378.826 142.331 378.139 142.868 377.181 142.868C376.299 142.868 375.612 142.415 375.565 141.692H374.317C374.369 143.019 375.545 143.925 377.189 143.925Z" fill="#E7E7E7"/>
<path d="M402.634 135.677H401.438L399.408 137.004V138.18L401.355 136.908H401.403V143.813H402.634V135.677Z" fill="#E7E7E7"/>
<path d="M404.664 142.224H408.522V143.813H409.694V142.224H410.771V141.183H409.694V135.677H408.18L404.664 141.231V142.224ZM408.53 141.183H405.952V141.12L408.467 137.139H408.53V141.183Z" fill="#E7E7E7"/>
<path d="M434.29 135.677H433.095L431.064 137.004V138.18L433.011 136.908H433.059V143.813H434.29V135.677Z" fill="#E7E7E7"/>
<path d="M439.177 143.925C440.814 143.925 441.982 142.768 441.978 141.183C441.982 139.61 440.886 138.466 439.404 138.466C438.8 138.466 438.24 138.696 437.922 139.006H437.874L438.132 136.73H441.585V135.677H437.111L436.654 139.777L437.779 139.944C438.085 139.67 438.633 139.483 439.126 139.483C440.091 139.491 440.79 140.214 440.79 141.207C440.79 142.184 440.111 142.892 439.177 142.892C438.391 142.892 437.767 142.391 437.703 141.692H436.511C436.559 142.987 437.683 143.925 439.177 143.925Z" fill="#E7E7E7"/>
<path d="M462.173 135.677H460.977L458.947 137.003V138.179L460.894 136.908H460.942V143.813H462.173V135.677Z" fill="#E7E7E7"/>
<path d="M467.215 143.924C468.915 143.94 470.044 142.717 470.04 141.155C470.044 139.598 468.911 138.481 467.501 138.481C466.643 138.481 465.9 138.895 465.483 139.582H465.423C465.427 137.715 466.126 136.622 467.318 136.622C468.101 136.622 468.594 137.095 468.76 137.79H469.972C469.785 136.483 468.772 135.545 467.318 135.545C465.427 135.545 464.247 137.17 464.247 140.019C464.247 143.015 465.769 143.912 467.215 143.924ZM467.211 142.891C466.265 142.891 465.574 142.097 465.574 141.183C465.578 140.273 466.301 139.479 467.239 139.479C468.168 139.479 468.852 140.23 468.848 141.171C468.852 142.133 468.141 142.891 467.211 142.891Z" fill="#E7E7E7"/>
<path d="M489.761 135.677H488.565L486.535 137.004V138.18L488.482 136.908H488.53V143.813H489.761V135.677Z" fill="#E7E7E7"/>
<path d="M492.236 143.813H493.52L497.059 136.765V135.677H491.68V136.73H495.788V136.789L492.236 143.813Z" fill="#E7E7E7"/>
<path d="M518.601 135.677H517.405L515.375 137.004V138.18L517.322 136.908H517.369V143.813H518.601V135.677Z" fill="#E7E7E7"/>
<path d="M523.551 143.925C525.244 143.925 526.44 142.963 526.448 141.644C526.44 140.619 525.721 139.757 524.811 139.594V139.546C525.601 139.356 526.138 138.613 526.146 137.735C526.138 136.491 525.041 135.565 523.551 135.565C522.046 135.565 520.949 136.491 520.957 137.735C520.949 138.609 521.485 139.356 522.292 139.546V139.594C521.366 139.757 520.647 140.619 520.655 141.644C520.647 142.963 521.843 143.925 523.551 143.925ZM523.551 142.919C522.534 142.919 521.891 142.379 521.899 141.565C521.891 140.718 522.59 140.114 523.551 140.114C524.497 140.114 525.196 140.718 525.204 141.565C525.196 142.379 524.556 142.919 523.551 142.919ZM523.551 139.133C522.729 139.133 522.145 138.613 522.153 137.838C522.145 137.075 522.709 136.571 523.551 136.571C524.378 136.571 524.942 137.075 524.95 137.838C524.942 138.613 524.362 139.133 523.551 139.133Z" fill="#E7E7E7"/>
<rect x="147" y="45" width="50" height="21" rx="2" fill="#337AB7"/>
<path d="M162.648 57.804H158.184L157.236 60H156.216L159.972 51.456H160.836L164.592 60H163.584L162.648 57.804ZM162.3 56.988L160.416 52.596L158.532 56.988H162.3ZM167.116 54.732V58.032C167.116 58.48 167.208 58.796 167.392 58.98C167.576 59.156 167.836 59.244 168.172 59.244C168.396 59.244 168.612 59.208 168.82 59.136V59.964C168.572 60.044 168.292 60.084 167.98 60.084C167.404 60.084 166.952 59.924 166.624 59.604C166.304 59.276 166.144 58.796 166.144 58.164V54.732H164.968V53.964H166.144V52.416L167.116 52.068V53.964H168.844V54.732H167.116ZM170.215 53.964H171.187V60H170.215V53.964ZM171.307 51.408V52.512H170.119V51.408H171.307ZM178.578 53.976L175.974 60H175.05L172.482 53.976H173.502L175.542 58.944L177.606 53.976H178.578ZM182.275 60.084C181.707 60.084 181.207 59.956 180.775 59.7C180.343 59.444 180.007 59.08 179.767 58.608C179.535 58.136 179.419 57.584 179.419 56.952C179.419 56.32 179.535 55.768 179.767 55.296C180.007 54.824 180.343 54.46 180.775 54.204C181.207 53.948 181.707 53.82 182.275 53.82C182.843 53.82 183.343 53.948 183.775 54.204C184.207 54.46 184.539 54.824 184.771 55.296C185.011 55.768 185.131 56.32 185.131 56.952C185.131 57.584 185.011 58.136 184.771 58.608C184.539 59.08 184.207 59.444 183.775 59.7C183.343 59.956 182.843 60.084 182.275 60.084ZM182.275 59.28C182.875 59.28 183.335 59.084 183.655 58.692C183.975 58.292 184.135 57.712 184.135 56.952C184.135 56.216 183.971 55.648 183.643 55.248C183.315 54.84 182.859 54.636 182.275 54.636C181.683 54.636 181.223 54.84 180.895 55.248C180.567 55.648 180.403 56.216 180.403 56.952C180.403 57.712 180.563 58.292 180.883 58.692C181.211 59.084 181.675 59.28 182.275 59.28Z" fill="white"/>
<rect x="146.5" y="45.5" width="98" height="20" rx="1.5" stroke="#313131"/>
</svg>
