<svg width="542" height="28" viewBox="0 0 542 28" fill="none" xmlns="http://www.w3.org/2000/svg">
<path d="M0.232 8.032H3.578C5.174 8.032 6.406 8.466 7.274 9.334C8.15133 10.1927 8.59 11.4153 8.59 13.002C8.59 14.598 8.15133 15.83 7.274 16.698C6.406 17.566 5.174 18 3.578 18H0.232V8.032ZM3.508 17.02C4.796 17.02 5.762 16.684 6.406 16.012C7.05933 15.34 7.386 14.3367 7.386 13.002C7.386 10.342 6.09333 9.012 3.508 9.012H1.38V17.02H3.508ZM10.7373 10.958H11.8713V18H10.7373V10.958ZM12.0113 7.976V9.264H10.6253V7.976H12.0113ZM20.5452 10.958V17.944C20.5452 18.9893 20.2746 19.778 19.7332 20.31C19.2012 20.8513 18.4126 21.122 17.3672 21.122C16.2939 21.122 15.3699 20.8793 14.5952 20.394L14.7912 19.47C15.2392 19.722 15.6592 19.904 16.0512 20.016C16.4526 20.128 16.8912 20.184 17.3672 20.184C18.0486 20.184 18.5619 20.002 18.9072 19.638C19.2526 19.2833 19.4252 18.7513 19.4252 18.042V16.376C19.2106 16.824 18.8932 17.174 18.4732 17.426C18.0626 17.6687 17.5726 17.79 17.0032 17.79C16.3872 17.79 15.8366 17.6453 15.3512 17.356C14.8752 17.0667 14.5066 16.656 14.2452 16.124C13.9839 15.592 13.8532 14.9807 13.8532 14.29C13.8532 13.5993 13.9839 12.988 14.2452 12.456C14.5066 11.924 14.8752 11.5133 15.3512 11.224C15.8366 10.9347 16.3872 10.79 17.0032 10.79C17.5632 10.79 18.0486 10.9113 18.4592 11.154C18.8792 11.3967 19.1966 11.7373 19.4112 12.176V10.958H20.5452ZM17.2272 16.838C17.9086 16.838 18.4406 16.614 18.8232 16.166C19.2152 15.7087 19.4112 15.0833 19.4112 14.29C19.4112 13.4967 19.2152 12.876 18.8232 12.428C18.4406 11.9707 17.9086 11.742 17.2272 11.742C16.5366 11.742 15.9906 11.9707 15.5892 12.428C15.1972 12.876 15.0012 13.4967 15.0012 14.29C15.0012 15.0833 15.1972 15.7087 15.5892 16.166C15.9906 16.614 16.5366 16.838 17.2272 16.838ZM22.9225 10.958H24.0565V18H22.9225V10.958ZM24.1965 7.976V9.264H22.8105V7.976H24.1965ZM27.9704 11.854V15.704C27.9704 16.2267 28.0777 16.5953 28.2924 16.81C28.5071 17.0153 28.8104 17.118 29.2024 17.118C29.4637 17.118 29.7157 17.076 29.9584 16.992V17.958C29.6691 18.0513 29.3424 18.098 28.9784 18.098C28.3064 18.098 27.7791 17.9113 27.3964 17.538C27.0231 17.1553 26.8364 16.5953 26.8364 15.858V11.854H25.4644V10.958H26.8364V9.152L27.9704 8.746V10.958H29.9864V11.854H27.9704ZM37.4469 14.444H32.2809C32.2903 15.34 32.4956 16.0167 32.8969 16.474C33.3076 16.9313 33.9003 17.16 34.6749 17.16C35.4963 17.16 36.2523 16.8847 36.9429 16.334L37.3209 17.16C37.0129 17.4493 36.6163 17.678 36.1309 17.846C35.6549 18.014 35.1649 18.098 34.6609 18.098C33.5596 18.098 32.6963 17.776 32.0709 17.132C31.4456 16.4787 31.1329 15.5873 31.1329 14.458C31.1329 13.7393 31.2729 13.1047 31.5529 12.554C31.8329 11.994 32.2249 11.56 32.7289 11.252C33.2329 10.944 33.8069 10.79 34.4509 10.79C35.3843 10.79 36.1169 11.098 36.6489 11.714C37.1809 12.3207 37.4469 13.1607 37.4469 14.234V14.444ZM34.4649 11.672C33.8769 11.672 33.3963 11.8493 33.0229 12.204C32.6589 12.5587 32.4256 13.058 32.3229 13.702H36.4249C36.3689 13.0393 36.1729 12.5353 35.8369 12.19C35.5103 11.8447 35.0529 11.672 34.4649 11.672ZM46.1306 18.098C45.4679 18.098 44.8846 17.9487 44.3806 17.65C43.8766 17.3513 43.4846 16.9267 43.2046 16.376C42.9339 15.8253 42.7986 15.1813 42.7986 14.444C42.7986 13.7067 42.9339 13.0627 43.2046 12.512C43.4846 11.9613 43.8766 11.5367 44.3806 11.238C44.8846 10.9393 45.4679 10.79 46.1306 10.79C46.7932 10.79 47.3766 10.9393 47.8806 11.238C48.3846 11.5367 48.7719 11.9613 49.0426 12.512C49.3226 13.0627 49.4626 13.7067 49.4626 14.444C49.4626 15.1813 49.3226 15.8253 49.0426 16.376C48.7719 16.9267 48.3846 17.3513 47.8806 17.65C47.3766 17.9487 46.7932 18.098 46.1306 18.098ZM46.1306 17.16C46.8306 17.16 47.3672 16.9313 47.7406 16.474C48.1139 16.0073 48.3006 15.3307 48.3006 14.444C48.3006 13.5853 48.1092 12.9227 47.7266 12.456C47.3439 11.98 46.8119 11.742 46.1306 11.742C45.4399 11.742 44.9032 11.98 44.5206 12.456C44.1379 12.9227 43.9466 13.5853 43.9466 14.444C43.9466 15.3307 44.1332 16.0073 44.5066 16.474C44.8892 16.9313 45.4306 17.16 46.1306 17.16ZM58.5567 10.79C58.79 10.79 59.0047 10.818 59.2007 10.874L59.1727 11.91C58.958 11.8353 58.7107 11.798 58.4307 11.798C57.7493 11.798 57.2407 12.0127 56.9047 12.442C56.578 12.862 56.4147 13.3753 56.4147 13.982V18H55.2807V12.932C55.2807 12.204 55.2433 11.546 55.1687 10.958H56.2467L56.3587 12.26C56.536 11.784 56.8207 11.42 57.2127 11.168C57.6047 10.916 58.0527 10.79 58.5567 10.79ZM66.3102 14.444H61.1442C61.1536 15.34 61.3589 16.0167 61.7602 16.474C62.1709 16.9313 62.7636 17.16 63.5382 17.16C64.3596 17.16 65.1156 16.8847 65.8062 16.334L66.1842 17.16C65.8762 17.4493 65.4796 17.678 64.9942 17.846C64.5182 18.014 64.0282 18.098 63.5242 18.098C62.4229 18.098 61.5596 17.776 60.9342 17.132C60.3089 16.4787 59.9962 15.5873 59.9962 14.458C59.9962 13.7393 60.1362 13.1047 60.4162 12.554C60.6962 11.994 61.0882 11.56 61.5922 11.252C62.0962 10.944 62.6702 10.79 63.3142 10.79C64.2476 10.79 64.9802 11.098 65.5122 11.714C66.0442 12.3207 66.3102 13.1607 66.3102 14.234V14.444ZM63.3282 11.672C62.7402 11.672 62.2596 11.8493 61.8862 12.204C61.5222 12.5587 61.2889 13.058 61.1862 13.702H65.2882C65.2322 13.0393 65.0362 12.5353 64.7002 12.19C64.3736 11.8447 63.9162 11.672 63.3282 11.672ZM76.0435 10.79C77.6021 10.79 78.3815 11.7187 78.3815 13.576V18H77.2475V13.632C77.2475 12.9693 77.1308 12.4887 76.8975 12.19C76.6735 11.8913 76.3048 11.742 75.7915 11.742C75.1941 11.742 74.7275 11.9427 74.3915 12.344C74.0555 12.7453 73.8875 13.2913 73.8875 13.982V18H72.7535V13.632C72.7535 12.9787 72.6368 12.5027 72.4035 12.204C72.1701 11.896 71.7968 11.742 71.2835 11.742C70.6861 11.742 70.2148 11.9427 69.8695 12.344C69.5335 12.7453 69.3655 13.2913 69.3655 13.982V18H68.2315V12.932C68.2315 12.204 68.1941 11.546 68.1195 10.958H69.1975L69.3095 12.19C69.5055 11.742 69.7948 11.3967 70.1775 11.154C70.5695 10.9113 71.0221 10.79 71.5355 10.79C72.0955 10.79 72.5528 10.902 72.9075 11.126C73.2621 11.35 73.5235 11.6953 73.6915 12.162C73.9061 11.742 74.2188 11.4107 74.6295 11.168C75.0495 10.916 75.5208 10.79 76.0435 10.79ZM86.6301 14.444H81.4641C81.4735 15.34 81.6788 16.0167 82.0801 16.474C82.4908 16.9313 83.0835 17.16 83.8581 17.16C84.6795 17.16 85.4355 16.8847 86.1261 16.334L86.5041 17.16C86.1961 17.4493 85.7995 17.678 85.3141 17.846C84.8381 18.014 84.3481 18.098 83.8441 18.098C82.7428 18.098 81.8795 17.776 81.2541 17.132C80.6288 16.4787 80.3161 15.5873 80.3161 14.458C80.3161 13.7393 80.4561 13.1047 80.7361 12.554C81.0161 11.994 81.4081 11.56 81.9121 11.252C82.4161 10.944 82.9901 10.79 83.6341 10.79C84.5675 10.79 85.3001 11.098 85.8321 11.714C86.3641 12.3207 86.6301 13.1607 86.6301 14.234V14.444ZM83.6481 11.672C83.0601 11.672 82.5795 11.8493 82.2061 12.204C81.8421 12.5587 81.6088 13.058 81.5061 13.702H85.6081C85.5521 13.0393 85.3561 12.5353 85.0201 12.19C84.6935 11.8447 84.2361 11.672 83.6481 11.672ZM90.0224 11.854V15.704C90.0224 16.2267 90.1297 16.5953 90.3444 16.81C90.559 17.0153 90.8624 17.118 91.2544 17.118C91.5157 17.118 91.7677 17.076 92.0104 16.992V17.958C91.721 18.0513 91.3944 18.098 91.0304 18.098C90.3584 18.098 89.831 17.9113 89.4484 17.538C89.075 17.1553 88.8884 16.5953 88.8884 15.858V11.854H87.5164V10.958H88.8884V9.152L90.0224 8.746V10.958H92.0384V11.854H90.0224ZM99.4989 14.444H94.3329C94.3422 15.34 94.5476 16.0167 94.9489 16.474C95.3596 16.9313 95.9522 17.16 96.7269 17.16C97.5482 17.16 98.3042 16.8847 98.9949 16.334L99.3729 17.16C99.0649 17.4493 98.6682 17.678 98.1829 17.846C97.7069 18.014 97.2169 18.098 96.7129 18.098C95.6116 18.098 94.7482 17.776 94.1229 17.132C93.4976 16.4787 93.1849 15.5873 93.1849 14.458C93.1849 13.7393 93.3249 13.1047 93.6049 12.554C93.8849 11.994 94.2769 11.56 94.7809 11.252C95.2849 10.944 95.8589 10.79 96.5029 10.79C97.4362 10.79 98.1689 11.098 98.7009 11.714C99.2329 12.3207 99.4989 13.1607 99.4989 14.234V14.444ZM96.5169 11.672C95.9289 11.672 95.4482 11.8493 95.0749 12.204C94.7109 12.5587 94.4776 13.058 94.3749 13.702H98.4769C98.4209 13.0393 98.2249 12.5353 97.8889 12.19C97.5622 11.8447 97.1049 11.672 96.5169 11.672ZM104.934 10.79C106.623 10.79 107.468 11.7187 107.468 13.576V18H106.334V13.632C106.334 12.9787 106.203 12.5027 105.942 12.204C105.681 11.896 105.27 11.742 104.71 11.742C104.057 11.742 103.534 11.9427 103.142 12.344C102.75 12.7453 102.554 13.2867 102.554 13.968V18H101.42V12.932C101.42 12.204 101.383 11.546 101.308 10.958H102.386L102.498 12.218C102.713 11.7607 103.035 11.4107 103.464 11.168C103.893 10.916 104.383 10.79 104.934 10.79ZM111.322 11.854V15.704C111.322 16.2267 111.429 16.5953 111.644 16.81C111.858 17.0153 112.162 17.118 112.554 17.118C112.815 17.118 113.067 17.076 113.31 16.992V17.958C113.02 18.0513 112.694 18.098 112.33 18.098C111.658 18.098 111.13 17.9113 110.748 17.538C110.374 17.1553 110.188 16.5953 110.188 15.858V11.854H108.816V10.958H110.188V9.152L111.322 8.746V10.958H113.338V11.854H111.322ZM120.798 14.444H115.632C115.641 15.34 115.847 16.0167 116.248 16.474C116.659 16.9313 117.251 17.16 118.026 17.16C118.847 17.16 119.603 16.8847 120.294 16.334L120.672 17.16C120.364 17.4493 119.967 17.678 119.482 17.846C119.006 18.014 118.516 18.098 118.012 18.098C116.911 18.098 116.047 17.776 115.422 17.132C114.797 16.4787 114.484 15.5873 114.484 14.458C114.484 13.7393 114.624 13.1047 114.904 12.554C115.184 11.994 115.576 11.56 116.08 11.252C116.584 10.944 117.158 10.79 117.802 10.79C118.735 10.79 119.468 11.098 120 11.714C120.532 12.3207 120.798 13.1607 120.798 14.234V14.444ZM117.816 11.672C117.228 11.672 116.747 11.8493 116.374 12.204C116.01 12.5587 115.777 13.058 115.674 13.702H119.776C119.72 13.0393 119.524 12.5353 119.188 12.19C118.861 11.8447 118.404 11.672 117.816 11.672Z" fill="white"/>
<path d="M123.232 7.428L124.59 5.692L122.462 5.062L122.742 4.236L124.8 4.978L124.73 2.794H125.598L125.528 4.992L127.614 4.236L127.88 5.062L125.766 5.692L127.124 7.428L126.41 7.932L125.178 6.098L123.932 7.932L123.232 7.428Z" fill="#E80000"/>
<rect x="146.5" y="0.5" width="359" height="27" fill="#141415" stroke="#313131"/>
<path d="M532 23C536.971 23 541 18.9706 541 14C541 9.02944 536.971 5 532 5C527.029 5 523 9.02944 523 14C523 18.9706 527.029 23 532 23Z" stroke="white" stroke-linecap="round" stroke-linejoin="round"/>
<path d="M532 20C532.552 20 533 19.5523 533 19C533 18.4477 532.552 18 532 18C531.448 18 531 18.4477 531 19C531 19.5523 531.448 20 532 20Z" fill="white"/>
<path d="M532 16V15.25C532.593 15.25 533.173 15.096 533.667 14.8076C534.16 14.5192 534.545 14.1092 534.772 13.6295C534.999 13.1499 535.058 12.6221 534.942 12.1129C534.827 11.6037 534.541 11.136 534.121 10.7688C533.702 10.4017 533.167 10.1517 532.585 10.0504C532.003 9.94915 531.4 10.0011 530.852 10.1998C530.304 10.3985 529.835 10.735 529.506 11.1666C529.176 11.5983 529 12.1058 529 12.625" stroke="white" stroke-linecap="round" stroke-linejoin="round"/>
</svg>
