<svg width="559" height="128" viewBox="0 0 559 128" fill="none" xmlns="http://www.w3.org/2000/svg">
<path d="M5.488 18.112C4.54533 18.112 3.724 17.9067 3.024 17.496C2.33333 17.0853 1.80133 16.4973 1.428 15.732C1.05467 14.9573 0.868 14.0473 0.868 13.002C0.868 11.9567 1.05467 11.056 1.428 10.3C1.80133 9.53467 2.33333 8.94667 3.024 8.536C3.724 8.12533 4.54533 7.92 5.488 7.92C6.17867 7.92 6.80867 8.02733 7.378 8.242C7.95667 8.44733 8.456 8.76 8.876 9.18L8.442 10.062C7.966 9.65133 7.49467 9.35733 7.028 9.18C6.57067 9.00267 6.062 8.914 5.502 8.914C4.41 8.914 3.56067 9.26867 2.954 9.978C2.35667 10.6873 2.058 11.6953 2.058 13.002C2.058 14.318 2.35667 15.3353 2.954 16.054C3.55133 16.7633 4.40067 17.118 5.502 17.118C6.062 17.118 6.57067 17.0293 7.028 16.852C7.49467 16.6747 7.966 16.3807 8.442 15.97L8.876 16.852C8.456 17.272 7.95667 17.5893 7.378 17.804C6.80867 18.0093 6.17867 18.112 5.488 18.112ZM13.6376 18.098C12.9749 18.098 12.3916 17.9487 11.8876 17.65C11.3836 17.3513 10.9916 16.9267 10.7116 16.376C10.4409 15.8253 10.3056 15.1813 10.3056 14.444C10.3056 13.7067 10.4409 13.0627 10.7116 12.512C10.9916 11.9613 11.3836 11.5367 11.8876 11.238C12.3916 10.9393 12.9749 10.79 13.6376 10.79C14.3003 10.79 14.8836 10.9393 15.3876 11.238C15.8916 11.5367 16.2789 11.9613 16.5496 12.512C16.8296 13.0627 16.9696 13.7067 16.9696 14.444C16.9696 15.1813 16.8296 15.8253 16.5496 16.376C16.2789 16.9267 15.8916 17.3513 15.3876 17.65C14.8836 17.9487 14.3003 18.098 13.6376 18.098ZM13.6376 17.16C14.3376 17.16 14.8743 16.9313 15.2476 16.474C15.6209 16.0073 15.8076 15.3307 15.8076 14.444C15.8076 13.5853 15.6163 12.9227 15.2336 12.456C14.8509 11.98 14.3189 11.742 13.6376 11.742C12.9469 11.742 12.4103 11.98 12.0276 12.456C11.6449 12.9227 11.4536 13.5853 11.4536 14.444C11.4536 15.3307 11.6403 16.0073 12.0136 16.474C12.3963 16.9313 12.9376 17.16 13.6376 17.16ZM25.1393 7.696V18H24.0193V16.726C23.814 17.1647 23.5013 17.5053 23.0813 17.748C22.6706 17.9813 22.19 18.098 21.6393 18.098C21.0233 18.098 20.4773 17.944 20.0013 17.636C19.5346 17.328 19.1706 16.8987 18.9093 16.348C18.648 15.788 18.5173 15.144 18.5173 14.416C18.5173 13.688 18.6433 13.0533 18.8953 12.512C19.1566 11.9613 19.5253 11.5367 20.0013 11.238C20.4773 10.9393 21.0233 10.79 21.6393 10.79C22.19 10.79 22.6706 10.9113 23.0813 11.154C23.492 11.3873 23.8 11.7187 24.0053 12.148V7.696H25.1393ZM21.8633 17.16C22.554 17.16 23.086 16.9267 23.4593 16.46C23.8326 15.984 24.0193 15.312 24.0193 14.444C24.0193 13.5853 23.8326 12.9227 23.4593 12.456C23.086 11.98 22.554 11.742 21.8633 11.742C21.1726 11.742 20.6313 11.9753 20.2393 12.442C19.8566 12.9087 19.6653 13.5667 19.6653 14.416C19.6653 15.284 19.8566 15.9607 20.2393 16.446C20.6313 16.922 21.1726 17.16 21.8633 17.16ZM27.5318 10.958H28.6658V18H27.5318V10.958ZM28.8058 7.976V9.264H27.4198V7.976H28.8058ZM32.5798 10.958H36.9058V18H35.7718V11.854H32.5798V18H31.4458V11.854H30.0738V10.958H31.4458V10.02C31.4458 9.45067 31.5298 8.99333 31.6978 8.648C31.8751 8.30267 32.1598 8.05067 32.5518 7.892C32.9438 7.73333 33.4758 7.654 34.1478 7.654H34.5958V8.536H34.2458C33.7604 8.536 33.4011 8.578 33.1678 8.662C32.9438 8.746 32.7898 8.90933 32.7058 9.152C32.6218 9.38533 32.5798 9.74933 32.5798 10.244V10.958ZM37.0458 7.906V9.222H35.6318V7.906H37.0458ZM42.2472 18.098C41.5658 18.098 40.9685 17.9487 40.4552 17.65C39.9512 17.3513 39.5592 16.9313 39.2792 16.39C39.0085 15.8393 38.8732 15.2 38.8732 14.472C38.8732 13.744 39.0132 13.1047 39.2932 12.554C39.5732 11.994 39.9698 11.56 40.4832 11.252C41.0058 10.944 41.6125 10.79 42.3032 10.79C42.7792 10.79 43.2365 10.874 43.6752 11.042C44.1232 11.2007 44.4918 11.4247 44.7812 11.714L44.4032 12.554C44.0485 12.274 43.7032 12.0687 43.3672 11.938C43.0405 11.8073 42.7045 11.742 42.3592 11.742C41.6405 11.742 41.0758 11.9847 40.6652 12.47C40.2545 12.946 40.0492 13.6133 40.0492 14.472C40.0492 15.3213 40.2498 15.984 40.6512 16.46C41.0618 16.9267 41.6312 17.16 42.3592 17.16C42.7045 17.16 43.0405 17.0947 43.3672 16.964C43.7032 16.8333 44.0485 16.628 44.4032 16.348L44.7812 17.188C44.4825 17.468 44.1045 17.692 43.6472 17.86C43.1992 18.0187 42.7325 18.098 42.2472 18.098ZM52.6268 10.958V18H51.5068V16.726C51.3015 17.1647 50.9888 17.5053 50.5688 17.748C50.1581 17.9813 49.6775 18.098 49.1268 18.098C48.5015 18.098 47.9508 17.9487 47.4748 17.65C47.0081 17.3513 46.6441 16.9313 46.3828 16.39C46.1308 15.8393 46.0048 15.2 46.0048 14.472C46.0048 13.744 46.1355 13.1047 46.3968 12.554C46.6581 11.994 47.0221 11.56 47.4888 11.252C47.9648 10.944 48.5108 10.79 49.1268 10.79C49.6775 10.79 50.1581 10.9113 50.5688 11.154C50.9795 11.3967 51.2921 11.7373 51.5068 12.176V10.958H52.6268ZM49.3508 17.16C50.0415 17.16 50.5735 16.9267 50.9468 16.46C51.3201 15.984 51.5068 15.312 51.5068 14.444C51.5068 13.576 51.3201 12.9087 50.9468 12.442C50.5735 11.9753 50.0415 11.742 49.3508 11.742C48.6601 11.742 48.1188 11.9847 47.7268 12.47C47.3441 12.946 47.1528 13.6133 47.1528 14.472C47.1528 15.3307 47.3441 15.9933 47.7268 16.46C48.1095 16.9267 48.6508 17.16 49.3508 17.16ZM60.5073 17.188C60.2273 17.4493 59.8773 17.664 59.4573 17.832C59.0467 17.9907 58.6173 18.0793 58.1693 18.098L58.1133 18.602C58.2627 18.5833 58.3747 18.574 58.4493 18.574C58.748 18.574 59 18.658 59.2053 18.826C59.42 18.994 59.5273 19.2367 59.5273 19.554C59.5273 19.8993 59.3827 20.1793 59.0933 20.394C58.804 20.618 58.4027 20.73 57.8893 20.73C57.6933 20.73 57.4787 20.7067 57.2453 20.66C57.012 20.6133 56.8113 20.548 56.6433 20.464L56.8253 19.848C57.1613 19.9787 57.516 20.044 57.8893 20.044C58.1413 20.044 58.3327 20.002 58.4633 19.918C58.6033 19.834 58.6733 19.7127 58.6733 19.554C58.6733 19.4327 58.6313 19.3393 58.5473 19.274C58.4633 19.2087 58.342 19.176 58.1833 19.176C57.9687 19.176 57.754 19.218 57.5393 19.302L57.2593 19.078L57.3713 18.056C56.5127 17.9347 55.836 17.5567 55.3413 16.922C54.8467 16.278 54.5993 15.4613 54.5993 14.472C54.5993 13.744 54.7393 13.1047 55.0193 12.554C55.2993 11.994 55.696 11.56 56.2093 11.252C56.732 10.944 57.3387 10.79 58.0293 10.79C58.5053 10.79 58.9627 10.874 59.4013 11.042C59.8493 11.2007 60.218 11.4247 60.5073 11.714L60.1293 12.554C59.7747 12.274 59.4293 12.0687 59.0933 11.938C58.7667 11.8073 58.4307 11.742 58.0853 11.742C57.3667 11.742 56.802 11.9847 56.3913 12.47C55.9807 12.946 55.7753 13.6133 55.7753 14.472C55.7753 15.3213 55.976 15.984 56.3773 16.46C56.788 16.9267 57.3573 17.16 58.0853 17.16C58.4307 17.16 58.7667 17.0947 59.0933 16.964C59.4293 16.8333 59.7747 16.628 60.1293 16.348L60.5073 17.188ZM68.353 10.958V18H67.233V16.726C67.0276 17.1647 66.715 17.5053 66.295 17.748C65.8843 17.9813 65.4036 18.098 64.853 18.098C64.2276 18.098 63.677 17.9487 63.201 17.65C62.7343 17.3513 62.3703 16.9313 62.109 16.39C61.857 15.8393 61.731 15.2 61.731 14.472C61.731 13.744 61.8616 13.1047 62.123 12.554C62.3843 11.994 62.7483 11.56 63.215 11.252C63.691 10.944 64.237 10.79 64.853 10.79C65.4036 10.79 65.8843 10.9113 66.295 11.154C66.7056 11.3967 67.0183 11.7373 67.233 12.176V10.958H68.353ZM65.077 17.16C65.7676 17.16 66.2996 16.9267 66.673 16.46C67.0463 15.984 67.233 15.312 67.233 14.444C67.233 13.576 67.0463 12.9087 66.673 12.442C66.2996 11.9753 65.7676 11.742 65.077 11.742C64.3863 11.742 63.845 11.9847 63.453 12.47C63.0703 12.946 62.879 13.6133 62.879 14.472C62.879 15.3307 63.0703 15.9933 63.453 16.46C63.8356 16.9267 64.377 17.16 65.077 17.16ZM62.991 9.39C62.991 8.87667 63.103 8.48 63.327 8.2C63.5603 7.92 63.8683 7.78 64.251 7.78C64.447 7.78 64.6336 7.822 64.811 7.906C64.9883 7.98067 65.1983 8.09267 65.441 8.242C65.637 8.36333 65.791 8.452 65.903 8.508C66.0243 8.564 66.141 8.592 66.253 8.592C66.4583 8.592 66.617 8.51733 66.729 8.368C66.8503 8.21867 66.911 8.03667 66.911 7.822H67.541C67.541 8.33533 67.4243 8.732 67.191 9.012C66.967 9.292 66.6636 9.432 66.281 9.432C66.085 9.432 65.8983 9.39467 65.721 9.32C65.5436 9.236 65.3336 9.11933 65.091 8.97C64.895 8.84867 64.7363 8.76 64.615 8.704C64.503 8.648 64.391 8.62 64.279 8.62C64.0736 8.62 63.9103 8.69467 63.789 8.844C63.677 8.99333 63.621 9.17533 63.621 9.39H62.991ZM73.6575 18.098C72.9949 18.098 72.4115 17.9487 71.9075 17.65C71.4035 17.3513 71.0115 16.9267 70.7315 16.376C70.4609 15.8253 70.3255 15.1813 70.3255 14.444C70.3255 13.7067 70.4609 13.0627 70.7315 12.512C71.0115 11.9613 71.4035 11.5367 71.9075 11.238C72.4115 10.9393 72.9949 10.79 73.6575 10.79C74.3202 10.79 74.9035 10.9393 75.4075 11.238C75.9115 11.5367 76.2989 11.9613 76.5695 12.512C76.8495 13.0627 76.9895 13.7067 76.9895 14.444C76.9895 15.1813 76.8495 15.8253 76.5695 16.376C76.2989 16.9267 75.9115 17.3513 75.4075 17.65C74.9035 17.9487 74.3202 18.098 73.6575 18.098ZM73.6575 17.16C74.3575 17.16 74.8942 16.9313 75.2675 16.474C75.6409 16.0073 75.8275 15.3307 75.8275 14.444C75.8275 13.5853 75.6362 12.9227 75.2535 12.456C74.8709 11.98 74.3389 11.742 73.6575 11.742C72.9669 11.742 72.4302 11.98 72.0475 12.456C71.6649 12.9227 71.4735 13.5853 71.4735 14.444C71.4735 15.3307 71.6602 16.0073 72.0335 16.474C72.4162 16.9313 72.9575 17.16 73.6575 17.16Z" fill="white"/>
<path d="M79.232 7.428L80.59 5.692L78.462 5.062L78.742 4.236L80.8 4.978L80.73 2.794H81.598L81.528 4.992L83.614 4.236L83.88 5.062L81.766 5.692L83.124 7.428L82.41 7.932L81.178 6.098L79.932 7.932L79.232 7.428Z" fill="#E80000"/>
<rect x="102.5" y="0.5" width="425" height="27" fill="#141415" stroke="#313131"/>
<rect x="151" y="81" width="50" height="21" rx="2" fill="#E8EAEF"/>
<path d="M158.056 87.456H159.04V96H158.056V87.456ZM164.242 89.82C165.69 89.82 166.414 90.616 166.414 92.208V96H165.442V92.256C165.442 91.696 165.33 91.288 165.106 91.032C164.882 90.768 164.53 90.636 164.05 90.636C163.49 90.636 163.042 90.808 162.706 91.152C162.37 91.496 162.202 91.96 162.202 92.544V96H161.23V91.656C161.23 91.032 161.198 90.468 161.134 89.964H162.058L162.154 91.044C162.338 90.652 162.614 90.352 162.982 90.144C163.35 89.928 163.77 89.82 164.242 89.82ZM173.765 89.964V96H172.805V94.908C172.629 95.284 172.361 95.576 172.001 95.784C171.649 95.984 171.237 96.084 170.765 96.084C170.229 96.084 169.757 95.956 169.349 95.7C168.949 95.444 168.637 95.084 168.413 94.62C168.197 94.148 168.089 93.6 168.089 92.976C168.089 92.352 168.201 91.804 168.425 91.332C168.649 90.852 168.961 90.48 169.361 90.216C169.769 89.952 170.237 89.82 170.765 89.82C171.237 89.82 171.649 89.924 172.001 90.132C172.353 90.34 172.621 90.632 172.805 91.008V89.964H173.765ZM170.957 95.28C171.549 95.28 172.005 95.08 172.325 94.68C172.645 94.272 172.805 93.696 172.805 92.952C172.805 92.208 172.645 91.636 172.325 91.236C172.005 90.836 171.549 90.636 170.957 90.636C170.365 90.636 169.901 90.844 169.565 91.26C169.237 91.668 169.073 92.24 169.073 92.976C169.073 93.712 169.237 94.28 169.565 94.68C169.893 95.08 170.357 95.28 170.957 95.28ZM177.141 90.732V94.032C177.141 94.48 177.233 94.796 177.417 94.98C177.601 95.156 177.861 95.244 178.197 95.244C178.421 95.244 178.637 95.208 178.845 95.136V95.964C178.597 96.044 178.317 96.084 178.005 96.084C177.429 96.084 176.977 95.924 176.649 95.604C176.329 95.276 176.169 94.796 176.169 94.164V90.732H174.993V89.964H176.169V88.416L177.141 88.068V89.964H178.869V90.732H177.141ZM180.24 89.964H181.212V96H180.24V89.964ZM181.332 87.408V88.512H180.144V87.408H181.332ZM188.603 89.976L185.999 96H185.075L182.507 89.976H183.527L185.567 94.944L187.631 89.976H188.603ZM192.3 96.084C191.732 96.084 191.232 95.956 190.8 95.7C190.368 95.444 190.032 95.08 189.792 94.608C189.56 94.136 189.444 93.584 189.444 92.952C189.444 92.32 189.56 91.768 189.792 91.296C190.032 90.824 190.368 90.46 190.8 90.204C191.232 89.948 191.732 89.82 192.3 89.82C192.868 89.82 193.368 89.948 193.8 90.204C194.232 90.46 194.564 90.824 194.796 91.296C195.036 91.768 195.156 92.32 195.156 92.952C195.156 93.584 195.036 94.136 194.796 94.608C194.564 95.08 194.232 95.444 193.8 95.7C193.368 95.956 192.868 96.084 192.3 96.084ZM192.3 95.28C192.9 95.28 193.36 95.084 193.68 94.692C194 94.292 194.16 93.712 194.16 92.952C194.16 92.216 193.996 91.648 193.668 91.248C193.34 90.84 192.884 90.636 192.3 90.636C191.708 90.636 191.248 90.84 190.92 91.248C190.592 91.648 190.428 92.216 190.428 92.952C190.428 93.712 190.588 94.292 190.908 94.692C191.236 95.084 191.7 95.28 192.3 95.28Z" fill="black"/>
<rect x="102.5" y="81.5" width="98" height="20" rx="1.5" stroke="#B0B0B0"/>
<path d="M549 23C553.971 23 558 18.9706 558 14C558 9.02944 553.971 5 549 5C544.029 5 540 9.02944 540 14C540 18.9706 544.029 23 549 23Z" stroke="white" stroke-linecap="round" stroke-linejoin="round"/>
<path d="M549 20C549.552 20 550 19.5523 550 19C550 18.4477 549.552 18 549 18C548.448 18 548 18.4477 548 19C548 19.5523 548.448 20 549 20Z" fill="white"/>
<path d="M549 16V15.25C549.593 15.25 550.173 15.096 550.667 14.8076C551.16 14.5192 551.545 14.1092 551.772 13.6295C551.999 13.1499 552.058 12.6221 551.942 12.1129C551.827 11.6037 551.541 11.136 551.121 10.7688C550.702 10.4017 550.167 10.1517 549.585 10.0504C549.003 9.94915 548.4 10.0011 547.852 10.1998C547.304 10.3985 546.835 10.735 546.506 11.1666C546.176 11.5983 546 12.1058 546 12.625" stroke="white" stroke-linecap="round" stroke-linejoin="round"/>
<g filter="url(#filter0_d_0_1)">
<rect x="102" y="26" width="426" height="82" fill="#141415"/>
<rect x="102.5" y="26.5" width="425" height="81" stroke="#313131"/>
</g>
<rect x="103" y="27" width="424" height="27" fill="#1E90FF"/>
<path d="M111.232 35.032H115.208C116.235 35.032 117.033 35.2793 117.602 35.774C118.181 36.2687 118.47 36.95 118.47 37.818C118.47 38.686 118.181 39.372 117.602 39.876C117.023 40.3707 116.225 40.618 115.208 40.618H112.38V45H111.232V35.032ZM115.11 39.666C115.847 39.666 116.403 39.5073 116.776 39.19C117.149 38.8727 117.336 38.4153 117.336 37.818C117.336 37.2207 117.149 36.768 116.776 36.46C116.403 36.1427 115.847 35.984 115.11 35.984H112.38V39.666H115.11ZM126.394 37.958V45H125.274V43.726C125.069 44.1647 124.756 44.5053 124.336 44.748C123.926 44.9813 123.445 45.098 122.894 45.098C122.269 45.098 121.718 44.9487 121.242 44.65C120.776 44.3513 120.412 43.9313 120.15 43.39C119.898 42.8393 119.772 42.2 119.772 41.472C119.772 40.744 119.903 40.1047 120.164 39.554C120.426 38.994 120.79 38.56 121.256 38.252C121.732 37.944 122.278 37.79 122.894 37.79C123.445 37.79 123.926 37.9113 124.336 38.154C124.747 38.3967 125.06 38.7373 125.274 39.176V37.958H126.394ZM123.118 44.16C123.809 44.16 124.341 43.9267 124.714 43.46C125.088 42.984 125.274 42.312 125.274 41.444C125.274 40.576 125.088 39.9087 124.714 39.442C124.341 38.9753 123.809 38.742 123.118 38.742C122.428 38.742 121.886 38.9847 121.494 39.47C121.112 39.946 120.92 40.6133 120.92 41.472C120.92 42.3307 121.112 42.9933 121.494 43.46C121.877 43.9267 122.418 44.16 123.118 44.16ZM134.989 34.696V45H133.869V43.726C133.664 44.1647 133.351 44.5053 132.931 44.748C132.52 44.9813 132.04 45.098 131.489 45.098C130.873 45.098 130.327 44.944 129.851 44.636C129.384 44.328 129.02 43.8987 128.759 43.348C128.498 42.788 128.367 42.144 128.367 41.416C128.367 40.688 128.493 40.0533 128.745 39.512C129.006 38.9613 129.375 38.5367 129.851 38.238C130.327 37.9393 130.873 37.79 131.489 37.79C132.04 37.79 132.52 37.9113 132.931 38.154C133.342 38.3873 133.65 38.7187 133.855 39.148V34.696H134.989ZM131.713 44.16C132.404 44.16 132.936 43.9267 133.309 43.46C133.682 42.984 133.869 42.312 133.869 41.444C133.869 40.5853 133.682 39.9227 133.309 39.456C132.936 38.98 132.404 38.742 131.713 38.742C131.022 38.742 130.481 38.9753 130.089 39.442C129.706 39.9087 129.515 40.5667 129.515 41.416C129.515 42.284 129.706 42.9607 130.089 43.446C130.481 43.922 131.022 44.16 131.713 44.16ZM140.657 37.79C140.891 37.79 141.105 37.818 141.301 37.874L141.273 38.91C141.059 38.8353 140.811 38.798 140.531 38.798C139.85 38.798 139.341 39.0127 139.005 39.442C138.679 39.862 138.515 40.3753 138.515 40.982V45H137.381V39.932C137.381 39.204 137.344 38.546 137.269 37.958H138.347L138.459 39.26C138.637 38.784 138.921 38.42 139.313 38.168C139.705 37.916 140.153 37.79 140.657 37.79ZM148.719 37.958V45H147.599V43.726C147.394 44.1647 147.081 44.5053 146.661 44.748C146.25 44.9813 145.77 45.098 145.219 45.098C144.594 45.098 144.043 44.9487 143.567 44.65C143.1 44.3513 142.736 43.9313 142.475 43.39C142.223 42.8393 142.097 42.2 142.097 41.472C142.097 40.744 142.228 40.1047 142.489 39.554C142.75 38.994 143.114 38.56 143.581 38.252C144.057 37.944 144.603 37.79 145.219 37.79C145.77 37.79 146.25 37.9113 146.661 38.154C147.072 38.3967 147.384 38.7373 147.599 39.176V37.958H148.719ZM145.443 44.16C146.134 44.16 146.666 43.9267 147.039 43.46C147.412 42.984 147.599 42.312 147.599 41.444C147.599 40.576 147.412 39.9087 147.039 39.442C146.666 38.9753 146.134 38.742 145.443 38.742C144.752 38.742 144.211 38.9847 143.819 39.47C143.436 39.946 143.245 40.6133 143.245 41.472C143.245 42.3307 143.436 42.9933 143.819 43.46C144.202 43.9267 144.743 44.16 145.443 44.16ZM143.357 36.39C143.357 35.8767 143.469 35.48 143.693 35.2C143.926 34.92 144.234 34.78 144.617 34.78C144.813 34.78 145 34.822 145.177 34.906C145.354 34.9807 145.564 35.0927 145.807 35.242C146.003 35.3633 146.157 35.452 146.269 35.508C146.39 35.564 146.507 35.592 146.619 35.592C146.824 35.592 146.983 35.5173 147.095 35.368C147.216 35.2187 147.277 35.0367 147.277 34.822H147.907C147.907 35.3353 147.79 35.732 147.557 36.012C147.333 36.292 147.03 36.432 146.647 36.432C146.451 36.432 146.264 36.3947 146.087 36.32C145.91 36.236 145.7 36.1193 145.457 35.97C145.261 35.8487 145.102 35.76 144.981 35.704C144.869 35.648 144.757 35.62 144.645 35.62C144.44 35.62 144.276 35.6947 144.155 35.844C144.043 35.9933 143.987 36.1753 143.987 36.39H143.357ZM154.024 45.098C153.361 45.098 152.778 44.9487 152.274 44.65C151.77 44.3513 151.378 43.9267 151.098 43.376C150.827 42.8253 150.692 42.1813 150.692 41.444C150.692 40.7067 150.827 40.0627 151.098 39.512C151.378 38.9613 151.77 38.5367 152.274 38.238C152.778 37.9393 153.361 37.79 154.024 37.79C154.686 37.79 155.27 37.9393 155.774 38.238C156.278 38.5367 156.665 38.9613 156.936 39.512C157.216 40.0627 157.356 40.7067 157.356 41.444C157.356 42.1813 157.216 42.8253 156.936 43.376C156.665 43.9267 156.278 44.3513 155.774 44.65C155.27 44.9487 154.686 45.098 154.024 45.098ZM154.024 44.16C154.724 44.16 155.26 43.9313 155.634 43.474C156.007 43.0073 156.194 42.3307 156.194 41.444C156.194 40.5853 156.002 39.9227 155.62 39.456C155.237 38.98 154.705 38.742 154.024 38.742C153.333 38.742 152.796 38.98 152.414 39.456C152.031 39.9227 151.84 40.5853 151.84 41.444C151.84 42.3307 152.026 43.0073 152.4 43.474C152.782 43.9313 153.324 44.16 154.024 44.16ZM165.134 47.548C164.574 46.484 164.168 45.448 163.916 44.44C163.664 43.4227 163.538 42.368 163.538 41.276C163.538 40.1933 163.664 39.1433 163.916 38.126C164.177 37.1087 164.583 36.0773 165.134 35.032H166.086C165.582 36.1987 165.227 37.2813 165.022 38.28C164.816 39.2787 164.714 40.2773 164.714 41.276C164.714 42.2653 164.816 43.264 165.022 44.272C165.227 45.2707 165.577 46.3627 166.072 47.548H165.134ZM175.716 39.806V44.426C175.324 44.6313 174.811 44.7993 174.176 44.93C173.541 45.0513 172.897 45.112 172.244 45.112C171.255 45.112 170.401 44.9113 169.682 44.51C168.963 44.0993 168.413 43.5113 168.03 42.746C167.657 41.9807 167.47 41.066 167.47 40.002C167.47 38.9473 167.657 38.042 168.03 37.286C168.413 36.5207 168.954 35.9373 169.654 35.536C170.363 35.1253 171.199 34.92 172.16 34.92C172.86 34.92 173.499 35.0273 174.078 35.242C174.666 35.4473 175.17 35.76 175.59 36.18L175.142 37.062C174.657 36.6513 174.181 36.3573 173.714 36.18C173.257 35.9933 172.739 35.9 172.16 35.9C171.031 35.9 170.163 36.2547 169.556 36.964C168.959 37.664 168.66 38.6767 168.66 40.002C168.66 41.3553 168.968 42.3867 169.584 43.096C170.2 43.796 171.096 44.146 172.272 44.146C173.103 44.146 173.901 44.0153 174.666 43.754V40.716H172.188V39.806H175.716ZM181.438 45.112C179.88 45.112 178.638 44.692 177.714 43.852L178.148 42.97C178.643 43.39 179.147 43.6887 179.66 43.866C180.174 44.0433 180.771 44.132 181.452 44.132C182.255 44.132 182.871 43.978 183.3 43.67C183.739 43.3527 183.958 42.9093 183.958 42.34C183.958 42.004 183.851 41.7333 183.636 41.528C183.431 41.3133 183.156 41.1453 182.81 41.024C182.474 40.9027 182.022 40.7767 181.452 40.646C180.687 40.478 180.057 40.296 179.562 40.1C179.068 39.904 178.666 39.624 178.358 39.26C178.05 38.8867 177.896 38.4013 177.896 37.804C177.896 37.2347 178.046 36.7353 178.344 36.306C178.643 35.8673 179.063 35.5267 179.604 35.284C180.155 35.0413 180.794 34.92 181.522 34.92C182.213 34.92 182.857 35.0273 183.454 35.242C184.052 35.4567 184.556 35.7693 184.966 36.18L184.518 37.062C184.052 36.6607 183.576 36.3667 183.09 36.18C182.614 35.9933 182.092 35.9 181.522 35.9C180.748 35.9 180.141 36.068 179.702 36.404C179.264 36.7307 179.044 37.1833 179.044 37.762C179.044 38.266 179.236 38.644 179.618 38.896C180.001 39.148 180.589 39.3673 181.382 39.554C182.241 39.7593 182.913 39.9507 183.398 40.128C183.893 40.296 184.304 40.5573 184.63 40.912C184.957 41.2573 185.12 41.7193 185.12 42.298C185.12 42.858 184.971 43.3527 184.672 43.782C184.374 44.202 183.944 44.5287 183.384 44.762C182.834 44.9953 182.185 45.112 181.438 45.112ZM196.619 35.032V45H195.555V37.594L192.321 45H191.509L188.247 37.65L188.261 45H187.197V35.032H188.149L191.929 43.628L195.667 35.032H196.619ZM205.536 35.032V35.886L200.86 45H199.628L204.276 35.998H198.956V35.032H205.536ZM207.088 47.548C207.583 46.3627 207.933 45.2707 208.138 44.272C208.344 43.264 208.446 42.2653 208.446 41.276C208.446 40.2773 208.344 39.2787 208.138 38.28C207.933 37.2813 207.583 36.1987 207.088 35.032H208.04C208.591 36.0773 208.992 37.1087 209.244 38.126C209.496 39.1433 209.622 40.1933 209.622 41.276C209.622 42.368 209.496 43.4227 209.244 44.44C208.992 45.448 208.586 46.484 208.026 47.548H207.088ZM111.232 60.032H115.208C116.235 60.032 117.033 60.2793 117.602 60.774C118.181 61.2687 118.47 61.95 118.47 62.818C118.47 63.686 118.181 64.372 117.602 64.876C117.023 65.3707 116.225 65.618 115.208 65.618H112.38V70H111.232V60.032ZM115.11 64.666C115.847 64.666 116.403 64.5073 116.776 64.19C117.149 63.8727 117.336 63.4153 117.336 62.818C117.336 62.2207 117.149 61.768 116.776 61.46C116.403 61.1427 115.847 60.984 115.11 60.984H112.38V64.666H115.11ZM126.394 62.958V70H125.274V68.726C125.069 69.1647 124.756 69.5053 124.336 69.748C123.926 69.9813 123.445 70.098 122.894 70.098C122.269 70.098 121.718 69.9487 121.242 69.65C120.776 69.3513 120.412 68.9313 120.15 68.39C119.898 67.8393 119.772 67.2 119.772 66.472C119.772 65.744 119.903 65.1047 120.164 64.554C120.426 63.994 120.79 63.56 121.256 63.252C121.732 62.944 122.278 62.79 122.894 62.79C123.445 62.79 123.926 62.9113 124.336 63.154C124.747 63.3967 125.06 63.7373 125.274 64.176V62.958H126.394ZM123.118 69.16C123.809 69.16 124.341 68.9267 124.714 68.46C125.088 67.984 125.274 67.312 125.274 66.444C125.274 65.576 125.088 64.9087 124.714 64.442C124.341 63.9753 123.809 63.742 123.118 63.742C122.428 63.742 121.886 63.9847 121.494 64.47C121.112 64.946 120.92 65.6133 120.92 66.472C120.92 67.3307 121.112 67.9933 121.494 68.46C121.877 68.9267 122.418 69.16 123.118 69.16ZM134.989 59.696V70H133.869V68.726C133.664 69.1647 133.351 69.5053 132.931 69.748C132.52 69.9813 132.04 70.098 131.489 70.098C130.873 70.098 130.327 69.944 129.851 69.636C129.384 69.328 129.02 68.8987 128.759 68.348C128.498 67.788 128.367 67.144 128.367 66.416C128.367 65.688 128.493 65.0533 128.745 64.512C129.006 63.9613 129.375 63.5367 129.851 63.238C130.327 62.9393 130.873 62.79 131.489 62.79C132.04 62.79 132.52 62.9113 132.931 63.154C133.342 63.3873 133.65 63.7187 133.855 64.148V59.696H134.989ZM131.713 69.16C132.404 69.16 132.936 68.9267 133.309 68.46C133.682 67.984 133.869 67.312 133.869 66.444C133.869 65.5853 133.682 64.9227 133.309 64.456C132.936 63.98 132.404 63.742 131.713 63.742C131.022 63.742 130.481 63.9753 130.089 64.442C129.706 64.9087 129.515 65.5667 129.515 66.416C129.515 67.284 129.706 67.9607 130.089 68.446C130.481 68.922 131.022 69.16 131.713 69.16ZM140.657 62.79C140.891 62.79 141.105 62.818 141.301 62.874L141.273 63.91C141.059 63.8353 140.811 63.798 140.531 63.798C139.85 63.798 139.341 64.0127 139.005 64.442C138.679 64.862 138.515 65.3753 138.515 65.982V70H137.381V64.932C137.381 64.204 137.344 63.546 137.269 62.958H138.347L138.459 64.26C138.637 63.784 138.921 63.42 139.313 63.168C139.705 62.916 140.153 62.79 140.657 62.79ZM148.719 62.958V70H147.599V68.726C147.394 69.1647 147.081 69.5053 146.661 69.748C146.25 69.9813 145.77 70.098 145.219 70.098C144.594 70.098 144.043 69.9487 143.567 69.65C143.1 69.3513 142.736 68.9313 142.475 68.39C142.223 67.8393 142.097 67.2 142.097 66.472C142.097 65.744 142.228 65.1047 142.489 64.554C142.75 63.994 143.114 63.56 143.581 63.252C144.057 62.944 144.603 62.79 145.219 62.79C145.77 62.79 146.25 62.9113 146.661 63.154C147.072 63.3967 147.384 63.7373 147.599 64.176V62.958H148.719ZM145.443 69.16C146.134 69.16 146.666 68.9267 147.039 68.46C147.412 67.984 147.599 67.312 147.599 66.444C147.599 65.576 147.412 64.9087 147.039 64.442C146.666 63.9753 146.134 63.742 145.443 63.742C144.752 63.742 144.211 63.9847 143.819 64.47C143.436 64.946 143.245 65.6133 143.245 66.472C143.245 67.3307 143.436 67.9933 143.819 68.46C144.202 68.9267 144.743 69.16 145.443 69.16ZM143.357 61.39C143.357 60.8767 143.469 60.48 143.693 60.2C143.926 59.92 144.234 59.78 144.617 59.78C144.813 59.78 145 59.822 145.177 59.906C145.354 59.9807 145.564 60.0927 145.807 60.242C146.003 60.3633 146.157 60.452 146.269 60.508C146.39 60.564 146.507 60.592 146.619 60.592C146.824 60.592 146.983 60.5173 147.095 60.368C147.216 60.2187 147.277 60.0367 147.277 59.822H147.907C147.907 60.3353 147.79 60.732 147.557 61.012C147.333 61.292 147.03 61.432 146.647 61.432C146.451 61.432 146.264 61.3947 146.087 61.32C145.91 61.236 145.7 61.1193 145.457 60.97C145.261 60.8487 145.102 60.76 144.981 60.704C144.869 60.648 144.757 60.62 144.645 60.62C144.44 60.62 144.276 60.6947 144.155 60.844C144.043 60.9933 143.987 61.1753 143.987 61.39H143.357ZM154.024 70.098C153.361 70.098 152.778 69.9487 152.274 69.65C151.77 69.3513 151.378 68.9267 151.098 68.376C150.827 67.8253 150.692 67.1813 150.692 66.444C150.692 65.7067 150.827 65.0627 151.098 64.512C151.378 63.9613 151.77 63.5367 152.274 63.238C152.778 62.9393 153.361 62.79 154.024 62.79C154.686 62.79 155.27 62.9393 155.774 63.238C156.278 63.5367 156.665 63.9613 156.936 64.512C157.216 65.0627 157.356 65.7067 157.356 66.444C157.356 67.1813 157.216 67.8253 156.936 68.376C156.665 68.9267 156.278 69.3513 155.774 69.65C155.27 69.9487 154.686 70.098 154.024 70.098ZM154.024 69.16C154.724 69.16 155.26 68.9313 155.634 68.474C156.007 68.0073 156.194 67.3307 156.194 66.444C156.194 65.5853 156.002 64.9227 155.62 64.456C155.237 63.98 154.705 63.742 154.024 63.742C153.333 63.742 152.796 63.98 152.414 64.456C152.031 64.9227 151.84 65.5853 151.84 66.444C151.84 67.3307 152.026 68.0073 152.4 68.474C152.782 68.9313 153.324 69.16 154.024 69.16ZM165.134 72.548C164.574 71.484 164.168 70.448 163.916 69.44C163.664 68.4227 163.538 67.368 163.538 66.276C163.538 65.1933 163.664 64.1433 163.916 63.126C164.177 62.1087 164.583 61.0773 165.134 60.032H166.086C165.582 61.1987 165.227 62.2813 165.022 63.28C164.816 64.2787 164.714 65.2773 164.714 66.276C164.714 67.2653 164.816 68.264 165.022 69.272C165.227 70.2707 165.577 71.3627 166.072 72.548H165.134ZM175.716 64.806V69.426C175.324 69.6313 174.811 69.7993 174.176 69.93C173.541 70.0513 172.897 70.112 172.244 70.112C171.255 70.112 170.401 69.9113 169.682 69.51C168.963 69.0993 168.413 68.5113 168.03 67.746C167.657 66.9807 167.47 66.066 167.47 65.002C167.47 63.9473 167.657 63.042 168.03 62.286C168.413 61.5207 168.954 60.9373 169.654 60.536C170.363 60.1253 171.199 59.92 172.16 59.92C172.86 59.92 173.499 60.0273 174.078 60.242C174.666 60.4473 175.17 60.76 175.59 61.18L175.142 62.062C174.657 61.6513 174.181 61.3573 173.714 61.18C173.257 60.9933 172.739 60.9 172.16 60.9C171.031 60.9 170.163 61.2547 169.556 61.964C168.959 62.664 168.66 63.6767 168.66 65.002C168.66 66.3553 168.968 67.3867 169.584 68.096C170.2 68.796 171.096 69.146 172.272 69.146C173.103 69.146 173.901 69.0153 174.666 68.754V65.716H172.188V64.806H175.716ZM181.438 70.112C179.88 70.112 178.638 69.692 177.714 68.852L178.148 67.97C178.643 68.39 179.147 68.6887 179.66 68.866C180.174 69.0433 180.771 69.132 181.452 69.132C182.255 69.132 182.871 68.978 183.3 68.67C183.739 68.3527 183.958 67.9093 183.958 67.34C183.958 67.004 183.851 66.7333 183.636 66.528C183.431 66.3133 183.156 66.1453 182.81 66.024C182.474 65.9027 182.022 65.7767 181.452 65.646C180.687 65.478 180.057 65.296 179.562 65.1C179.068 64.904 178.666 64.624 178.358 64.26C178.05 63.8867 177.896 63.4013 177.896 62.804C177.896 62.2347 178.046 61.7353 178.344 61.306C178.643 60.8673 179.063 60.5267 179.604 60.284C180.155 60.0413 180.794 59.92 181.522 59.92C182.213 59.92 182.857 60.0273 183.454 60.242C184.052 60.4567 184.556 60.7693 184.966 61.18L184.518 62.062C184.052 61.6607 183.576 61.3667 183.09 61.18C182.614 60.9933 182.092 60.9 181.522 60.9C180.748 60.9 180.141 61.068 179.702 61.404C179.264 61.7307 179.044 62.1833 179.044 62.762C179.044 63.266 179.236 63.644 179.618 63.896C180.001 64.148 180.589 64.3673 181.382 64.554C182.241 64.7593 182.913 64.9507 183.398 65.128C183.893 65.296 184.304 65.5573 184.63 65.912C184.957 66.2573 185.12 66.7193 185.12 67.298C185.12 67.858 184.971 68.3527 184.672 68.782C184.374 69.202 183.944 69.5287 183.384 69.762C182.834 69.9953 182.185 70.112 181.438 70.112ZM196.619 60.032V70H195.555V62.594L192.321 70H191.509L188.247 62.65L188.261 70H187.197V60.032H188.149L191.929 68.628L195.667 60.032H196.619ZM205.536 60.032V60.886L200.86 70H199.628L204.276 60.998H198.956V60.032H205.536ZM207.662 65.772H211.624V66.71H207.662V65.772ZM214.074 60.032H218.05C219.077 60.032 219.875 60.2793 220.444 60.774C221.023 61.2687 221.312 61.95 221.312 62.818C221.312 63.686 221.023 64.372 220.444 64.876C219.866 65.3707 219.068 65.618 218.05 65.618H215.222V70H214.074V60.032ZM217.952 64.666C218.69 64.666 219.245 64.5073 219.618 64.19C219.992 63.8727 220.178 63.4153 220.178 62.818C220.178 62.2207 219.992 61.768 219.618 61.46C219.245 61.1427 218.69 60.984 217.952 60.984H215.222V64.666H217.952ZM225.542 61.012H222.07V60.032H230.176V61.012H226.704V70H225.542V61.012ZM231.45 72.548C231.945 71.3627 232.295 70.2707 232.5 69.272C232.705 68.264 232.808 67.2653 232.808 66.276C232.808 65.2773 232.705 64.2787 232.5 63.28C232.295 62.2813 231.945 61.1987 231.45 60.032H232.402C232.953 61.0773 233.354 62.1087 233.606 63.126C233.858 64.1433 233.984 65.1933 233.984 66.276C233.984 67.368 233.858 68.4227 233.606 69.44C233.354 70.448 232.948 71.484 232.388 72.548H231.45ZM117.756 92.438H112.548L111.442 95H110.252L114.634 85.032H115.642L120.024 95H118.848L117.756 92.438ZM117.35 91.486L115.152 86.362L112.954 91.486H117.35ZM127.433 87.972L124.395 95H123.317L120.321 87.972H121.511L123.891 93.768L126.299 87.972H127.433ZM135.003 87.958V95H133.883V93.726C133.677 94.1647 133.365 94.5053 132.945 94.748C132.534 94.9813 132.053 95.098 131.503 95.098C130.877 95.098 130.327 94.9487 129.851 94.65C129.384 94.3513 129.02 93.9313 128.759 93.39C128.507 92.8393 128.381 92.2 128.381 91.472C128.381 90.744 128.511 90.1047 128.773 89.554C129.034 88.994 129.398 88.56 129.865 88.252C130.341 87.944 130.887 87.79 131.503 87.79C132.053 87.79 132.534 87.9113 132.945 88.154C133.355 88.3967 133.668 88.7373 133.883 89.176V87.958H135.003ZM131.727 94.16C132.417 94.16 132.949 93.9267 133.323 93.46C133.696 92.984 133.883 92.312 133.883 91.444C133.883 90.576 133.696 89.9087 133.323 89.442C132.949 88.9753 132.417 88.742 131.727 88.742C131.036 88.742 130.495 88.9847 130.103 89.47C129.72 89.946 129.529 90.6133 129.529 91.472C129.529 92.3307 129.72 92.9933 130.103 93.46C130.485 93.9267 131.027 94.16 131.727 94.16ZM140.909 87.79C142.598 87.79 143.443 88.7187 143.443 90.576V95H142.309V90.632C142.309 89.9787 142.178 89.5027 141.917 89.204C141.656 88.896 141.245 88.742 140.685 88.742C140.032 88.742 139.509 88.9427 139.117 89.344C138.725 89.7453 138.529 90.2867 138.529 90.968V95H137.395V89.932C137.395 89.204 137.358 88.546 137.283 87.958H138.361L138.473 89.218C138.688 88.7607 139.01 88.4107 139.439 88.168C139.868 87.916 140.358 87.79 140.909 87.79ZM151.273 94.188C150.993 94.4493 150.643 94.664 150.223 94.832C149.812 94.9907 149.383 95.0793 148.935 95.098L148.879 95.602C149.028 95.5833 149.14 95.574 149.215 95.574C149.513 95.574 149.765 95.658 149.971 95.826C150.185 95.994 150.293 96.2367 150.293 96.554C150.293 96.8993 150.148 97.1793 149.859 97.394C149.569 97.618 149.168 97.73 148.655 97.73C148.459 97.73 148.244 97.7067 148.011 97.66C147.777 97.6133 147.577 97.548 147.409 97.464L147.591 96.848C147.927 96.9787 148.281 97.044 148.655 97.044C148.907 97.044 149.098 97.002 149.229 96.918C149.369 96.834 149.439 96.7127 149.439 96.554C149.439 96.4327 149.397 96.3393 149.313 96.274C149.229 96.2087 149.107 96.176 148.949 96.176C148.734 96.176 148.519 96.218 148.305 96.302L148.025 96.078L148.137 95.056C147.278 94.9347 146.601 94.5567 146.107 93.922C145.612 93.278 145.365 92.4613 145.365 91.472C145.365 90.744 145.505 90.1047 145.785 89.554C146.065 88.994 146.461 88.56 146.975 88.252C147.497 87.944 148.104 87.79 148.795 87.79C149.271 87.79 149.728 87.874 150.167 88.042C150.615 88.2007 150.983 88.4247 151.273 88.714L150.895 89.554C150.54 89.274 150.195 89.0687 149.859 88.938C149.532 88.8073 149.196 88.742 148.851 88.742C148.132 88.742 147.567 88.9847 147.157 89.47C146.746 89.946 146.541 90.6133 146.541 91.472C146.541 92.3213 146.741 92.984 147.143 93.46C147.553 93.9267 148.123 94.16 148.851 94.16C149.196 94.16 149.532 94.0947 149.859 93.964C150.195 93.8333 150.54 93.628 150.895 93.348L151.273 94.188ZM159.118 87.958V95H157.998V93.726C157.793 94.1647 157.48 94.5053 157.06 94.748C156.65 94.9813 156.169 95.098 155.618 95.098C154.993 95.098 154.442 94.9487 153.966 94.65C153.5 94.3513 153.136 93.9313 152.874 93.39C152.622 92.8393 152.496 92.2 152.496 91.472C152.496 90.744 152.627 90.1047 152.888 89.554C153.15 88.994 153.514 88.56 153.98 88.252C154.456 87.944 155.002 87.79 155.618 87.79C156.169 87.79 156.65 87.9113 157.06 88.154C157.471 88.3967 157.784 88.7373 157.998 89.176V87.958H159.118ZM155.842 94.16C156.533 94.16 157.065 93.9267 157.438 93.46C157.812 92.984 157.998 92.312 157.998 91.444C157.998 90.576 157.812 89.9087 157.438 89.442C157.065 88.9753 156.533 88.742 155.842 88.742C155.152 88.742 154.61 88.9847 154.218 89.47C153.836 89.946 153.644 90.6133 153.644 91.472C153.644 92.3307 153.836 92.9933 154.218 93.46C154.601 93.9267 155.142 94.16 155.842 94.16ZM167.713 84.696V95H166.593V93.726C166.387 94.1647 166.075 94.5053 165.655 94.748C165.244 94.9813 164.763 95.098 164.213 95.098C163.597 95.098 163.051 94.944 162.575 94.636C162.108 94.328 161.744 93.8987 161.483 93.348C161.221 92.788 161.091 92.144 161.091 91.416C161.091 90.688 161.217 90.0533 161.469 89.512C161.73 88.9613 162.099 88.5367 162.575 88.238C163.051 87.9393 163.597 87.79 164.213 87.79C164.763 87.79 165.244 87.9113 165.655 88.154C166.065 88.3873 166.373 88.7187 166.579 89.148V84.696H167.713ZM164.437 94.16C165.127 94.16 165.659 93.9267 166.033 93.46C166.406 92.984 166.593 92.312 166.593 91.444C166.593 90.5853 166.406 89.9227 166.033 89.456C165.659 88.98 165.127 88.742 164.437 88.742C163.746 88.742 163.205 88.9753 162.813 89.442C162.43 89.9087 162.239 90.5667 162.239 91.416C162.239 92.284 162.43 92.9607 162.813 93.446C163.205 93.922 163.746 94.16 164.437 94.16ZM173.017 95.098C172.355 95.098 171.771 94.9487 171.267 94.65C170.763 94.3513 170.371 93.9267 170.091 93.376C169.821 92.8253 169.685 92.1813 169.685 91.444C169.685 90.7067 169.821 90.0627 170.091 89.512C170.371 88.9613 170.763 88.5367 171.267 88.238C171.771 87.9393 172.355 87.79 173.017 87.79C173.68 87.79 174.263 87.9393 174.767 88.238C175.271 88.5367 175.659 88.9613 175.929 89.512C176.209 90.0627 176.349 90.7067 176.349 91.444C176.349 92.1813 176.209 92.8253 175.929 93.376C175.659 93.9267 175.271 94.3513 174.767 94.65C174.263 94.9487 173.68 95.098 173.017 95.098ZM173.017 94.16C173.717 94.16 174.254 93.9313 174.627 93.474C175.001 93.0073 175.187 92.3307 175.187 91.444C175.187 90.5853 174.996 89.9227 174.613 89.456C174.231 88.98 173.699 88.742 173.017 88.742C172.327 88.742 171.79 88.98 171.407 89.456C171.025 89.9227 170.833 90.5853 170.833 91.444C170.833 92.3307 171.02 93.0073 171.393 93.474C171.776 93.9313 172.317 94.16 173.017 94.16ZM184.127 97.548C183.567 96.484 183.161 95.448 182.909 94.44C182.657 93.4227 182.531 92.368 182.531 91.276C182.531 90.1933 182.657 89.1433 182.909 88.126C183.171 87.1087 183.577 86.0773 184.127 85.032H185.079C184.575 86.1987 184.221 87.2813 184.015 88.28C183.81 89.2787 183.707 90.2773 183.707 91.276C183.707 92.2653 183.81 93.264 184.015 94.272C184.221 95.2707 184.571 96.3627 185.065 97.548H184.127ZM190.843 95.112C189.536 95.112 188.547 94.776 187.875 94.104C187.212 93.4227 186.881 92.4193 186.881 91.094V85.032H188.015V91.192C188.015 92.1627 188.253 92.8953 188.729 93.39C189.205 93.8847 189.909 94.132 190.843 94.132C191.767 94.132 192.462 93.8847 192.929 93.39C193.405 92.8953 193.643 92.1627 193.643 91.192V85.032H194.791V91.094C194.791 92.41 194.455 93.4087 193.783 94.09C193.111 94.7713 192.131 95.112 190.843 95.112ZM199.799 86.012H196.327V85.032H204.433V86.012H200.961V95H199.799V86.012ZM206.027 85.032H212.187V85.998H207.161V89.456H211.907V90.422H207.161V95H206.027V85.032ZM213.823 90.772H217.785V91.71H213.823V90.772ZM226.353 94.034V95H220.795V94.034H222.993V86.46L220.949 87.762V86.656L223.497 85.032H224.155V94.034H226.353ZM232.218 88.742C232.824 88.742 233.361 88.8773 233.828 89.148C234.304 89.4093 234.672 89.7827 234.934 90.268C235.195 90.744 235.326 91.29 235.326 91.906C235.326 92.522 235.186 93.0727 234.906 93.558C234.635 94.0433 234.257 94.426 233.772 94.706C233.286 94.9767 232.736 95.112 232.12 95.112C230.916 95.112 229.987 94.692 229.334 93.852C228.68 93.012 228.354 91.8173 228.354 90.268C228.354 89.148 228.503 88.1867 228.802 87.384C229.11 86.5813 229.548 85.97 230.118 85.55C230.696 85.13 231.387 84.92 232.19 84.92C232.768 84.92 233.328 85.0273 233.87 85.242C234.42 85.4567 234.901 85.76 235.312 86.152L234.878 87.034C234.411 86.642 233.963 86.3527 233.534 86.166C233.104 85.9793 232.666 85.886 232.218 85.886C231.359 85.886 230.692 86.2687 230.216 87.034C229.74 87.7993 229.502 88.8727 229.502 90.254V90.464C229.716 89.932 230.066 89.512 230.552 89.204C231.037 88.896 231.592 88.742 232.218 88.742ZM232.064 94.146C232.698 94.146 233.212 93.9453 233.604 93.544C233.996 93.1333 234.192 92.592 234.192 91.92C234.192 91.2573 233.991 90.7253 233.59 90.324C233.198 89.9133 232.684 89.708 232.05 89.708C231.396 89.708 230.864 89.9133 230.454 90.324C230.043 90.7347 229.838 91.2667 229.838 91.92C229.838 92.5827 230.043 93.1193 230.454 93.53C230.864 93.9407 231.401 94.146 232.064 94.146Z" fill="white"/>
<path d="M236.64 97.548C237.135 96.3627 237.485 95.2707 237.69 94.272C237.896 93.264 237.998 92.2653 237.998 91.276C237.998 90.2773 237.896 89.2787 237.69 88.28C237.485 87.2813 237.135 86.1987 236.64 85.032H237.592C238.143 86.0773 238.544 87.1087 238.796 88.126C239.048 89.1433 239.174 90.1933 239.174 91.276C239.174 92.368 239.048 93.4227 238.796 94.44C238.544 95.448 238.138 96.484 237.578 97.548H236.64Z" fill="black"/>
<path d="M111.232 9.032H115.208C116.235 9.032 117.033 9.27933 117.602 9.774C118.181 10.2687 118.47 10.95 118.47 11.818C118.47 12.686 118.181 13.372 117.602 13.876C117.023 14.3707 116.225 14.618 115.208 14.618H112.38V19H111.232V9.032ZM115.11 13.666C115.847 13.666 116.403 13.5073 116.776 13.19C117.149 12.8727 117.336 12.4153 117.336 11.818C117.336 11.2207 117.149 10.768 116.776 10.46C116.403 10.1427 115.847 9.984 115.11 9.984H112.38V13.666H115.11ZM126.394 11.958V19H125.274V17.726C125.069 18.1647 124.756 18.5053 124.336 18.748C123.926 18.9813 123.445 19.098 122.894 19.098C122.269 19.098 121.718 18.9487 121.242 18.65C120.776 18.3513 120.412 17.9313 120.15 17.39C119.898 16.8393 119.772 16.2 119.772 15.472C119.772 14.744 119.903 14.1047 120.164 13.554C120.426 12.994 120.79 12.56 121.256 12.252C121.732 11.944 122.278 11.79 122.894 11.79C123.445 11.79 123.926 11.9113 124.336 12.154C124.747 12.3967 125.06 12.7373 125.274 13.176V11.958H126.394ZM123.118 18.16C123.809 18.16 124.341 17.9267 124.714 17.46C125.088 16.984 125.274 16.312 125.274 15.444C125.274 14.576 125.088 13.9087 124.714 13.442C124.341 12.9753 123.809 12.742 123.118 12.742C122.428 12.742 121.886 12.9847 121.494 13.47C121.112 13.946 120.92 14.6133 120.92 15.472C120.92 16.3307 121.112 16.9933 121.494 17.46C121.877 17.9267 122.418 18.16 123.118 18.16ZM134.989 8.696V19H133.869V17.726C133.664 18.1647 133.351 18.5053 132.931 18.748C132.52 18.9813 132.04 19.098 131.489 19.098C130.873 19.098 130.327 18.944 129.851 18.636C129.384 18.328 129.02 17.8987 128.759 17.348C128.498 16.788 128.367 16.144 128.367 15.416C128.367 14.688 128.493 14.0533 128.745 13.512C129.006 12.9613 129.375 12.5367 129.851 12.238C130.327 11.9393 130.873 11.79 131.489 11.79C132.04 11.79 132.52 11.9113 132.931 12.154C133.342 12.3873 133.65 12.7187 133.855 13.148V8.696H134.989ZM131.713 18.16C132.404 18.16 132.936 17.9267 133.309 17.46C133.682 16.984 133.869 16.312 133.869 15.444C133.869 14.5853 133.682 13.9227 133.309 13.456C132.936 12.98 132.404 12.742 131.713 12.742C131.022 12.742 130.481 12.9753 130.089 13.442C129.706 13.9087 129.515 14.5667 129.515 15.416C129.515 16.284 129.706 16.9607 130.089 17.446C130.481 17.922 131.022 18.16 131.713 18.16ZM140.657 11.79C140.891 11.79 141.105 11.818 141.301 11.874L141.273 12.91C141.059 12.8353 140.811 12.798 140.531 12.798C139.85 12.798 139.341 13.0127 139.005 13.442C138.679 13.862 138.515 14.3753 138.515 14.982V19H137.381V13.932C137.381 13.204 137.344 12.546 137.269 11.958H138.347L138.459 13.26C138.637 12.784 138.921 12.42 139.313 12.168C139.705 11.916 140.153 11.79 140.657 11.79ZM148.719 11.958V19H147.599V17.726C147.394 18.1647 147.081 18.5053 146.661 18.748C146.25 18.9813 145.77 19.098 145.219 19.098C144.594 19.098 144.043 18.9487 143.567 18.65C143.1 18.3513 142.736 17.9313 142.475 17.39C142.223 16.8393 142.097 16.2 142.097 15.472C142.097 14.744 142.228 14.1047 142.489 13.554C142.75 12.994 143.114 12.56 143.581 12.252C144.057 11.944 144.603 11.79 145.219 11.79C145.77 11.79 146.25 11.9113 146.661 12.154C147.072 12.3967 147.384 12.7373 147.599 13.176V11.958H148.719ZM145.443 18.16C146.134 18.16 146.666 17.9267 147.039 17.46C147.412 16.984 147.599 16.312 147.599 15.444C147.599 14.576 147.412 13.9087 147.039 13.442C146.666 12.9753 146.134 12.742 145.443 12.742C144.752 12.742 144.211 12.9847 143.819 13.47C143.436 13.946 143.245 14.6133 143.245 15.472C143.245 16.3307 143.436 16.9933 143.819 17.46C144.202 17.9267 144.743 18.16 145.443 18.16ZM143.357 10.39C143.357 9.87667 143.469 9.48 143.693 9.2C143.926 8.92 144.234 8.78 144.617 8.78C144.813 8.78 145 8.822 145.177 8.906C145.354 8.98067 145.564 9.09267 145.807 9.242C146.003 9.36333 146.157 9.452 146.269 9.508C146.39 9.564 146.507 9.592 146.619 9.592C146.824 9.592 146.983 9.51733 147.095 9.368C147.216 9.21867 147.277 9.03667 147.277 8.822H147.907C147.907 9.33533 147.79 9.732 147.557 10.012C147.333 10.292 147.03 10.432 146.647 10.432C146.451 10.432 146.264 10.3947 146.087 10.32C145.91 10.236 145.7 10.1193 145.457 9.97C145.261 9.84867 145.102 9.76 144.981 9.704C144.869 9.648 144.757 9.62 144.645 9.62C144.44 9.62 144.276 9.69467 144.155 9.844C144.043 9.99333 143.987 10.1753 143.987 10.39H143.357ZM154.024 19.098C153.361 19.098 152.778 18.9487 152.274 18.65C151.77 18.3513 151.378 17.9267 151.098 17.376C150.827 16.8253 150.692 16.1813 150.692 15.444C150.692 14.7067 150.827 14.0627 151.098 13.512C151.378 12.9613 151.77 12.5367 152.274 12.238C152.778 11.9393 153.361 11.79 154.024 11.79C154.686 11.79 155.27 11.9393 155.774 12.238C156.278 12.5367 156.665 12.9613 156.936 13.512C157.216 14.0627 157.356 14.7067 157.356 15.444C157.356 16.1813 157.216 16.8253 156.936 17.376C156.665 17.9267 156.278 18.3513 155.774 18.65C155.27 18.9487 154.686 19.098 154.024 19.098ZM154.024 18.16C154.724 18.16 155.26 17.9313 155.634 17.474C156.007 17.0073 156.194 16.3307 156.194 15.444C156.194 14.5853 156.002 13.9227 155.62 13.456C155.237 12.98 154.705 12.742 154.024 12.742C153.333 12.742 152.796 12.98 152.414 13.456C152.031 13.9227 151.84 14.5853 151.84 15.444C151.84 16.3307 152.026 17.0073 152.4 17.474C152.782 17.9313 153.324 18.16 154.024 18.16ZM165.134 21.548C164.574 20.484 164.168 19.448 163.916 18.44C163.664 17.4227 163.538 16.368 163.538 15.276C163.538 14.1933 163.664 13.1433 163.916 12.126C164.177 11.1087 164.583 10.0773 165.134 9.032H166.086C165.582 10.1987 165.227 11.2813 165.022 12.28C164.816 13.2787 164.714 14.2773 164.714 15.276C164.714 16.2653 164.816 17.264 165.022 18.272C165.227 19.2707 165.577 20.3627 166.072 21.548H165.134ZM175.716 13.806V18.426C175.324 18.6313 174.811 18.7993 174.176 18.93C173.541 19.0513 172.897 19.112 172.244 19.112C171.255 19.112 170.401 18.9113 169.682 18.51C168.963 18.0993 168.413 17.5113 168.03 16.746C167.657 15.9807 167.47 15.066 167.47 14.002C167.47 12.9473 167.657 12.042 168.03 11.286C168.413 10.5207 168.954 9.93733 169.654 9.536C170.363 9.12533 171.199 8.92 172.16 8.92C172.86 8.92 173.499 9.02733 174.078 9.242C174.666 9.44733 175.17 9.76 175.59 10.18L175.142 11.062C174.657 10.6513 174.181 10.3573 173.714 10.18C173.257 9.99333 172.739 9.9 172.16 9.9C171.031 9.9 170.163 10.2547 169.556 10.964C168.959 11.664 168.66 12.6767 168.66 14.002C168.66 15.3553 168.968 16.3867 169.584 17.096C170.2 17.796 171.096 18.146 172.272 18.146C173.103 18.146 173.901 18.0153 174.666 17.754V14.716H172.188V13.806H175.716ZM181.438 19.112C179.88 19.112 178.638 18.692 177.714 17.852L178.148 16.97C178.643 17.39 179.147 17.6887 179.66 17.866C180.174 18.0433 180.771 18.132 181.452 18.132C182.255 18.132 182.871 17.978 183.3 17.67C183.739 17.3527 183.958 16.9093 183.958 16.34C183.958 16.004 183.851 15.7333 183.636 15.528C183.431 15.3133 183.156 15.1453 182.81 15.024C182.474 14.9027 182.022 14.7767 181.452 14.646C180.687 14.478 180.057 14.296 179.562 14.1C179.068 13.904 178.666 13.624 178.358 13.26C178.05 12.8867 177.896 12.4013 177.896 11.804C177.896 11.2347 178.046 10.7353 178.344 10.306C178.643 9.86733 179.063 9.52667 179.604 9.284C180.155 9.04133 180.794 8.92 181.522 8.92C182.213 8.92 182.857 9.02733 183.454 9.242C184.052 9.45667 184.556 9.76933 184.966 10.18L184.518 11.062C184.052 10.6607 183.576 10.3667 183.09 10.18C182.614 9.99333 182.092 9.9 181.522 9.9C180.748 9.9 180.141 10.068 179.702 10.404C179.264 10.7307 179.044 11.1833 179.044 11.762C179.044 12.266 179.236 12.644 179.618 12.896C180.001 13.148 180.589 13.3673 181.382 13.554C182.241 13.7593 182.913 13.9507 183.398 14.128C183.893 14.296 184.304 14.5573 184.63 14.912C184.957 15.2573 185.12 15.7193 185.12 16.298C185.12 16.858 184.971 17.3527 184.672 17.782C184.374 18.202 183.944 18.5287 183.384 18.762C182.834 18.9953 182.185 19.112 181.438 19.112ZM196.619 9.032V19H195.555V11.594L192.321 19H191.509L188.247 11.65L188.261 19H187.197V9.032H188.149L191.929 17.628L195.667 9.032H196.619ZM205.536 9.032V9.886L200.86 19H199.628L204.276 9.998H198.956V9.032H205.536ZM207.088 21.548C207.583 20.3627 207.933 19.2707 208.138 18.272C208.344 17.264 208.446 16.2653 208.446 15.276C208.446 14.2773 208.344 13.2787 208.138 12.28C207.933 11.2813 207.583 10.1987 207.088 9.032H208.04C208.591 10.0773 208.992 11.1087 209.244 12.126C209.496 13.1433 209.622 14.1933 209.622 15.276C209.622 16.368 209.496 17.4227 209.244 18.44C208.992 19.448 208.586 20.484 208.026 21.548H207.088Z" fill="white"/>
<defs>
<filter id="filter0_d_0_1" x="91" y="24" width="448" height="104" filterUnits="userSpaceOnUse" color-interpolation-filters="sRGB">
<feFlood flood-opacity="0" result="BackgroundImageFix"/>
<feColorMatrix in="SourceAlpha" type="matrix" values="0 0 0 0 0 0 0 0 0 0 0 0 0 0 0 0 0 0 127 0" result="hardAlpha"/>
<feOffset dy="9"/>
<feGaussianBlur stdDeviation="5.5"/>
<feColorMatrix type="matrix" values="0 0 0 0 0 0 0 0 0 0 0 0 0 0 0 0 0 0 0.1 0"/>
<feBlend mode="normal" in2="BackgroundImageFix" result="effect1_dropShadow_0_1"/>
<feBlend mode="normal" in="SourceGraphic" in2="effect1_dropShadow_0_1" result="shape"/>
</filter>
</defs>
</svg>
