<svg width="308" height="128" viewBox="0 0 308 128" fill="none" xmlns="http://www.w3.org/2000/svg">
<rect x="11.5" y="0.5" width="285" height="27" fill="#141415" stroke="#313131"/>
<g filter="url(#filter0_d_0_1)">
<rect x="11" y="26" width="286" height="82" fill="#141415"/>
<rect x="11.5" y="26.5" width="285" height="81" stroke="#313131"/>
</g>
<rect x="12" y="27" width="284" height="27" fill="#1E90FF"/>
<path d="M20.232 35.032H24.208C25.2347 35.032 26.0327 35.2793 26.602 35.774C27.1807 36.2687 27.47 36.95 27.47 37.818C27.47 38.686 27.1807 39.372 26.602 39.876C26.0233 40.3707 25.2253 40.618 24.208 40.618H21.38V45H20.232V35.032ZM24.11 39.666C24.8473 39.666 25.4027 39.5073 25.776 39.19C26.1493 38.8727 26.336 38.4153 26.336 37.818C26.336 37.2207 26.1493 36.768 25.776 36.46C25.4027 36.1427 24.8473 35.984 24.11 35.984H21.38V39.666H24.11ZM35.3944 37.958V45H34.2744V43.726C34.0691 44.1647 33.7564 44.5053 33.3364 44.748C32.9257 44.9813 32.4451 45.098 31.8944 45.098C31.2691 45.098 30.7184 44.9487 30.2424 44.65C29.7757 44.3513 29.4117 43.9313 29.1504 43.39C28.8984 42.8393 28.7724 42.2 28.7724 41.472C28.7724 40.744 28.9031 40.1047 29.1644 39.554C29.4257 38.994 29.7897 38.56 30.2564 38.252C30.7324 37.944 31.2784 37.79 31.8944 37.79C32.4451 37.79 32.9257 37.9113 33.3364 38.154C33.7471 38.3967 34.0597 38.7373 34.2744 39.176V37.958H35.3944ZM32.1184 44.16C32.8091 44.16 33.3411 43.9267 33.7144 43.46C34.0877 42.984 34.2744 42.312 34.2744 41.444C34.2744 40.576 34.0877 39.9087 33.7144 39.442C33.3411 38.9753 32.8091 38.742 32.1184 38.742C31.4277 38.742 30.8864 38.9847 30.4944 39.47C30.1117 39.946 29.9204 40.6133 29.9204 41.472C29.9204 42.3307 30.1117 42.9933 30.4944 43.46C30.8771 43.9267 31.4184 44.16 32.1184 44.16ZM43.9889 34.696V45H42.8689V43.726C42.6636 44.1647 42.3509 44.5053 41.9309 44.748C41.5203 44.9813 41.0396 45.098 40.4889 45.098C39.8729 45.098 39.3269 44.944 38.8509 44.636C38.3843 44.328 38.0203 43.8987 37.7589 43.348C37.4976 42.788 37.3669 42.144 37.3669 41.416C37.3669 40.688 37.4929 40.0533 37.7449 39.512C38.0063 38.9613 38.3749 38.5367 38.8509 38.238C39.3269 37.9393 39.8729 37.79 40.4889 37.79C41.0396 37.79 41.5203 37.9113 41.9309 38.154C42.3416 38.3873 42.6496 38.7187 42.8549 39.148V34.696H43.9889ZM40.7129 44.16C41.4036 44.16 41.9356 43.9267 42.3089 43.46C42.6823 42.984 42.8689 42.312 42.8689 41.444C42.8689 40.5853 42.6823 39.9227 42.3089 39.456C41.9356 38.98 41.4036 38.742 40.7129 38.742C40.0223 38.742 39.4809 38.9753 39.0889 39.442C38.7063 39.9087 38.5149 40.5667 38.5149 41.416C38.5149 42.284 38.7063 42.9607 39.0889 43.446C39.4809 43.922 40.0223 44.16 40.7129 44.16ZM49.6575 37.79C49.8908 37.79 50.1055 37.818 50.3015 37.874L50.2735 38.91C50.0588 38.8353 49.8115 38.798 49.5315 38.798C48.8501 38.798 48.3415 39.0127 48.0055 39.442C47.6788 39.862 47.5155 40.3753 47.5155 40.982V45H46.3815V39.932C46.3815 39.204 46.3441 38.546 46.2695 37.958H47.3475L47.4595 39.26C47.6368 38.784 47.9215 38.42 48.3135 38.168C48.7055 37.916 49.1535 37.79 49.6575 37.79ZM57.719 37.958V45H56.599V43.726C56.3937 44.1647 56.081 44.5053 55.661 44.748C55.2503 44.9813 54.7697 45.098 54.219 45.098C53.5937 45.098 53.043 44.9487 52.567 44.65C52.1003 44.3513 51.7363 43.9313 51.475 43.39C51.223 42.8393 51.097 42.2 51.097 41.472C51.097 40.744 51.2277 40.1047 51.489 39.554C51.7503 38.994 52.1143 38.56 52.581 38.252C53.057 37.944 53.603 37.79 54.219 37.79C54.7697 37.79 55.2503 37.9113 55.661 38.154C56.0717 38.3967 56.3843 38.7373 56.599 39.176V37.958H57.719ZM54.443 44.16C55.1337 44.16 55.6657 43.9267 56.039 43.46C56.4123 42.984 56.599 42.312 56.599 41.444C56.599 40.576 56.4123 39.9087 56.039 39.442C55.6657 38.9753 55.1337 38.742 54.443 38.742C53.7523 38.742 53.211 38.9847 52.819 39.47C52.4363 39.946 52.245 40.6133 52.245 41.472C52.245 42.3307 52.4363 42.9933 52.819 43.46C53.2017 43.9267 53.743 44.16 54.443 44.16ZM52.357 36.39C52.357 35.8767 52.469 35.48 52.693 35.2C52.9263 34.92 53.2343 34.78 53.617 34.78C53.813 34.78 53.9997 34.822 54.177 34.906C54.3543 34.9807 54.5643 35.0927 54.807 35.242C55.003 35.3633 55.157 35.452 55.269 35.508C55.3903 35.564 55.507 35.592 55.619 35.592C55.8243 35.592 55.983 35.5173 56.095 35.368C56.2163 35.2187 56.277 35.0367 56.277 34.822H56.907C56.907 35.3353 56.7903 35.732 56.557 36.012C56.333 36.292 56.0297 36.432 55.647 36.432C55.451 36.432 55.2643 36.3947 55.087 36.32C54.9097 36.236 54.6997 36.1193 54.457 35.97C54.261 35.8487 54.1023 35.76 53.981 35.704C53.869 35.648 53.757 35.62 53.645 35.62C53.4397 35.62 53.2763 35.6947 53.155 35.844C53.043 35.9933 52.987 36.1753 52.987 36.39H52.357ZM63.0235 45.098C62.3609 45.098 61.7775 44.9487 61.2735 44.65C60.7695 44.3513 60.3775 43.9267 60.0975 43.376C59.8269 42.8253 59.6915 42.1813 59.6915 41.444C59.6915 40.7067 59.8269 40.0627 60.0975 39.512C60.3775 38.9613 60.7695 38.5367 61.2735 38.238C61.7775 37.9393 62.3609 37.79 63.0235 37.79C63.6862 37.79 64.2695 37.9393 64.7735 38.238C65.2775 38.5367 65.6649 38.9613 65.9355 39.512C66.2155 40.0627 66.3555 40.7067 66.3555 41.444C66.3555 42.1813 66.2155 42.8253 65.9355 43.376C65.6649 43.9267 65.2775 44.3513 64.7735 44.65C64.2695 44.9487 63.6862 45.098 63.0235 45.098ZM63.0235 44.16C63.7235 44.16 64.2602 43.9313 64.6335 43.474C65.0069 43.0073 65.1935 42.3307 65.1935 41.444C65.1935 40.5853 65.0022 39.9227 64.6195 39.456C64.2369 38.98 63.7049 38.742 63.0235 38.742C62.3329 38.742 61.7962 38.98 61.4135 39.456C61.0309 39.9227 60.8395 40.5853 60.8395 41.444C60.8395 42.3307 61.0262 43.0073 61.3995 43.474C61.7822 43.9313 62.3235 44.16 63.0235 44.16ZM74.1336 47.548C73.5736 46.484 73.1676 45.448 72.9156 44.44C72.6636 43.4227 72.5376 42.368 72.5376 41.276C72.5376 40.1933 72.6636 39.1433 72.9156 38.126C73.177 37.1087 73.583 36.0773 74.1336 35.032H75.0856C74.5816 36.1987 74.227 37.2813 74.0216 38.28C73.8163 39.2787 73.7136 40.2773 73.7136 41.276C73.7136 42.2653 73.8163 43.264 74.0216 44.272C74.227 45.2707 74.577 46.3627 75.0716 47.548H74.1336ZM84.716 39.806V44.426C84.324 44.6313 83.8106 44.7993 83.176 44.93C82.5413 45.0513 81.8973 45.112 81.244 45.112C80.2546 45.112 79.4006 44.9113 78.682 44.51C77.9633 44.0993 77.4126 43.5113 77.03 42.746C76.6566 41.9807 76.47 41.066 76.47 40.002C76.47 38.9473 76.6566 38.042 77.03 37.286C77.4126 36.5207 77.954 35.9373 78.654 35.536C79.3633 35.1253 80.1986 34.92 81.16 34.92C81.86 34.92 82.4993 35.0273 83.078 35.242C83.666 35.4473 84.17 35.76 84.59 36.18L84.142 37.062C83.6566 36.6513 83.1806 36.3573 82.714 36.18C82.2566 35.9933 81.7386 35.9 81.16 35.9C80.0306 35.9 79.1626 36.2547 78.556 36.964C77.9586 37.664 77.66 38.6767 77.66 40.002C77.66 41.3553 77.968 42.3867 78.584 43.096C79.2 43.796 80.096 44.146 81.272 44.146C82.1026 44.146 82.9006 44.0153 83.666 43.754V40.716H81.188V39.806H84.716ZM90.4382 45.112C88.8795 45.112 87.6382 44.692 86.7142 43.852L87.1482 42.97C87.6429 43.39 88.1469 43.6887 88.6602 43.866C89.1735 44.0433 89.7709 44.132 90.4522 44.132C91.2549 44.132 91.8709 43.978 92.3002 43.67C92.7389 43.3527 92.9582 42.9093 92.9582 42.34C92.9582 42.004 92.8509 41.7333 92.6362 41.528C92.4309 41.3133 92.1555 41.1453 91.8102 41.024C91.4742 40.9027 91.0215 40.7767 90.4522 40.646C89.6869 40.478 89.0569 40.296 88.5622 40.1C88.0675 39.904 87.6662 39.624 87.3582 39.26C87.0502 38.8867 86.8962 38.4013 86.8962 37.804C86.8962 37.2347 87.0455 36.7353 87.3442 36.306C87.6429 35.8673 88.0629 35.5267 88.6042 35.284C89.1549 35.0413 89.7942 34.92 90.5222 34.92C91.2129 34.92 91.8569 35.0273 92.4542 35.242C93.0515 35.4567 93.5555 35.7693 93.9662 36.18L93.5182 37.062C93.0515 36.6607 92.5755 36.3667 92.0902 36.18C91.6142 35.9933 91.0915 35.9 90.5222 35.9C89.7475 35.9 89.1409 36.068 88.7022 36.404C88.2635 36.7307 88.0442 37.1833 88.0442 37.762C88.0442 38.266 88.2355 38.644 88.6182 38.896C89.0009 39.148 89.5889 39.3673 90.3822 39.554C91.2409 39.7593 91.9129 39.9507 92.3982 40.128C92.8929 40.296 93.3035 40.5573 93.6302 40.912C93.9569 41.2573 94.1202 41.7193 94.1202 42.298C94.1202 42.858 93.9709 43.3527 93.6722 43.782C93.3735 44.202 92.9442 44.5287 92.3842 44.762C91.8335 44.9953 91.1849 45.112 90.4382 45.112ZM105.619 35.032V45H104.555V37.594L101.321 45H100.509L97.2468 37.65L97.2608 45H96.1968V35.032H97.1488L100.929 43.628L104.667 35.032H105.619ZM114.536 35.032V35.886L109.86 45H108.628L113.276 35.998H107.956V35.032H114.536ZM116.088 47.548C116.583 46.3627 116.933 45.2707 117.138 44.272C117.344 43.264 117.446 42.2653 117.446 41.276C117.446 40.2773 117.344 39.2787 117.138 38.28C116.933 37.2813 116.583 36.1987 116.088 35.032H117.04C117.591 36.0773 117.992 37.1087 118.244 38.126C118.496 39.1433 118.622 40.1933 118.622 41.276C118.622 42.368 118.496 43.4227 118.244 44.44C117.992 45.448 117.586 46.484 117.026 47.548H116.088ZM20.232 60.032H24.208C25.2347 60.032 26.0327 60.2793 26.602 60.774C27.1807 61.2687 27.47 61.95 27.47 62.818C27.47 63.686 27.1807 64.372 26.602 64.876C26.0233 65.3707 25.2253 65.618 24.208 65.618H21.38V70H20.232V60.032ZM24.11 64.666C24.8473 64.666 25.4027 64.5073 25.776 64.19C26.1493 63.8727 26.336 63.4153 26.336 62.818C26.336 62.2207 26.1493 61.768 25.776 61.46C25.4027 61.1427 24.8473 60.984 24.11 60.984H21.38V64.666H24.11ZM35.3944 62.958V70H34.2744V68.726C34.0691 69.1647 33.7564 69.5053 33.3364 69.748C32.9257 69.9813 32.4451 70.098 31.8944 70.098C31.2691 70.098 30.7184 69.9487 30.2424 69.65C29.7757 69.3513 29.4117 68.9313 29.1504 68.39C28.8984 67.8393 28.7724 67.2 28.7724 66.472C28.7724 65.744 28.9031 65.1047 29.1644 64.554C29.4257 63.994 29.7897 63.56 30.2564 63.252C30.7324 62.944 31.2784 62.79 31.8944 62.79C32.4451 62.79 32.9257 62.9113 33.3364 63.154C33.7471 63.3967 34.0597 63.7373 34.2744 64.176V62.958H35.3944ZM32.1184 69.16C32.8091 69.16 33.3411 68.9267 33.7144 68.46C34.0877 67.984 34.2744 67.312 34.2744 66.444C34.2744 65.576 34.0877 64.9087 33.7144 64.442C33.3411 63.9753 32.8091 63.742 32.1184 63.742C31.4277 63.742 30.8864 63.9847 30.4944 64.47C30.1117 64.946 29.9204 65.6133 29.9204 66.472C29.9204 67.3307 30.1117 67.9933 30.4944 68.46C30.8771 68.9267 31.4184 69.16 32.1184 69.16ZM43.9889 59.696V70H42.8689V68.726C42.6636 69.1647 42.3509 69.5053 41.9309 69.748C41.5203 69.9813 41.0396 70.098 40.4889 70.098C39.8729 70.098 39.3269 69.944 38.8509 69.636C38.3843 69.328 38.0203 68.8987 37.7589 68.348C37.4976 67.788 37.3669 67.144 37.3669 66.416C37.3669 65.688 37.4929 65.0533 37.7449 64.512C38.0063 63.9613 38.3749 63.5367 38.8509 63.238C39.3269 62.9393 39.8729 62.79 40.4889 62.79C41.0396 62.79 41.5203 62.9113 41.9309 63.154C42.3416 63.3873 42.6496 63.7187 42.8549 64.148V59.696H43.9889ZM40.7129 69.16C41.4036 69.16 41.9356 68.9267 42.3089 68.46C42.6823 67.984 42.8689 67.312 42.8689 66.444C42.8689 65.5853 42.6823 64.9227 42.3089 64.456C41.9356 63.98 41.4036 63.742 40.7129 63.742C40.0223 63.742 39.4809 63.9753 39.0889 64.442C38.7063 64.9087 38.5149 65.5667 38.5149 66.416C38.5149 67.284 38.7063 67.9607 39.0889 68.446C39.4809 68.922 40.0223 69.16 40.7129 69.16ZM49.6575 62.79C49.8908 62.79 50.1055 62.818 50.3015 62.874L50.2735 63.91C50.0588 63.8353 49.8115 63.798 49.5315 63.798C48.8501 63.798 48.3415 64.0127 48.0055 64.442C47.6788 64.862 47.5155 65.3753 47.5155 65.982V70H46.3815V64.932C46.3815 64.204 46.3441 63.546 46.2695 62.958H47.3475L47.4595 64.26C47.6368 63.784 47.9215 63.42 48.3135 63.168C48.7055 62.916 49.1535 62.79 49.6575 62.79ZM57.719 62.958V70H56.599V68.726C56.3937 69.1647 56.081 69.5053 55.661 69.748C55.2503 69.9813 54.7697 70.098 54.219 70.098C53.5937 70.098 53.043 69.9487 52.567 69.65C52.1003 69.3513 51.7363 68.9313 51.475 68.39C51.223 67.8393 51.097 67.2 51.097 66.472C51.097 65.744 51.2277 65.1047 51.489 64.554C51.7503 63.994 52.1143 63.56 52.581 63.252C53.057 62.944 53.603 62.79 54.219 62.79C54.7697 62.79 55.2503 62.9113 55.661 63.154C56.0717 63.3967 56.3843 63.7373 56.599 64.176V62.958H57.719ZM54.443 69.16C55.1337 69.16 55.6657 68.9267 56.039 68.46C56.4123 67.984 56.599 67.312 56.599 66.444C56.599 65.576 56.4123 64.9087 56.039 64.442C55.6657 63.9753 55.1337 63.742 54.443 63.742C53.7523 63.742 53.211 63.9847 52.819 64.47C52.4363 64.946 52.245 65.6133 52.245 66.472C52.245 67.3307 52.4363 67.9933 52.819 68.46C53.2017 68.9267 53.743 69.16 54.443 69.16ZM52.357 61.39C52.357 60.8767 52.469 60.48 52.693 60.2C52.9263 59.92 53.2343 59.78 53.617 59.78C53.813 59.78 53.9997 59.822 54.177 59.906C54.3543 59.9807 54.5643 60.0927 54.807 60.242C55.003 60.3633 55.157 60.452 55.269 60.508C55.3903 60.564 55.507 60.592 55.619 60.592C55.8243 60.592 55.983 60.5173 56.095 60.368C56.2163 60.2187 56.277 60.0367 56.277 59.822H56.907C56.907 60.3353 56.7903 60.732 56.557 61.012C56.333 61.292 56.0297 61.432 55.647 61.432C55.451 61.432 55.2643 61.3947 55.087 61.32C54.9097 61.236 54.6997 61.1193 54.457 60.97C54.261 60.8487 54.1023 60.76 53.981 60.704C53.869 60.648 53.757 60.62 53.645 60.62C53.4397 60.62 53.2763 60.6947 53.155 60.844C53.043 60.9933 52.987 61.1753 52.987 61.39H52.357ZM63.0235 70.098C62.3609 70.098 61.7775 69.9487 61.2735 69.65C60.7695 69.3513 60.3775 68.9267 60.0975 68.376C59.8269 67.8253 59.6915 67.1813 59.6915 66.444C59.6915 65.7067 59.8269 65.0627 60.0975 64.512C60.3775 63.9613 60.7695 63.5367 61.2735 63.238C61.7775 62.9393 62.3609 62.79 63.0235 62.79C63.6862 62.79 64.2695 62.9393 64.7735 63.238C65.2775 63.5367 65.6649 63.9613 65.9355 64.512C66.2155 65.0627 66.3555 65.7067 66.3555 66.444C66.3555 67.1813 66.2155 67.8253 65.9355 68.376C65.6649 68.9267 65.2775 69.3513 64.7735 69.65C64.2695 69.9487 63.6862 70.098 63.0235 70.098ZM63.0235 69.16C63.7235 69.16 64.2602 68.9313 64.6335 68.474C65.0069 68.0073 65.1935 67.3307 65.1935 66.444C65.1935 65.5853 65.0022 64.9227 64.6195 64.456C64.2369 63.98 63.7049 63.742 63.0235 63.742C62.3329 63.742 61.7962 63.98 61.4135 64.456C61.0309 64.9227 60.8395 65.5853 60.8395 66.444C60.8395 67.3307 61.0262 68.0073 61.3995 68.474C61.7822 68.9313 62.3235 69.16 63.0235 69.16ZM74.1336 72.548C73.5736 71.484 73.1676 70.448 72.9156 69.44C72.6636 68.4227 72.5376 67.368 72.5376 66.276C72.5376 65.1933 72.6636 64.1433 72.9156 63.126C73.177 62.1087 73.583 61.0773 74.1336 60.032H75.0856C74.5816 61.1987 74.227 62.2813 74.0216 63.28C73.8163 64.2787 73.7136 65.2773 73.7136 66.276C73.7136 67.2653 73.8163 68.264 74.0216 69.272C74.227 70.2707 74.577 71.3627 75.0716 72.548H74.1336ZM84.716 64.806V69.426C84.324 69.6313 83.8106 69.7993 83.176 69.93C82.5413 70.0513 81.8973 70.112 81.244 70.112C80.2546 70.112 79.4006 69.9113 78.682 69.51C77.9633 69.0993 77.4126 68.5113 77.03 67.746C76.6566 66.9807 76.47 66.066 76.47 65.002C76.47 63.9473 76.6566 63.042 77.03 62.286C77.4126 61.5207 77.954 60.9373 78.654 60.536C79.3633 60.1253 80.1986 59.92 81.16 59.92C81.86 59.92 82.4993 60.0273 83.078 60.242C83.666 60.4473 84.17 60.76 84.59 61.18L84.142 62.062C83.6566 61.6513 83.1806 61.3573 82.714 61.18C82.2566 60.9933 81.7386 60.9 81.16 60.9C80.0306 60.9 79.1626 61.2547 78.556 61.964C77.9586 62.664 77.66 63.6767 77.66 65.002C77.66 66.3553 77.968 67.3867 78.584 68.096C79.2 68.796 80.096 69.146 81.272 69.146C82.1026 69.146 82.9006 69.0153 83.666 68.754V65.716H81.188V64.806H84.716ZM90.4382 70.112C88.8795 70.112 87.6382 69.692 86.7142 68.852L87.1482 67.97C87.6429 68.39 88.1469 68.6887 88.6602 68.866C89.1735 69.0433 89.7709 69.132 90.4522 69.132C91.2549 69.132 91.8709 68.978 92.3002 68.67C92.7389 68.3527 92.9582 67.9093 92.9582 67.34C92.9582 67.004 92.8509 66.7333 92.6362 66.528C92.4309 66.3133 92.1555 66.1453 91.8102 66.024C91.4742 65.9027 91.0215 65.7767 90.4522 65.646C89.6869 65.478 89.0569 65.296 88.5622 65.1C88.0675 64.904 87.6662 64.624 87.3582 64.26C87.0502 63.8867 86.8962 63.4013 86.8962 62.804C86.8962 62.2347 87.0455 61.7353 87.3442 61.306C87.6429 60.8673 88.0629 60.5267 88.6042 60.284C89.1549 60.0413 89.7942 59.92 90.5222 59.92C91.2129 59.92 91.8569 60.0273 92.4542 60.242C93.0515 60.4567 93.5555 60.7693 93.9662 61.18L93.5182 62.062C93.0515 61.6607 92.5755 61.3667 92.0902 61.18C91.6142 60.9933 91.0915 60.9 90.5222 60.9C89.7475 60.9 89.1409 61.068 88.7022 61.404C88.2635 61.7307 88.0442 62.1833 88.0442 62.762C88.0442 63.266 88.2355 63.644 88.6182 63.896C89.0009 64.148 89.5889 64.3673 90.3822 64.554C91.2409 64.7593 91.9129 64.9507 92.3982 65.128C92.8929 65.296 93.3035 65.5573 93.6302 65.912C93.9569 66.2573 94.1202 66.7193 94.1202 67.298C94.1202 67.858 93.9709 68.3527 93.6722 68.782C93.3735 69.202 92.9442 69.5287 92.3842 69.762C91.8335 69.9953 91.1849 70.112 90.4382 70.112ZM105.619 60.032V70H104.555V62.594L101.321 70H100.509L97.2468 62.65L97.2608 70H96.1968V60.032H97.1488L100.929 68.628L104.667 60.032H105.619ZM114.536 60.032V60.886L109.86 70H108.628L113.276 60.998H107.956V60.032H114.536ZM116.662 65.772H120.624V66.71H116.662V65.772ZM123.074 60.032H127.05C128.077 60.032 128.875 60.2793 129.444 60.774C130.023 61.2687 130.312 61.95 130.312 62.818C130.312 63.686 130.023 64.372 129.444 64.876C128.866 65.3707 128.068 65.618 127.05 65.618H124.222V70H123.074V60.032ZM126.952 64.666C127.69 64.666 128.245 64.5073 128.618 64.19C128.992 63.8727 129.178 63.4153 129.178 62.818C129.178 62.2207 128.992 61.768 128.618 61.46C128.245 61.1427 127.69 60.984 126.952 60.984H124.222V64.666H126.952ZM134.542 61.012H131.07V60.032H139.176V61.012H135.704V70H134.542V61.012ZM140.45 72.548C140.945 71.3627 141.295 70.2707 141.5 69.272C141.705 68.264 141.808 67.2653 141.808 66.276C141.808 65.2773 141.705 64.2787 141.5 63.28C141.295 62.2813 140.945 61.1987 140.45 60.032H141.402C141.953 61.0773 142.354 62.1087 142.606 63.126C142.858 64.1433 142.984 65.1933 142.984 66.276C142.984 67.368 142.858 68.4227 142.606 69.44C142.354 70.448 141.948 71.484 141.388 72.548H140.45ZM26.756 92.438H21.548L20.442 95H19.252L23.634 85.032H24.642L29.024 95H27.848L26.756 92.438ZM26.35 91.486L24.152 86.362L21.954 91.486H26.35ZM36.4331 87.972L33.3951 95H32.3171L29.3211 87.972H30.5111L32.8911 93.768L35.2991 87.972H36.4331ZM44.0026 87.958V95H42.8826V93.726C42.6773 94.1647 42.3646 94.5053 41.9446 94.748C41.5339 94.9813 41.0533 95.098 40.5026 95.098C39.8773 95.098 39.3266 94.9487 38.8506 94.65C38.3839 94.3513 38.0199 93.9313 37.7586 93.39C37.5066 92.8393 37.3806 92.2 37.3806 91.472C37.3806 90.744 37.5113 90.1047 37.7726 89.554C38.0339 88.994 38.3979 88.56 38.8646 88.252C39.3406 87.944 39.8866 87.79 40.5026 87.79C41.0533 87.79 41.5339 87.9113 41.9446 88.154C42.3553 88.3967 42.6679 88.7373 42.8826 89.176V87.958H44.0026ZM40.7266 94.16C41.4173 94.16 41.9493 93.9267 42.3226 93.46C42.6959 92.984 42.8826 92.312 42.8826 91.444C42.8826 90.576 42.6959 89.9087 42.3226 89.442C41.9493 88.9753 41.4173 88.742 40.7266 88.742C40.0359 88.742 39.4946 88.9847 39.1026 89.47C38.7199 89.946 38.5286 90.6133 38.5286 91.472C38.5286 92.3307 38.7199 92.9933 39.1026 93.46C39.4853 93.9267 40.0266 94.16 40.7266 94.16ZM49.9091 87.79C51.5985 87.79 52.4431 88.7187 52.4431 90.576V95H51.3091V90.632C51.3091 89.9787 51.1785 89.5027 50.9171 89.204C50.6558 88.896 50.2451 88.742 49.6851 88.742C49.0318 88.742 48.5091 88.9427 48.1171 89.344C47.7251 89.7453 47.5291 90.2867 47.5291 90.968V95H46.3951V89.932C46.3951 89.204 46.3578 88.546 46.2831 87.958H47.3611L47.4731 89.218C47.6878 88.7607 48.0098 88.4107 48.4391 88.168C48.8685 87.916 49.3585 87.79 49.9091 87.79ZM60.2726 94.188C59.9926 94.4493 59.6426 94.664 59.2226 94.832C58.8119 94.9907 58.3826 95.0793 57.9346 95.098L57.8786 95.602C58.0279 95.5833 58.1399 95.574 58.2146 95.574C58.5132 95.574 58.7652 95.658 58.9706 95.826C59.1852 95.994 59.2926 96.2367 59.2926 96.554C59.2926 96.8993 59.1479 97.1793 58.8586 97.394C58.5692 97.618 58.1679 97.73 57.6546 97.73C57.4586 97.73 57.2439 97.7067 57.0106 97.66C56.7772 97.6133 56.5766 97.548 56.4086 97.464L56.5906 96.848C56.9266 96.9787 57.2812 97.044 57.6546 97.044C57.9066 97.044 58.0979 97.002 58.2286 96.918C58.3686 96.834 58.4386 96.7127 58.4386 96.554C58.4386 96.4327 58.3966 96.3393 58.3126 96.274C58.2286 96.2087 58.1072 96.176 57.9486 96.176C57.7339 96.176 57.5192 96.218 57.3046 96.302L57.0246 96.078L57.1366 95.056C56.2779 94.9347 55.6012 94.5567 55.1066 93.922C54.6119 93.278 54.3646 92.4613 54.3646 91.472C54.3646 90.744 54.5046 90.1047 54.7846 89.554C55.0646 88.994 55.4612 88.56 55.9746 88.252C56.4972 87.944 57.1039 87.79 57.7946 87.79C58.2706 87.79 58.7279 87.874 59.1666 88.042C59.6146 88.2007 59.9832 88.4247 60.2726 88.714L59.8946 89.554C59.5399 89.274 59.1946 89.0687 58.8586 88.938C58.5319 88.8073 58.1959 88.742 57.8506 88.742C57.1319 88.742 56.5672 88.9847 56.1566 89.47C55.7459 89.946 55.5406 90.6133 55.5406 91.472C55.5406 92.3213 55.7412 92.984 56.1426 93.46C56.5532 93.9267 57.1226 94.16 57.8506 94.16C58.1959 94.16 58.5319 94.0947 58.8586 93.964C59.1946 93.8333 59.5399 93.628 59.8946 93.348L60.2726 94.188ZM68.1182 87.958V95H66.9982V93.726C66.7929 94.1647 66.4802 94.5053 66.0602 94.748C65.6496 94.9813 65.1689 95.098 64.6182 95.098C63.9929 95.098 63.4422 94.9487 62.9662 94.65C62.4996 94.3513 62.1356 93.9313 61.8742 93.39C61.6222 92.8393 61.4962 92.2 61.4962 91.472C61.4962 90.744 61.6269 90.1047 61.8882 89.554C62.1496 88.994 62.5136 88.56 62.9802 88.252C63.4562 87.944 64.0022 87.79 64.6182 87.79C65.1689 87.79 65.6496 87.9113 66.0602 88.154C66.4709 88.3967 66.7836 88.7373 66.9982 89.176V87.958H68.1182ZM64.8422 94.16C65.5329 94.16 66.0649 93.9267 66.4382 93.46C66.8116 92.984 66.9982 92.312 66.9982 91.444C66.9982 90.576 66.8116 89.9087 66.4382 89.442C66.0649 88.9753 65.5329 88.742 64.8422 88.742C64.1516 88.742 63.6102 88.9847 63.2182 89.47C62.8356 89.946 62.6442 90.6133 62.6442 91.472C62.6442 92.3307 62.8356 92.9933 63.2182 93.46C63.6009 93.9267 64.1422 94.16 64.8422 94.16ZM76.7128 84.696V95H75.5928V93.726C75.3874 94.1647 75.0748 94.5053 74.6548 94.748C74.2441 94.9813 73.7634 95.098 73.2128 95.098C72.5968 95.098 72.0508 94.944 71.5748 94.636C71.1081 94.328 70.7441 93.8987 70.4828 93.348C70.2214 92.788 70.0908 92.144 70.0908 91.416C70.0908 90.688 70.2168 90.0533 70.4688 89.512C70.7301 88.9613 71.0988 88.5367 71.5748 88.238C72.0508 87.9393 72.5968 87.79 73.2128 87.79C73.7634 87.79 74.2441 87.9113 74.6548 88.154C75.0654 88.3873 75.3734 88.7187 75.5788 89.148V84.696H76.7128ZM73.4368 94.16C74.1274 94.16 74.6594 93.9267 75.0328 93.46C75.4061 92.984 75.5928 92.312 75.5928 91.444C75.5928 90.5853 75.4061 89.9227 75.0328 89.456C74.6594 88.98 74.1274 88.742 73.4368 88.742C72.7461 88.742 72.2048 88.9753 71.8128 89.442C71.4301 89.9087 71.2388 90.5667 71.2388 91.416C71.2388 92.284 71.4301 92.9607 71.8128 93.446C72.2048 93.922 72.7461 94.16 73.4368 94.16ZM82.0173 95.098C81.3546 95.098 80.7713 94.9487 80.2673 94.65C79.7633 94.3513 79.3713 93.9267 79.0913 93.376C78.8206 92.8253 78.6853 92.1813 78.6853 91.444C78.6853 90.7067 78.8206 90.0627 79.0913 89.512C79.3713 88.9613 79.7633 88.5367 80.2673 88.238C80.7713 87.9393 81.3546 87.79 82.0173 87.79C82.6799 87.79 83.2633 87.9393 83.7673 88.238C84.2713 88.5367 84.6586 88.9613 84.9293 89.512C85.2093 90.0627 85.3493 90.7067 85.3493 91.444C85.3493 92.1813 85.2093 92.8253 84.9293 93.376C84.6586 93.9267 84.2713 94.3513 83.7673 94.65C83.2633 94.9487 82.6799 95.098 82.0173 95.098ZM82.0173 94.16C82.7173 94.16 83.2539 93.9313 83.6273 93.474C84.0006 93.0073 84.1873 92.3307 84.1873 91.444C84.1873 90.5853 83.9959 89.9227 83.6133 89.456C83.2306 88.98 82.6986 88.742 82.0173 88.742C81.3266 88.742 80.7899 88.98 80.4073 89.456C80.0246 89.9227 79.8333 90.5853 79.8333 91.444C79.8333 92.3307 80.0199 93.0073 80.3933 93.474C80.7759 93.9313 81.3173 94.16 82.0173 94.16ZM93.1274 97.548C92.5674 96.484 92.1614 95.448 91.9094 94.44C91.6574 93.4227 91.5314 92.368 91.5314 91.276C91.5314 90.1933 91.6574 89.1433 91.9094 88.126C92.1707 87.1087 92.5767 86.0773 93.1274 85.032H94.0794C93.5754 86.1987 93.2207 87.2813 93.0154 88.28C92.8101 89.2787 92.7074 90.2773 92.7074 91.276C92.7074 92.2653 92.8101 93.264 93.0154 94.272C93.2207 95.2707 93.5707 96.3627 94.0654 97.548H93.1274ZM99.8428 95.112C98.5361 95.112 97.5468 94.776 96.8748 94.104C96.2121 93.4227 95.8808 92.4193 95.8808 91.094V85.032H97.0148V91.192C97.0148 92.1627 97.2528 92.8953 97.7288 93.39C98.2048 93.8847 98.9094 94.132 99.8428 94.132C100.767 94.132 101.462 93.8847 101.929 93.39C102.405 92.8953 102.643 92.1627 102.643 91.192V85.032H103.791V91.094C103.791 92.41 103.455 93.4087 102.783 94.09C102.111 94.7713 101.131 95.112 99.8428 95.112ZM108.799 86.012H105.327V85.032H113.433V86.012H109.961V95H108.799V86.012ZM115.027 85.032H121.187V85.998H116.161V89.456H120.907V90.422H116.161V95H115.027V85.032ZM122.823 90.772H126.785V91.71H122.823V90.772ZM135.353 94.034V95H129.795V94.034H131.993V86.46L129.949 87.762V86.656L132.497 85.032H133.155V94.034H135.353ZM141.218 88.742C141.824 88.742 142.361 88.8773 142.828 89.148C143.304 89.4093 143.672 89.7827 143.934 90.268C144.195 90.744 144.326 91.29 144.326 91.906C144.326 92.522 144.186 93.0727 143.906 93.558C143.635 94.0433 143.257 94.426 142.772 94.706C142.286 94.9767 141.736 95.112 141.12 95.112C139.916 95.112 138.987 94.692 138.334 93.852C137.68 93.012 137.354 91.8173 137.354 90.268C137.354 89.148 137.503 88.1867 137.802 87.384C138.11 86.5813 138.548 85.97 139.118 85.55C139.696 85.13 140.387 84.92 141.19 84.92C141.768 84.92 142.328 85.0273 142.87 85.242C143.42 85.4567 143.901 85.76 144.312 86.152L143.878 87.034C143.411 86.642 142.963 86.3527 142.534 86.166C142.104 85.9793 141.666 85.886 141.218 85.886C140.359 85.886 139.692 86.2687 139.216 87.034C138.74 87.7993 138.502 88.8727 138.502 90.254V90.464C138.716 89.932 139.066 89.512 139.552 89.204C140.037 88.896 140.592 88.742 141.218 88.742ZM141.064 94.146C141.698 94.146 142.212 93.9453 142.604 93.544C142.996 93.1333 143.192 92.592 143.192 91.92C143.192 91.2573 142.991 90.7253 142.59 90.324C142.198 89.9133 141.684 89.708 141.05 89.708C140.396 89.708 139.864 89.9133 139.454 90.324C139.043 90.7347 138.838 91.2667 138.838 91.92C138.838 92.5827 139.043 93.1193 139.454 93.53C139.864 93.9407 140.401 94.146 141.064 94.146Z" fill="white"/>
<path d="M145.64 97.548C146.135 96.3627 146.485 95.2707 146.69 94.272C146.896 93.264 146.998 92.2653 146.998 91.276C146.998 90.2773 146.896 89.2787 146.69 88.28C146.485 87.2813 146.135 86.1987 145.64 85.032H146.592C147.143 86.0773 147.544 87.1087 147.796 88.126C148.048 89.1433 148.174 90.1933 148.174 91.276C148.174 92.368 148.048 93.4227 147.796 94.44C147.544 95.448 147.138 96.484 146.578 97.548H145.64Z" fill="black"/>
<path d="M20.232 9.032H24.208C25.2347 9.032 26.0327 9.27933 26.602 9.774C27.1807 10.2687 27.47 10.95 27.47 11.818C27.47 12.686 27.1807 13.372 26.602 13.876C26.0233 14.3707 25.2253 14.618 24.208 14.618H21.38V19H20.232V9.032ZM24.11 13.666C24.8473 13.666 25.4027 13.5073 25.776 13.19C26.1493 12.8727 26.336 12.4153 26.336 11.818C26.336 11.2207 26.1493 10.768 25.776 10.46C25.4027 10.1427 24.8473 9.984 24.11 9.984H21.38V13.666H24.11ZM35.3944 11.958V19H34.2744V17.726C34.0691 18.1647 33.7564 18.5053 33.3364 18.748C32.9257 18.9813 32.4451 19.098 31.8944 19.098C31.2691 19.098 30.7184 18.9487 30.2424 18.65C29.7757 18.3513 29.4117 17.9313 29.1504 17.39C28.8984 16.8393 28.7724 16.2 28.7724 15.472C28.7724 14.744 28.9031 14.1047 29.1644 13.554C29.4257 12.994 29.7897 12.56 30.2564 12.252C30.7324 11.944 31.2784 11.79 31.8944 11.79C32.4451 11.79 32.9257 11.9113 33.3364 12.154C33.7471 12.3967 34.0597 12.7373 34.2744 13.176V11.958H35.3944ZM32.1184 18.16C32.8091 18.16 33.3411 17.9267 33.7144 17.46C34.0877 16.984 34.2744 16.312 34.2744 15.444C34.2744 14.576 34.0877 13.9087 33.7144 13.442C33.3411 12.9753 32.8091 12.742 32.1184 12.742C31.4277 12.742 30.8864 12.9847 30.4944 13.47C30.1117 13.946 29.9204 14.6133 29.9204 15.472C29.9204 16.3307 30.1117 16.9933 30.4944 17.46C30.8771 17.9267 31.4184 18.16 32.1184 18.16ZM43.9889 8.696V19H42.8689V17.726C42.6636 18.1647 42.3509 18.5053 41.9309 18.748C41.5203 18.9813 41.0396 19.098 40.4889 19.098C39.8729 19.098 39.3269 18.944 38.8509 18.636C38.3843 18.328 38.0203 17.8987 37.7589 17.348C37.4976 16.788 37.3669 16.144 37.3669 15.416C37.3669 14.688 37.4929 14.0533 37.7449 13.512C38.0063 12.9613 38.3749 12.5367 38.8509 12.238C39.3269 11.9393 39.8729 11.79 40.4889 11.79C41.0396 11.79 41.5203 11.9113 41.9309 12.154C42.3416 12.3873 42.6496 12.7187 42.8549 13.148V8.696H43.9889ZM40.7129 18.16C41.4036 18.16 41.9356 17.9267 42.3089 17.46C42.6823 16.984 42.8689 16.312 42.8689 15.444C42.8689 14.5853 42.6823 13.9227 42.3089 13.456C41.9356 12.98 41.4036 12.742 40.7129 12.742C40.0223 12.742 39.4809 12.9753 39.0889 13.442C38.7063 13.9087 38.5149 14.5667 38.5149 15.416C38.5149 16.284 38.7063 16.9607 39.0889 17.446C39.4809 17.922 40.0223 18.16 40.7129 18.16ZM49.6575 11.79C49.8908 11.79 50.1055 11.818 50.3015 11.874L50.2735 12.91C50.0588 12.8353 49.8115 12.798 49.5315 12.798C48.8501 12.798 48.3415 13.0127 48.0055 13.442C47.6788 13.862 47.5155 14.3753 47.5155 14.982V19H46.3815V13.932C46.3815 13.204 46.3441 12.546 46.2695 11.958H47.3475L47.4595 13.26C47.6368 12.784 47.9215 12.42 48.3135 12.168C48.7055 11.916 49.1535 11.79 49.6575 11.79ZM57.719 11.958V19H56.599V17.726C56.3937 18.1647 56.081 18.5053 55.661 18.748C55.2503 18.9813 54.7697 19.098 54.219 19.098C53.5937 19.098 53.043 18.9487 52.567 18.65C52.1003 18.3513 51.7363 17.9313 51.475 17.39C51.223 16.8393 51.097 16.2 51.097 15.472C51.097 14.744 51.2277 14.1047 51.489 13.554C51.7503 12.994 52.1143 12.56 52.581 12.252C53.057 11.944 53.603 11.79 54.219 11.79C54.7697 11.79 55.2503 11.9113 55.661 12.154C56.0717 12.3967 56.3843 12.7373 56.599 13.176V11.958H57.719ZM54.443 18.16C55.1337 18.16 55.6657 17.9267 56.039 17.46C56.4123 16.984 56.599 16.312 56.599 15.444C56.599 14.576 56.4123 13.9087 56.039 13.442C55.6657 12.9753 55.1337 12.742 54.443 12.742C53.7523 12.742 53.211 12.9847 52.819 13.47C52.4363 13.946 52.245 14.6133 52.245 15.472C52.245 16.3307 52.4363 16.9933 52.819 17.46C53.2017 17.9267 53.743 18.16 54.443 18.16ZM52.357 10.39C52.357 9.87667 52.469 9.48 52.693 9.2C52.9263 8.92 53.2343 8.78 53.617 8.78C53.813 8.78 53.9997 8.822 54.177 8.906C54.3543 8.98067 54.5643 9.09267 54.807 9.242C55.003 9.36333 55.157 9.452 55.269 9.508C55.3903 9.564 55.507 9.592 55.619 9.592C55.8243 9.592 55.983 9.51733 56.095 9.368C56.2163 9.21867 56.277 9.03667 56.277 8.822H56.907C56.907 9.33533 56.7903 9.732 56.557 10.012C56.333 10.292 56.0297 10.432 55.647 10.432C55.451 10.432 55.2643 10.3947 55.087 10.32C54.9097 10.236 54.6997 10.1193 54.457 9.97C54.261 9.84867 54.1023 9.76 53.981 9.704C53.869 9.648 53.757 9.62 53.645 9.62C53.4397 9.62 53.2763 9.69467 53.155 9.844C53.043 9.99333 52.987 10.1753 52.987 10.39H52.357ZM63.0235 19.098C62.3609 19.098 61.7775 18.9487 61.2735 18.65C60.7695 18.3513 60.3775 17.9267 60.0975 17.376C59.8269 16.8253 59.6915 16.1813 59.6915 15.444C59.6915 14.7067 59.8269 14.0627 60.0975 13.512C60.3775 12.9613 60.7695 12.5367 61.2735 12.238C61.7775 11.9393 62.3609 11.79 63.0235 11.79C63.6862 11.79 64.2695 11.9393 64.7735 12.238C65.2775 12.5367 65.6649 12.9613 65.9355 13.512C66.2155 14.0627 66.3555 14.7067 66.3555 15.444C66.3555 16.1813 66.2155 16.8253 65.9355 17.376C65.6649 17.9267 65.2775 18.3513 64.7735 18.65C64.2695 18.9487 63.6862 19.098 63.0235 19.098ZM63.0235 18.16C63.7235 18.16 64.2602 17.9313 64.6335 17.474C65.0069 17.0073 65.1935 16.3307 65.1935 15.444C65.1935 14.5853 65.0022 13.9227 64.6195 13.456C64.2369 12.98 63.7049 12.742 63.0235 12.742C62.3329 12.742 61.7962 12.98 61.4135 13.456C61.0309 13.9227 60.8395 14.5853 60.8395 15.444C60.8395 16.3307 61.0262 17.0073 61.3995 17.474C61.7822 17.9313 62.3235 18.16 63.0235 18.16ZM74.1336 21.548C73.5736 20.484 73.1676 19.448 72.9156 18.44C72.6636 17.4227 72.5376 16.368 72.5376 15.276C72.5376 14.1933 72.6636 13.1433 72.9156 12.126C73.177 11.1087 73.583 10.0773 74.1336 9.032H75.0856C74.5816 10.1987 74.227 11.2813 74.0216 12.28C73.8163 13.2787 73.7136 14.2773 73.7136 15.276C73.7136 16.2653 73.8163 17.264 74.0216 18.272C74.227 19.2707 74.577 20.3627 75.0716 21.548H74.1336ZM84.716 13.806V18.426C84.324 18.6313 83.8106 18.7993 83.176 18.93C82.5413 19.0513 81.8973 19.112 81.244 19.112C80.2546 19.112 79.4006 18.9113 78.682 18.51C77.9633 18.0993 77.4126 17.5113 77.03 16.746C76.6566 15.9807 76.47 15.066 76.47 14.002C76.47 12.9473 76.6566 12.042 77.03 11.286C77.4126 10.5207 77.954 9.93733 78.654 9.536C79.3633 9.12533 80.1986 8.92 81.16 8.92C81.86 8.92 82.4993 9.02733 83.078 9.242C83.666 9.44733 84.17 9.76 84.59 10.18L84.142 11.062C83.6566 10.6513 83.1806 10.3573 82.714 10.18C82.2566 9.99333 81.7386 9.9 81.16 9.9C80.0306 9.9 79.1626 10.2547 78.556 10.964C77.9586 11.664 77.66 12.6767 77.66 14.002C77.66 15.3553 77.968 16.3867 78.584 17.096C79.2 17.796 80.096 18.146 81.272 18.146C82.1026 18.146 82.9006 18.0153 83.666 17.754V14.716H81.188V13.806H84.716ZM90.4382 19.112C88.8795 19.112 87.6382 18.692 86.7142 17.852L87.1482 16.97C87.6429 17.39 88.1469 17.6887 88.6602 17.866C89.1735 18.0433 89.7709 18.132 90.4522 18.132C91.2549 18.132 91.8709 17.978 92.3002 17.67C92.7389 17.3527 92.9582 16.9093 92.9582 16.34C92.9582 16.004 92.8509 15.7333 92.6362 15.528C92.4309 15.3133 92.1555 15.1453 91.8102 15.024C91.4742 14.9027 91.0215 14.7767 90.4522 14.646C89.6869 14.478 89.0569 14.296 88.5622 14.1C88.0675 13.904 87.6662 13.624 87.3582 13.26C87.0502 12.8867 86.8962 12.4013 86.8962 11.804C86.8962 11.2347 87.0455 10.7353 87.3442 10.306C87.6429 9.86733 88.0629 9.52667 88.6042 9.284C89.1549 9.04133 89.7942 8.92 90.5222 8.92C91.2129 8.92 91.8569 9.02733 92.4542 9.242C93.0515 9.45667 93.5555 9.76933 93.9662 10.18L93.5182 11.062C93.0515 10.6607 92.5755 10.3667 92.0902 10.18C91.6142 9.99333 91.0915 9.9 90.5222 9.9C89.7475 9.9 89.1409 10.068 88.7022 10.404C88.2635 10.7307 88.0442 11.1833 88.0442 11.762C88.0442 12.266 88.2355 12.644 88.6182 12.896C89.0009 13.148 89.5889 13.3673 90.3822 13.554C91.2409 13.7593 91.9129 13.9507 92.3982 14.128C92.8929 14.296 93.3035 14.5573 93.6302 14.912C93.9569 15.2573 94.1202 15.7193 94.1202 16.298C94.1202 16.858 93.9709 17.3527 93.6722 17.782C93.3735 18.202 92.9442 18.5287 92.3842 18.762C91.8335 18.9953 91.1849 19.112 90.4382 19.112ZM105.619 9.032V19H104.555V11.594L101.321 19H100.509L97.2468 11.65L97.2608 19H96.1968V9.032H97.1488L100.929 17.628L104.667 9.032H105.619ZM114.536 9.032V9.886L109.86 19H108.628L113.276 9.998H107.956V9.032H114.536ZM116.088 21.548C116.583 20.3627 116.933 19.2707 117.138 18.272C117.344 17.264 117.446 16.2653 117.446 15.276C117.446 14.2773 117.344 13.2787 117.138 12.28C116.933 11.2813 116.583 10.1987 116.088 9.032H117.04C117.591 10.0773 117.992 11.1087 118.244 12.126C118.496 13.1433 118.622 14.1933 118.622 15.276C118.622 16.368 118.496 17.4227 118.244 18.44C117.992 19.448 117.586 20.484 117.026 21.548H116.088Z" fill="white"/>
<defs>
<filter id="filter0_d_0_1" x="0" y="24" width="308" height="104" filterUnits="userSpaceOnUse" color-interpolation-filters="sRGB">
<feFlood flood-opacity="0" result="BackgroundImageFix"/>
<feColorMatrix in="SourceAlpha" type="matrix" values="0 0 0 0 0 0 0 0 0 0 0 0 0 0 0 0 0 0 127 0" result="hardAlpha"/>
<feOffset dy="9"/>
<feGaussianBlur stdDeviation="5.5"/>
<feColorMatrix type="matrix" values="0 0 0 0 0 0 0 0 0 0 0 0 0 0 0 0 0 0 0.1 0"/>
<feBlend mode="normal" in2="BackgroundImageFix" result="effect1_dropShadow_0_1"/>
<feBlend mode="normal" in="SourceGraphic" in2="effect1_dropShadow_0_1" result="shape"/>
</filter>
</defs>
</svg>
