<svg width="96" height="33" viewBox="0 0 96 33" fill="none" xmlns="http://www.w3.org/2000/svg">
<g clip-path="url(#clip0_221_56)">
<path d="M38.4307 9.89001H31.2207V22.44H38.4307V9.89001Z" fill="#3E62B3"/>
<path d="M7.21 9.89001H0V22.44H7.21V9.89001Z" fill="#3E62B3"/>
<path d="M0 7.00002V0.150024H10.27L14.34 7.00002H0Z" fill="#6A8AC7"/>
<path d="M38.4301 7.00002V0.150024H28.1601L24.0801 7.00002H38.4301Z" fill="#6A8AC7"/>
<path d="M21.9199 9.89001L19.2099 14.53L16.5099 9.89001H8.41992L15.1299 22.44H19.2099H23.2899L30.0099 9.89001H21.9199Z" fill="#3E62B3"/>
<path d="M61.8696 0.150024H40.3496V7.01002H61.8696V0.150024Z" fill="#6A8AC7"/>
<path d="M54.5391 22.44V9.89001H47.6791V22.44H54.5391Z" fill="#3E62B3"/>
<path d="M91.3809 0H67.3809C66.32 0 65.3026 0.421427 64.5524 1.17157C63.8023 1.92172 63.3809 2.93913 63.3809 4V7H95.3809V4C95.3809 2.93913 94.9594 1.92172 94.2093 1.17157C93.4591 0.421427 92.4417 0 91.3809 0V0Z" fill="#6A8AC7"/>
<path d="M63.4102 10.2V18.2C63.4102 19.2608 63.8316 20.2782 64.5817 21.0284C65.3319 21.7785 66.3493 22.2 67.4102 22.2H95.4102V17H72.4102C71.8797 17 71.371 16.7892 70.9959 16.4142C70.6209 16.0391 70.4102 15.5304 70.4102 15V10.2H63.4102Z" fill="#3E62B3"/>
<path d="M66.1594 31.09L64.9994 27.92C65.0167 28.2198 65.0167 28.5203 64.9994 28.82V31.09H64.6094V27.52H65.2394L66.3694 30.46L67.5094 27.52H68.1294V31.09H67.7194V28.79C67.7194 28.52 67.7194 28.24 67.7194 27.93L66.4994 31.09H66.1594Z" fill="white"/>
<path d="M68.5195 28.4099H68.9995L69.5795 29.9399C69.6765 30.1842 69.7567 30.4347 69.8195 30.6899C69.8195 30.6099 69.8895 30.4699 69.9595 30.2699C70.0295 30.0699 70.2395 29.4499 70.6195 28.4099H70.9995L69.8495 31.4599C69.7755 31.705 69.6374 31.9259 69.4495 32.0999C69.2935 32.2316 69.0935 32.2994 68.8895 32.2899C68.7697 32.2997 68.6493 32.2997 68.5295 32.2899V31.9599C68.6292 31.9707 68.7298 31.9707 68.8295 31.9599C68.9663 31.9591 69.0989 31.9123 69.2059 31.827C69.3129 31.7418 69.3881 31.6231 69.4195 31.4899L69.5695 31.1099L68.5195 28.4099Z" fill="white"/>
<path d="M72.54 31.09H72.12V27.89H71V27.52H73.68V27.89H72.54V31.09Z" fill="white"/>
<path d="M74.8396 31.14C74.6655 31.1497 74.4913 31.1217 74.3291 31.0578C74.1668 30.9939 74.0203 30.8958 73.8996 30.77C73.78 30.6338 73.6884 30.4754 73.6301 30.3038C73.5718 30.1322 73.5478 29.9509 73.5596 29.77C73.5462 29.4111 73.6556 29.0584 73.8696 28.77C73.9755 28.6465 74.1077 28.5483 74.2565 28.4825C74.4053 28.4168 74.5669 28.3852 74.7296 28.39C74.8791 28.3816 75.0286 28.4069 75.1671 28.464C75.3056 28.5211 75.4294 28.6086 75.5296 28.72C75.7302 28.9682 75.8333 29.2811 75.8196 29.6V29.85H73.9996C73.9791 30.1109 74.0616 30.3693 74.2296 30.57C74.3135 30.6526 74.4138 30.7167 74.524 30.758C74.6343 30.7994 74.752 30.8171 74.8696 30.81C75.1622 30.809 75.4516 30.7478 75.7196 30.63V31C75.5906 31.0584 75.4568 31.1052 75.3196 31.14C75.1598 31.1532 74.9993 31.1532 74.8396 31.14ZM74.7296 28.7C74.6329 28.6954 74.5363 28.7117 74.4465 28.748C74.3568 28.7842 74.2759 28.8395 74.2096 28.91C74.0766 29.0751 73.9996 29.2782 73.9896 29.49H75.3796C75.3968 29.2823 75.3362 29.0756 75.2096 28.91C75.1522 28.8392 75.0786 28.7831 74.9951 28.7466C74.9116 28.7101 74.8205 28.6941 74.7296 28.7Z" fill="white"/>
<path d="M76.8199 31.09H76.4199V27.29H76.8199V31.09Z" fill="white"/>
<path d="M78.7302 31.14C78.5561 31.1497 78.382 31.1217 78.2197 31.0578C78.0575 30.9939 77.911 30.8958 77.7902 30.77C77.6706 30.6338 77.5791 30.4754 77.5207 30.3038C77.4624 30.1322 77.4384 29.9509 77.4502 29.77C77.4369 29.4111 77.5462 29.0584 77.7602 28.77C77.8661 28.6465 77.9983 28.5483 78.1471 28.4825C78.2959 28.4168 78.4576 28.3852 78.6202 28.39C78.7697 28.3816 78.9193 28.4069 79.0577 28.464C79.1962 28.5211 79.3201 28.6086 79.4202 28.72C79.6208 28.9682 79.7239 29.2811 79.7102 29.6V29.85H77.8702C77.8497 30.1109 77.9323 30.3693 78.1002 30.57C78.1841 30.6526 78.2844 30.7167 78.3947 30.758C78.5049 30.7994 78.6226 30.8171 78.7402 30.81C79.0329 30.809 79.3222 30.7478 79.5902 30.63V31C79.4606 31.0569 79.3269 31.1037 79.1902 31.14C79.0371 31.1518 78.8833 31.1518 78.7302 31.14ZM78.6102 28.7C78.5151 28.6962 78.4202 28.7129 78.3322 28.7492C78.2442 28.7854 78.165 28.8403 78.1002 28.91C77.9672 29.0751 77.8902 29.2782 77.8802 29.49H79.2702C79.2874 29.2823 79.2268 29.0756 79.1002 28.91C79.0412 28.8384 78.966 28.7819 78.8807 28.7454C78.7955 28.7088 78.7027 28.6933 78.6102 28.7Z" fill="white"/>
<path d="M81.3801 31.1401C81.2128 31.1506 81.0452 31.1238 80.8895 31.0615C80.7339 30.9992 80.594 30.9031 80.4801 30.7801C80.2556 30.4966 80.1419 30.1412 80.1601 29.7801C80.1463 29.4196 80.2596 29.0656 80.4801 28.7801C80.5981 28.6535 80.7427 28.5546 80.9035 28.4906C81.0643 28.4266 81.2374 28.3991 81.4101 28.4101C81.5366 28.4007 81.6636 28.4007 81.7901 28.4101C81.8969 28.4313 82.001 28.4649 82.1001 28.5101L81.9701 28.8601C81.877 28.8197 81.7797 28.7895 81.6801 28.7701C81.5872 28.757 81.493 28.757 81.4001 28.7701C80.8501 28.7701 80.5801 29.1201 80.5801 29.7701C80.5647 30.0382 80.6347 30.3043 80.7801 30.5301C80.8504 30.6175 80.9407 30.6868 81.0434 30.7321C81.1461 30.7773 81.2581 30.7972 81.3701 30.7901C81.6066 30.7846 81.8402 30.7372 82.0601 30.6501V31.0001C81.8473 31.0986 81.6145 31.1465 81.3801 31.1401Z" fill="white"/>
<path d="M84.9098 29.75C84.9252 30.1123 84.8079 30.4679 84.5798 30.75C84.464 30.8739 84.3227 30.9712 84.1655 31.0351C84.0084 31.099 83.8392 31.1279 83.6698 31.12C83.4397 31.1427 83.2077 31.1012 82.9998 31C82.8122 30.8815 82.6629 30.7113 82.5698 30.51C82.4655 30.281 82.4142 30.0315 82.4198 29.78C82.4016 29.4172 82.5192 29.0606 82.7498 28.78C82.8678 28.6614 83.0081 28.5674 83.1625 28.5032C83.317 28.439 83.4826 28.406 83.6498 28.406C83.8171 28.406 83.9827 28.439 84.1371 28.5032C84.2916 28.5674 84.4318 28.6614 84.5498 28.78C84.7842 29.0485 84.9122 29.3935 84.9098 29.75ZM82.9098 29.75C82.8916 30.026 82.9654 30.3004 83.1198 30.53C83.1894 30.6214 83.2808 30.6939 83.3856 30.7411C83.4903 30.7882 83.6052 30.8085 83.7198 30.8C83.8343 30.8076 83.9489 30.7869 84.0535 30.7398C84.1581 30.6928 84.2496 30.6207 84.3198 30.53C84.4577 30.2931 84.5304 30.024 84.5304 29.75C84.5304 29.4759 84.4577 29.2068 84.3198 28.97C84.2459 28.8815 84.1521 28.8119 84.046 28.7667C83.94 28.7215 83.8248 28.7021 83.7098 28.71C83.5963 28.702 83.4825 28.7215 83.3781 28.7668C83.2737 28.812 83.1817 28.8817 83.1098 28.97C82.9469 29.1968 82.8626 29.4707 82.8698 29.75H82.9098Z" fill="white"/>
<path d="M88.9393 31.09V29.35C88.9574 29.1778 88.9071 29.0054 88.7993 28.87C88.7462 28.813 88.6807 28.7689 88.6079 28.7412C88.5351 28.7135 88.4569 28.7028 88.3793 28.71C88.2762 28.7014 88.1726 28.7158 88.0757 28.7521C87.9789 28.7884 87.8913 28.8458 87.8193 28.92C87.6851 29.1164 87.6217 29.3527 87.6393 29.59V31.09H87.2293V29.35C87.2453 29.1795 87.1991 29.009 87.0993 28.87C87.0442 28.8128 86.9769 28.7687 86.9025 28.741C86.8281 28.7133 86.7484 28.7027 86.6693 28.71C86.5643 28.7 86.4584 28.7157 86.3609 28.7558C86.2633 28.7958 86.177 28.8591 86.1093 28.94C85.9747 29.162 85.9151 29.4214 85.9393 29.68V31.09H85.5293V28.41H85.8593L85.9293 28.78C86.0111 28.6502 86.1247 28.5435 86.2593 28.47C86.4046 28.3955 86.566 28.3577 86.7293 28.36C86.897 28.3403 87.0667 28.3741 87.214 28.4568C87.3613 28.5394 87.4787 28.6665 87.5493 28.82C87.6305 28.6785 87.7478 28.5611 87.8893 28.48C88.0503 28.3983 88.2288 28.3571 88.4093 28.36C88.5331 28.3503 88.6576 28.3667 88.7747 28.408C88.8918 28.4493 88.999 28.5147 89.0893 28.6C89.1749 28.7018 89.2394 28.8197 89.2789 28.9468C89.3184 29.0738 89.3321 29.2075 89.3193 29.34V31.09H88.9393Z" fill="white"/>
<path d="M89.9993 30.8301C89.9945 30.7398 90.023 30.6509 90.0793 30.5801C90.1057 30.5513 90.1384 30.5291 90.1748 30.5152C90.2113 30.5013 90.2505 30.4961 90.2893 30.5001C90.3297 30.4953 90.3706 30.5001 90.4088 30.5139C90.447 30.5278 90.4815 30.5505 90.5093 30.5801C90.5656 30.6509 90.5941 30.7398 90.5893 30.8301C90.5935 30.9173 90.565 31.0029 90.5093 31.0701C90.4815 31.1003 90.4474 31.1241 90.4093 31.1396C90.3713 31.1552 90.3303 31.1622 90.2893 31.1601C90.212 31.1597 90.1373 31.1313 90.0793 31.0801C90.0501 31.0458 90.028 31.0061 90.0142 30.9631C90.0005 30.9202 89.9954 30.875 89.9993 30.8301Z" fill="white"/>
<path d="M92.5801 31.14C92.4149 31.1398 92.2516 31.1058 92.1001 31.04C91.9528 30.9782 91.8274 30.8737 91.7401 30.74C91.7494 30.8899 91.7494 31.0402 91.7401 31.19V32.29H91.3301V28.41H91.6601L91.7201 28.78C91.8092 28.643 91.9335 28.5324 92.0801 28.46C92.2316 28.3943 92.3949 28.3603 92.5601 28.36C92.7162 28.3534 92.8716 28.3834 93.014 28.4476C93.1564 28.5119 93.2818 28.6086 93.3801 28.73C93.5848 29.0221 93.6868 29.3738 93.6701 29.73C93.6887 30.088 93.5827 30.4414 93.3701 30.73C93.279 30.8547 93.1603 30.9566 93.0232 31.0278C92.8861 31.0989 92.7345 31.1373 92.5801 31.14ZM92.5201 28.71C92.4114 28.6981 92.3014 28.7118 92.1989 28.75C92.0965 28.7882 92.0044 28.8498 91.9301 28.93C91.7857 29.1448 91.7187 29.4022 91.7401 29.66V29.75C91.7144 30.0303 91.7812 30.3112 91.9301 30.55C92.0013 30.6385 92.0935 30.7077 92.1983 30.7514C92.3031 30.795 92.4171 30.8118 92.5301 30.8C92.6362 30.8018 92.7412 30.7772 92.8355 30.7283C92.9297 30.6794 93.0104 30.6078 93.0701 30.52C93.2139 30.2862 93.2837 30.0143 93.2701 29.74C93.2848 29.4688 93.215 29.1998 93.0701 28.97C93.0066 28.8851 92.9232 28.817 92.8274 28.7717C92.7315 28.7264 92.626 28.7052 92.5201 28.71Z" fill="white"/>
<path d="M95.17 30.8H95.38H95.54V31.11L95.34 31.17H95.11C94.59 31.17 94.33 30.89 94.33 30.35V28.73H94V28.53L94.38 28.36L94.56 27.79H94.79V28.41H95.57V28.73H94.79V30.3C94.7817 30.4325 94.8206 30.5636 94.9 30.67C94.9704 30.7459 95.0668 30.7923 95.17 30.8Z" fill="white"/>
</g>
<defs>
<clipPath id="clip0_221_56">
<rect width="95.54" height="32.29" fill="white"/>
</clipPath>
</defs>
</svg>
