<svg width="19" height="20" viewBox="0 0 19 20" fill="none" xmlns="http://www.w3.org/2000/svg">
<g clip-path="url(#clip0_1_3523)">
<path d="M18.9999 10.0652C18.9999 9.39638 18.9465 8.72392 18.8325 8.06592H9.69043V11.8548H14.9257C14.7084 13.0768 14.0104 14.1579 12.9883 14.8448V17.3032H16.1116C17.9457 15.5895 18.9999 13.0588 18.9999 10.0652Z" fill="#4285F4"/>
<path d="M9.69059 19.6785C12.3046 19.6785 14.5091 18.8072 16.1153 17.3032L12.992 14.8447C12.123 15.4448 11.0012 15.7847 9.69415 15.7847C7.16557 15.7847 5.02161 14.0529 4.25235 11.7246H1.0293V14.259C2.67466 17.5815 6.02592 19.6785 9.69059 19.6785Z" fill="#34A853"/>
<path d="M4.24856 11.7247C3.84256 10.5027 3.84256 9.17949 4.24856 7.95748V5.4231H1.02907C-0.345627 8.20333 -0.345627 11.4789 1.02907 14.2591L4.24856 11.7247Z" fill="#FBBC04"/>
<path d="M9.69059 3.89371C11.0724 3.87201 12.4079 4.39986 13.4087 5.36879L16.1759 2.55963C14.4237 0.889317 12.0981 -0.0289925 9.69059 -6.93639e-05C6.02592 -6.93639e-05 2.67466 2.09686 1.0293 5.42302L4.24879 7.95741C5.01449 5.62548 7.16201 3.89371 9.69059 3.89371Z" fill="#EA4335"/>
</g>
<defs>
<clipPath id="clip0_1_3523">
<rect width="19" height="19.6786" fill="white"/>
</clipPath>
</defs>
</svg>
