<svg width="126" height="42" viewBox="0 0 126 42" fill="none" xmlns="http://www.w3.org/2000/svg">
<g clip-path="url(#clip0_1_3489)">
<path d="M125.636 29.1937H90.3885C89.8096 29.1649 89.2367 29.0627 88.6839 28.8896C85.4786 28.0496 83.876 26.6291 83.876 24.628V13.241H93.0146V20.0189C92.9852 20.5018 93.1328 20.979 93.4299 21.3622C93.7722 21.723 94.2007 21.992 94.6756 22.1442L95.2875 22.3615H125.636V29.1937Z" fill="white"/>
<path d="M125.636 9.1713H83.8763V4.46441C83.8668 3.80028 84.0571 3.14847 84.4227 2.59251C84.8051 2.02694 85.3012 1.54617 85.8796 1.18044C86.5175 0.77182 87.219 0.470864 87.9557 0.289754C88.7512 0.0914952 89.5688 -0.00583071 90.3888 9.8589e-05H119.076C119.935 -0.00696702 120.792 0.0952411 121.626 0.304237C122.362 0.485347 123.064 0.786303 123.702 1.19493C124.271 1.5592 124.756 2.04073 125.122 2.60699C125.475 3.1678 125.657 3.81776 125.647 4.47889L125.636 9.1713Z" fill="white"/>
<path d="M71.0623 13.241H61.8799V29.1937H71.0623V13.241Z" fill="white"/>
<path d="M81.2503 0H53.2188V9.17121H81.2503V0Z" fill="white"/>
<path d="M9.13867 13.241H0V29.1937H9.13867V13.241Z" fill="white"/>
<path d="M39.7925 13.2373L30.6975 29.1937H19.7668L10.6719 13.2373H21.384L25.3651 18.8458L29.0803 13.2373H39.7925Z" fill="white"/>
<path d="M18.7181 9.17121H0V0H13.1635L18.7181 9.17121Z" fill="white"/>
<path d="M50.4646 13.241H41.2822V29.1937H50.4646V13.241Z" fill="white"/>
<path d="M50.4649 9.17121H31.7031L37.3014 0H50.4649V9.17121Z" fill="white"/>
<path d="M97.2981 51.2496H95.4631V39.3593L91.8673 47.4499H90.7552L87.1871 39.3593V51.2496H85.4726V37.4502H87.9749L91.4224 45.133L94.7495 37.4502H97.2981V51.2496ZM93.4706 63.8977L87.9008 78.0679H86.038L87.8915 73.7492L84.1288 63.8977H86.0102L88.8368 71.562L91.6541 63.8977H93.4706ZM88.6978 97.2496V85.0813H84.064V83.4502H95.1665V85.0813H90.5327V97.2496H88.6978Z" fill="white"/>
<path d="M101.928 51.4906C100.278 51.4906 98.9964 51.0272 98.082 50.1005C97.1737 49.1675 96.7196 47.8453 96.7196 46.1339C96.7196 44.4472 97.1614 43.1065 98.0449 42.1118C98.9284 41.1109 100.084 40.6105 101.511 40.6105C102.154 40.6105 102.722 40.7031 103.216 40.8885C103.71 41.0738 104.143 41.3642 104.514 41.7596C104.884 42.1551 105.169 42.6401 105.366 43.2146C105.564 43.7831 105.663 44.4812 105.663 45.3091V46.2544H98.4897C98.4897 47.4592 98.7925 48.3798 99.398 49.0161C100.003 49.6525 100.841 49.9707 101.909 49.9707C102.293 49.9707 102.666 49.9275 103.031 49.841C103.402 49.7545 103.735 49.6433 104.032 49.5073C104.347 49.3652 104.613 49.2293 104.829 49.0996C105.045 48.9636 105.224 48.837 105.366 48.7196H105.468V50.6194C105.264 50.6998 105.011 50.8017 104.708 50.9253C104.406 51.0427 104.134 51.1353 103.893 51.2033C103.553 51.296 103.244 51.367 102.966 51.4165C102.694 51.4659 102.348 51.4906 101.928 51.4906ZM103.967 44.9199C103.955 44.4503 103.899 44.0456 103.8 43.7058C103.701 43.366 103.559 43.0787 103.374 42.8439C103.17 42.5844 102.907 42.3867 102.586 42.2508C102.271 42.1149 101.879 42.0469 101.409 42.0469C100.946 42.0469 100.55 42.118 100.223 42.2601C99.9015 42.396 99.608 42.5968 99.3424 42.8625C99.0829 43.1343 98.8852 43.4371 98.7492 43.7707C98.6133 44.0982 98.5268 44.4812 98.4897 44.9199H103.967ZM109.203 51.2496H107.461V36.8293H109.203V51.2496ZM116.256 51.4906C114.606 51.4906 113.324 51.0272 112.41 50.1005C111.501 49.1675 111.047 47.8453 111.047 46.1339C111.047 44.4472 111.489 43.1065 112.373 42.1118C113.256 41.1109 114.411 40.6105 115.839 40.6105C116.481 40.6105 117.05 40.7031 117.544 40.8885C118.038 41.0738 118.471 41.3642 118.841 41.7596C119.212 42.1551 119.496 42.6401 119.694 43.2146C119.892 43.7831 119.991 44.4812 119.991 45.3091V46.2544H112.817C112.817 47.4592 113.12 48.3798 113.726 49.0161C114.331 49.6525 115.168 49.9707 116.237 49.9707C116.62 49.9707 116.994 49.9275 117.359 49.841C117.729 49.7545 118.063 49.6433 118.359 49.5073C118.675 49.3652 118.94 49.2293 119.156 49.0996C119.373 48.9636 119.552 48.837 119.694 48.7196H119.796V50.6194C119.592 50.6998 119.339 50.8017 119.036 50.9253C118.733 51.0427 118.461 51.1353 118.22 51.2033C117.881 51.296 117.572 51.367 117.294 51.4165C117.022 51.4659 116.676 51.4906 116.256 51.4906ZM118.295 44.9199C118.282 44.4503 118.227 44.0456 118.128 43.7058C118.029 43.366 117.887 43.0787 117.701 42.8439C117.498 42.5844 117.235 42.3867 116.914 42.2508C116.599 42.1149 116.206 42.0469 115.737 42.0469C115.273 42.0469 114.878 42.118 114.55 42.2601C114.229 42.396 113.936 42.5968 113.67 42.8625C113.411 43.1343 113.213 43.4371 113.077 43.7707C112.941 44.0982 112.854 44.4812 112.817 44.9199H118.295ZM101.548 74.4813C100.838 74.4813 100.186 74.3732 99.5926 74.157C98.9995 73.9345 98.4897 73.6009 98.0634 73.1561C97.6371 72.7112 97.3066 72.1521 97.0718 71.4786C96.837 70.799 96.7196 70.002 96.7196 69.0876C96.7196 68.1794 96.8401 67.3947 97.0811 66.7336C97.3282 66.0725 97.6557 65.5165 98.0634 65.0655C98.4712 64.6144 98.9778 64.2685 99.5833 64.0275C100.195 63.7804 100.85 63.6568 101.548 63.6568C102.116 63.6568 102.663 63.7371 103.188 63.8977C103.72 64.0584 104.192 64.2437 104.606 64.4538V66.4093H104.504C104.381 66.3042 104.22 66.1838 104.022 66.0478C103.831 65.9119 103.596 65.7729 103.318 65.6308C103.077 65.5072 102.793 65.3991 102.466 65.3064C102.138 65.2137 101.823 65.1674 101.52 65.1674C100.618 65.1674 99.8922 65.5103 99.3424 66.1961C98.7987 66.8757 98.5268 67.8396 98.5268 69.0876C98.5268 70.3109 98.7894 71.2655 99.3146 71.9513C99.8459 72.6309 100.581 72.9707 101.52 72.9707C102.089 72.9707 102.629 72.8533 103.142 72.6185C103.655 72.3838 104.109 72.081 104.504 71.7103H104.606V73.6658C104.433 73.7461 104.217 73.8449 103.958 73.9623C103.698 74.0735 103.463 74.157 103.253 74.2126C102.957 74.2991 102.691 74.3639 102.456 74.4072C102.221 74.4566 101.919 74.4813 101.548 74.4813ZM114.717 69.0783C114.717 70.8206 114.297 72.1675 113.457 73.119C112.617 74.0643 111.498 74.5369 110.102 74.5369C108.662 74.5369 107.529 74.0488 106.701 73.0727C105.879 72.0903 105.468 70.7588 105.468 69.0783C105.468 67.3484 105.891 66.0046 106.738 65.0469C107.591 64.0893 108.712 63.6105 110.102 63.6105C111.498 63.6105 112.617 64.0893 113.457 65.0469C114.297 65.9984 114.717 67.3422 114.717 69.0783ZM112.919 69.0783C112.919 67.7376 112.675 66.7429 112.187 66.0942C111.699 65.4393 111.004 65.1118 110.102 65.1118C109.194 65.1118 108.493 65.4393 107.998 66.0942C107.51 66.7429 107.266 67.7376 107.266 69.0783C107.266 70.3758 107.51 71.3612 107.998 72.0347C108.493 72.7019 109.194 73.0356 110.102 73.0356C110.998 73.0356 111.69 72.7081 112.178 72.0532C112.672 71.3921 112.919 70.4005 112.919 69.0783ZM109.185 97.2496V91.2628C109.185 90.787 109.166 90.3484 109.129 89.9468C109.092 89.539 109.015 89.2208 108.897 88.9922C108.774 88.7451 108.598 88.5628 108.369 88.4454C108.14 88.328 107.831 88.2694 107.442 88.2694C107.084 88.2694 106.698 88.3806 106.284 88.603C105.876 88.8192 105.453 89.1343 105.014 89.5483C105.02 89.6533 105.026 89.78 105.033 89.9282C105.045 90.0704 105.051 90.2403 105.051 90.438V97.2496H103.309V91.2628C103.309 90.787 103.29 90.3484 103.253 89.9468C103.216 89.539 103.139 89.2208 103.022 88.9922C102.898 88.7451 102.722 88.5628 102.493 88.4454C102.265 88.328 101.956 88.2694 101.567 88.2694C101.19 88.2694 100.794 88.3867 100.38 88.6215C99.9664 88.8563 99.5648 89.1559 99.1755 89.5205V97.2496H97.4332V86.8977H99.1755V88.0469C99.6327 87.5897 100.084 87.2376 100.529 86.9904C100.98 86.7371 101.474 86.6105 102.011 86.6105C102.623 86.6105 103.164 86.7495 103.633 87.0275C104.109 87.3055 104.47 87.7627 104.718 88.3991C105.243 87.8122 105.756 87.3673 106.256 87.0646C106.756 86.7618 107.3 86.6105 107.887 86.6105C108.332 86.6105 108.737 86.6815 109.101 86.8236C109.466 86.9595 109.784 87.182 110.056 87.4909C110.334 87.806 110.547 88.1983 110.695 88.6679C110.85 89.1374 110.927 89.7274 110.927 90.438V97.2496H109.185ZM116.089 97.2496H113.874V94.6084H116.089V97.2496ZM106.117 114.8C106.117 116.524 105.703 117.899 104.875 118.924C104.053 119.944 103.012 120.454 101.752 120.454C101.239 120.454 100.785 120.395 100.39 120.277C99.9942 120.16 99.5895 119.978 99.1755 119.731V124.068H97.4332V109.898H99.1755V110.982C99.608 110.593 100.087 110.268 100.612 110.009C101.143 109.743 101.721 109.61 102.345 109.61C103.531 109.61 104.455 110.08 105.116 111.019C105.783 111.958 106.117 113.219 106.117 114.8ZM104.319 114.995C104.319 113.815 104.131 112.9 103.754 112.252C103.377 111.597 102.765 111.269 101.919 111.269C101.424 111.269 100.946 111.381 100.482 111.603C100.025 111.819 99.5895 112.1 99.1755 112.446V118.313C99.6327 118.535 100.022 118.687 100.343 118.767C100.671 118.847 101.045 118.887 101.465 118.887C102.367 118.887 103.068 118.557 103.568 117.896C104.069 117.235 104.319 116.268 104.319 114.995ZM111.057 120.454C110.105 120.454 109.364 120.185 108.832 119.647C108.301 119.104 108.035 118.248 108.035 117.08V111.343H106.858V109.898H108.035V106.923H109.778V109.898H112.984V111.343H109.778V116.265C109.778 116.79 109.787 117.194 109.805 117.479C109.824 117.763 109.895 118.029 110.019 118.276C110.124 118.492 110.294 118.656 110.528 118.767C110.763 118.872 111.081 118.924 111.483 118.924C111.767 118.924 112.042 118.884 112.308 118.804C112.573 118.717 112.765 118.646 112.882 118.591H112.984V120.157C112.657 120.25 112.323 120.321 111.983 120.37C111.65 120.426 111.341 120.454 111.057 120.454Z" fill="white"/>
</g>
<defs>
<clipPath id="clip0_1_3489">
<rect width="126" height="42" fill="white"/>
</clipPath>
</defs>
</svg>
