<svg width="66" height="67" viewBox="0 0 66 67" fill="none" xmlns="http://www.w3.org/2000/svg">
<rect width="66" height="67" rx="10" fill="#A0FFF4"/>
<path d="M33 52C42.9411 52 51 43.9411 51 34C51 24.0589 42.9411 16 33 16C23.0589 16 15 24.0589 15 34C15 43.9411 23.0589 52 33 52Z" stroke="#00685C" stroke-width="2" stroke-linecap="round" stroke-linejoin="round"/>
<path d="M18 44L20.1743 42.6878C20.3927 42.5559 20.5736 42.3702 20.6997 42.1485C20.8257 41.9267 20.8926 41.6763 20.8941 41.4212L20.9318 34.6959C20.9334 34.415 21.0145 34.1402 21.1656 33.9033L24.8602 28.1146C24.9694 27.9435 25.1124 27.7965 25.2805 27.6827C25.4486 27.5689 25.6382 27.4906 25.8376 27.4527C26.037 27.4147 26.2421 27.418 26.4403 27.4622C26.6384 27.5064 26.8254 27.5906 26.9898 27.7097L30.6496 30.3605C30.9596 30.585 31.3441 30.6816 31.7234 30.6303L37.5849 29.8367C37.9444 29.788 38.2738 29.6098 38.5112 29.3355L42.6367 24.57C42.8872 24.2807 43.0167 23.9062 42.9983 23.524L42.7808 19" stroke="#00685C" stroke-width="2" stroke-linecap="round" stroke-linejoin="round"/>
<path d="M44.2256 48L42.1133 45.9538C41.9158 45.7624 41.669 45.6254 41.3985 45.5567L37.1749 44.4852C36.8001 44.3901 36.4746 44.1646 36.261 43.852C36.0473 43.5394 35.9603 43.1616 36.0168 42.7909L36.4862 39.709C36.5258 39.4488 36.6345 39.203 36.8016 38.9956C36.9686 38.7881 37.1885 38.626 37.4396 38.525L43.4331 36.1166C43.7099 36.0053 44.0139 35.9728 44.3092 36.0228C44.6045 36.0729 44.8789 36.2034 45.1001 36.399L50 40.7315" stroke="#00685C" stroke-width="2" stroke-linecap="round" stroke-linejoin="round"/>
</svg>
