<svg width="66" height="67" viewBox="0 0 66 67" fill="none" xmlns="http://www.w3.org/2000/svg">
<rect width="66" height="67" rx="10" fill="#FFEE9C"/>
<path d="M42 43.0045C40.5254 44.4348 38.6466 45.4089 36.6012 45.8035C34.5559 46.1981 32.4358 45.9956 30.5091 45.2215C28.5824 44.4474 26.9356 43.1366 25.777 41.4547C24.6184 39.7728 24 37.7955 24 35.7727V31.2273C24 29.2045 24.6184 27.2272 25.777 25.5453C26.9356 23.8634 28.5824 22.5526 30.5091 21.7785C32.4358 21.0044 34.5559 20.8019 36.6012 21.1965C38.6466 21.5911 40.5254 22.5652 42 23.9955" stroke="#AC8E00" stroke-width="2" stroke-linecap="round" stroke-linejoin="round"/>
<path d="M21 31H35" stroke="#AC8E00" stroke-width="2" stroke-linecap="round" stroke-linejoin="round"/>
<path d="M21 36H32" stroke="#AC8E00" stroke-width="2" stroke-linecap="round" stroke-linejoin="round"/>
</svg>
