<svg width="66" height="67" viewBox="0 0 66 67" fill="none" xmlns="http://www.w3.org/2000/svg">
<rect width="66" height="67" rx="10" fill="#9DCEFF"/>
<path d="M24 31C27.3137 31 30 28.3137 30 25C30 21.6863 27.3137 19 24 19C20.6863 19 18 21.6863 18 25C18 28.3137 20.6863 31 24 31Z" stroke="#005DBB" stroke-width="2" stroke-linecap="round" stroke-linejoin="round"/>
<path d="M42 31C45.3137 31 48 28.3137 48 25C48 21.6863 45.3137 19 42 19C38.6863 19 36 21.6863 36 25C36 28.3137 38.6863 31 42 31Z" stroke="#005DBB" stroke-width="2" stroke-linecap="round" stroke-linejoin="round"/>
<path d="M24 49C27.3137 49 30 46.3137 30 43C30 39.6863 27.3137 37 24 37C20.6863 37 18 39.6863 18 43C18 46.3137 20.6863 49 24 49Z" stroke="#005DBB" stroke-width="2" stroke-linecap="round" stroke-linejoin="round"/>
<path d="M42 38V48" stroke="#005DBB" stroke-width="2" stroke-linecap="round" stroke-linejoin="round"/>
<path d="M47 43H37" stroke="#005DBB" stroke-width="2" stroke-linecap="round" stroke-linejoin="round"/>
</svg>
